<?xml version="1.0" standalone="no"?>
<!DOCTYPE svg PUBLIC "-//W3C//DTD SVG 20010904//EN"
 "http://www.w3.org/TR/2001/REC-SVG-20010904/DTD/svg10.dtd">
<svg version="1.0" xmlns="http://www.w3.org/2000/svg"
 width="768.000000pt" height="768.000000pt" viewBox="0 0 768.000000 768.000000"
 preserveAspectRatio="xMidYMid meet">
<metadata>
Created by potrace 1.14, written by Peter Selinger 2001-2017
</metadata>
<g transform="translate(0.000000,768.000000) scale(0.100000,-0.100000)"
fill="#000000" stroke="none">
<path d="M1217 7664 c-1 -1 -24 -5 -52 -8 -166 -22 -343 -109 -478 -236 -49
-45 -135 -152 -145 -180 -3 -8 -8 -17 -11 -20 -19 -16 -97 -210 -85 -210 3 0
0 -9 -6 -20 -8 -15 -17 -91 -22 -185 -2 -29 15 -164 23 -190 9 -29 42 -145 44
-155 1 -6 47 -158 82 -270 15 -47 28 -89 29 -95 5 -23 64 -217 68 -224 3 -4 7
-18 10 -32 2 -13 21 -78 41 -144 21 -66 38 -124 39 -130 1 -5 15 -50 30 -100
15 -49 41 -135 58 -190 16 -55 32 -109 36 -120 3 -11 7 -23 8 -27 1 -5 2 -9 4
-10 1 -2 3 -11 6 -20 7 -29 10 -40 29 -103 10 -33 17 -61 17 -62 -1 -2 4 -20
12 -40 14 -37 45 -138 67 -218 6 -22 15 -49 19 -60 5 -11 10 -29 13 -40 3 -11
24 -83 47 -160 122 -406 114 -371 113 -535 0 -94 -5 -152 -17 -190 -9 -30 -18
-64 -21 -76 -3 -12 -11 -40 -19 -63 -9 -22 -13 -41 -10 -41 2 0 -2 -13 -11
-30 -8 -16 -15 -32 -15 -35 0 -3 0 -6 -1 -7 0 -2 -2 -10 -4 -19 -1 -8 -15 -56
-31 -105 -15 -49 -27 -90 -26 -92 1 -1 -4 -18 -12 -37 -9 -20 -15 -36 -14 -38
0 -1 -6 -27 -15 -57 -9 -30 -17 -59 -18 -65 -1 -5 -10 -34 -20 -62 -10 -29
-16 -53 -14 -53 2 0 -7 -30 -21 -67 -14 -38 -25 -70 -25 -73 0 -3 -11 -43 -25
-90 -15 -47 -27 -89 -28 -95 -1 -5 -17 -57 -35 -115 -17 -58 -39 -130 -47
-160 -9 -30 -20 -66 -24 -80 -16 -45 -73 -235 -76 -248 -2 -12 -32 -111 -82
-272 -14 -47 -27 -88 -28 -92 -1 -5 -2 -9 -4 -10 -1 -2 -3 -10 -5 -18 -1 -8
-9 -35 -16 -60 -16 -55 -14 -52 -22 -70 -8 -22 -49 -159 -48 -165 0 -2 -6 -22
-14 -44 -7 -22 -11 -42 -8 -45 4 -3 0 -6 -7 -6 -7 0 -11 -2 -8 -5 3 -3 -1 -36
-8 -73 -13 -67 -14 -278 -1 -298 3 -6 9 -26 12 -45 19 -115 115 -286 222 -396
98 -101 260 -200 373 -229 8 -2 33 -8 55 -13 160 -40 367 -26 505 36 77 34
125 57 130 63 3 3 16 11 30 18 14 6 50 27 82 45 87 50 179 102 223 127 51 28
156 89 175 101 8 5 31 17 50 27 19 9 37 20 40 23 3 4 32 21 65 38 33 18 83 46
110 63 28 17 70 41 95 55 25 13 59 32 75 42 37 22 304 175 365 209 25 14 57
33 72 43 14 11 29 19 33 19 4 0 41 20 82 45 40 25 76 45 79 45 3 0 30 16 60
35 30 19 56 35 58 35 3 0 39 20 80 45 42 25 80 45 85 45 5 0 14 7 21 15 7 8
16 12 21 9 5 -3 9 -2 9 3 0 4 21 19 47 33 27 13 50 27 53 31 3 3 19 12 35 20
36 18 380 214 415 237 14 9 27 17 30 17 3 0 16 8 30 17 40 25 220 128 275 157
28 14 52 28 55 31 3 4 34 22 70 42 63 34 440 249 470 268 21 13 159 92 193
110 15 8 84 48 155 89 70 41 142 82 160 93 17 10 47 26 65 37 17 10 73 42 122
70 50 28 97 56 105 61 8 6 26 16 40 23 14 7 57 31 95 53 39 23 86 51 105 62
19 11 85 48 145 82 61 35 130 74 155 88 25 14 57 33 72 43 14 11 29 19 32 19
4 0 36 18 72 40 36 22 68 40 70 40 3 0 151 89 169 102 26 18 113 96 138 123
37 40 127 176 127 192 0 7 4 13 8 13 5 0 9 6 10 13 0 6 12 43 27 81 14 38 28
90 31 115 3 25 8 49 10 53 6 9 6 185 0 213 -2 11 -7 40 -11 64 -15 90 -85 257
-136 326 -21 28 -98 113 -124 138 -34 32 -135 103 -180 128 -37 20 -554 316
-575 329 -35 22 -200 116 -315 180 -33 18 -72 41 -87 51 -14 11 -29 19 -32 19
-4 0 -25 12 -49 27 -23 15 -60 37 -82 49 -102 55 -141 78 -156 90 -8 8 -19 14
-23 14 -4 0 -71 37 -149 82 -78 46 -145 82 -148 81 -4 -1 -15 7 -24 17 -10 11
-23 20 -29 20 -6 0 -39 18 -74 40 -34 22 -65 40 -67 40 -2 0 -42 23 -89 50
-47 28 -88 50 -92 50 -4 0 -15 6 -23 14 -9 7 -41 27 -71 43 -30 16 -78 44
-106 61 -28 18 -54 32 -57 32 -3 0 -63 34 -132 75 -70 41 -129 75 -131 75 -2
0 -33 17 -67 38 -35 21 -70 41 -77 45 -8 4 -37 21 -65 38 -27 16 -58 33 -67
36 -10 3 -18 10 -18 15 0 5 -4 7 -9 3 -5 -3 -12 -1 -15 4 -6 8 -115 74 -126
76 -3 0 -16 8 -30 17 -60 38 -783 448 -791 448 -5 0 -9 4 -9 9 0 5 -14 14 -31
21 -17 7 -46 24 -65 36 -19 13 -34 21 -34 19 0 -3 -30 14 -67 38 -38 23 -86
51 -108 62 -22 11 -42 22 -45 25 -3 3 -16 11 -29 18 -13 8 -40 23 -60 34 -20
12 -56 32 -81 46 -25 14 -62 36 -82 49 -21 12 -40 23 -43 23 -2 0 -34 18 -70
40 -36 22 -67 40 -70 40 -3 0 -34 18 -70 40 -36 22 -67 40 -70 40 -3 0 -33 17
-67 38 -35 21 -88 52 -118 69 -30 16 -75 42 -100 57 -44 26 -165 86 -205 101
-62 24 -189 47 -273 49 -45 1 -84 1 -85 0z"/>
</g>
</svg>
