<svg width="100" height="100" viewBox="0 0 100 100" fill="none" xmlns="http://www.w3.org/2000/svg">
<path fill-rule="evenodd" clip-rule="evenodd" d="M100 50C100 77.6142 77.6142 100 50 100C22.3858 100 0 77.6142 0 50C0 22.3858 22.3858 0 50 0C77.6142 0 100 22.3858 100 50ZM46.126 69C45.9734 69 45.8228 69.035 45.6858 69.1022C45.5488 69.1694 45.429 69.2671 45.3356 69.3877C45.2422 69.5084 45.1776 69.6488 45.1468 69.7983C45.116 69.9477 45.1199 70.1022 45.158 70.25C45.4346 71.324 46.0604 72.2755 46.9369 72.9549C47.8135 73.6343 48.891 74.003 50 74.003C51.109 74.003 52.1865 73.6343 53.0631 72.9549C53.9396 72.2755 54.5654 71.324 54.842 70.25C54.8802 70.1022 54.884 69.9477 54.8532 69.7983C54.8224 69.6488 54.7578 69.5084 54.6644 69.3877C54.571 69.2671 54.4512 69.1694 54.3142 69.1022C54.1772 69.035 54.0266 69 53.874 69H46.126ZM50 26C46.5388 26 43.1554 27.0264 40.2775 28.9493C37.3997 30.8722 35.1566 33.6053 33.8321 36.803C32.5076 40.0007 32.161 43.5194 32.8363 46.9141C33.5115 50.3088 35.1782 53.4269 37.6256 55.8744C40.0731 58.3218 43.1913 59.9885 46.5859 60.6637C49.9806 61.339 53.4993 60.9924 56.697 59.6679C59.8947 58.3434 62.6278 56.1003 64.5507 53.2225C66.4736 50.3446 67.5 46.9612 67.5 43.5C67.4947 38.8603 65.6493 34.4122 62.3685 31.1315C59.0878 27.8507 54.6397 26.0053 50 26ZM58.626 47.6C58.518 48.6675 58.134 49.6885 57.512 50.5626C56.8899 51.4368 56.0511 52.1341 55.078 52.586C54.6639 52.7201 54.2312 52.7876 53.796 52.786C53.0366 52.7716 52.2881 52.6028 51.596 52.29C51.4104 52.2092 51.2536 52.074 51.1465 51.9022C51.0394 51.7305 50.9869 51.5302 50.996 51.328C51.0899 47.5492 52.0695 43.8452 53.856 40.514C53.9282 40.4029 53.9776 40.2785 54.0013 40.1482C54.025 40.0178 54.0226 39.8841 53.9942 39.7547C53.9657 39.6252 53.9119 39.5028 53.8357 39.3943C53.7596 39.2859 53.6626 39.1937 53.5505 39.1231C53.4384 39.0525 53.3134 39.0048 53.1827 38.9829C53.052 38.961 52.9183 38.9653 52.7893 38.9956C52.6603 39.0258 52.5386 39.0814 52.4312 39.159C52.3239 39.2367 52.2331 39.3349 52.164 39.448C49.4134 44.5517 48.4389 50.4255 49.394 56.144C49.4275 56.2711 49.4355 56.4036 49.4178 56.5338C49.4 56.6641 49.3567 56.7895 49.2904 56.903C49.224 57.0165 49.136 57.1158 49.0313 57.1953C48.9265 57.2747 48.8072 57.3327 48.68 57.366C48.597 57.3873 48.5117 57.3981 48.426 57.398C48.205 57.3976 47.9903 57.324 47.8155 57.1887C47.6407 57.0533 47.5157 56.8639 47.46 56.65C47.0818 55.057 46.9223 53.42 46.986 51.784C46.9892 51.6515 46.966 51.5197 46.9178 51.3963C46.8696 51.2728 46.7974 51.1602 46.7052 51.0649C46.6131 50.9696 46.503 50.8936 46.3812 50.8412C46.2595 50.7889 46.1285 50.7613 45.996 50.76C45.2936 50.7969 44.5908 50.6936 43.9288 50.456C43.2667 50.2183 42.6586 49.8512 42.14 49.376C41.4711 48.552 41.0273 47.5687 40.852 46.5219C40.6768 45.4752 40.776 44.4009 41.14 43.404C41.9592 40.8417 43.5341 38.587 45.658 36.936C47.2842 35.5364 48.6758 33.8855 49.78 32.046C49.926 31.7772 50.1318 31.5454 50.3814 31.3686C50.6311 31.1918 50.918 31.0746 51.22 31.026C51.5221 30.9782 51.8311 30.9998 52.1235 31.0892C52.416 31.1786 52.6843 31.3335 52.908 31.542C56.92 35.314 59.7 43.118 58.626 47.6ZM45 63H55C55.5304 63 56.0391 63.2107 56.4142 63.5858C56.7893 63.9609 57 64.4696 57 65C57 65.5304 56.7893 66.0391 56.4142 66.4142C56.0391 66.7893 55.5304 67 55 67H45C44.4696 67 43.9609 66.7893 43.5858 66.4142C43.2107 66.0391 43 65.5304 43 65C43 64.4696 43.2107 63.9609 43.5858 63.5858C43.9609 63.2107 44.4696 63 45 63Z" fill="url(#paint0_linear_184_139)"/>
<defs>
<linearGradient id="paint0_linear_184_139" x1="50" y1="16" x2="50" y2="78.5" gradientUnits="userSpaceOnUse">
<stop stop-color="#25544C"/>
<stop offset="1" stop-color="#0A4256"/>
</linearGradient>
</defs>
</svg>
