<svg width="100" height="100" viewBox="0 0 100 100" fill="none" xmlns="http://www.w3.org/2000/svg">
<path fill-rule="evenodd" clip-rule="evenodd" d="M100 50C100 77.6142 77.6142 100 50 100C22.3858 100 0 77.6142 0 50C0 22.3858 22.3858 0 50 0C77.6142 0 100 22.3858 100 50ZM51.286 48.6821C50.6188 48.6864 49.9679 48.8882 49.4153 49.262C48.8627 49.6358 48.4331 50.1649 48.1808 50.7825C47.9285 51.4002 47.8648 52.0787 47.9976 52.7325C48.1304 53.3863 48.4538 53.9861 48.9271 54.4563C49.4004 54.9266 50.0023 55.2461 50.657 55.3747C51.3117 55.5032 51.9897 55.4351 52.6057 55.1788C53.2217 54.9225 53.7479 54.4895 54.1182 53.9345C54.4884 53.3795 54.686 52.7272 54.686 52.0601C54.6802 51.1621 54.3194 50.303 53.6824 49.6701C53.0454 49.0372 52.1839 48.682 51.286 48.6821ZM58.708 30.1252C58.8076 30.2263 58.9276 30.3049 59.0601 30.356C62.8277 31.8263 66.0573 34.4108 68.3175 37.7647C70.5778 41.1185 71.7613 45.0819 71.7101 49.126C71.7101 56.126 69.1681 61.374 64.1501 64.754C64.0143 64.8457 63.9032 64.9694 63.8265 65.1141C63.7498 65.2588 63.7098 65.4202 63.7101 65.584V73C63.7101 73.2652 63.6047 73.5196 63.4172 73.7071C63.2296 73.8946 62.9753 74 62.7101 74H42.7101C42.4448 74 42.1905 73.8946 42.0029 73.7071C41.8154 73.5196 41.7101 73.2652 41.7101 73V70C41.7101 69.7348 41.6047 69.4804 41.4172 69.2929C41.2296 69.1054 40.9753 69 40.7101 69H37.7101C36.384 69 35.1122 68.4732 34.1745 67.5355C33.2368 66.5979 32.7101 65.3261 32.7101 64V60.04C32.7101 59.7748 32.6047 59.5204 32.4172 59.3329C32.2296 59.1454 31.9753 59.04 31.7101 59.04C31.3361 59.04 30.9541 59.034 30.6081 59.02C30.2282 59.0049 29.8569 58.9031 29.5224 58.7225C29.1879 58.542 28.8991 58.2873 28.6781 57.978C28.3965 57.5365 28.264 57.0164 28.3001 56.494V56.22C28.1477 54.0094 29.7127 51.2485 31.102 48.7978L31.1461 48.72C31.1691 48.6796 31.1924 48.6386 31.216 48.597C31.5313 48.0433 31.8965 47.4017 32.1701 46.864C32.4315 46.3467 32.5782 45.7792 32.6001 45.2C32.7765 41.9791 33.8974 38.8815 35.823 36.2937C37.7486 33.7058 40.3936 31.7422 43.4281 30.648C43.563 30.5924 43.6842 30.5078 43.783 30.4004C43.8818 30.2929 43.9559 30.1651 44.0001 30.026C44.3728 28.8577 45.1072 27.8381 46.0972 27.1144C47.0873 26.3908 48.2817 26.0005 49.5081 26H53.0641C54.2439 26.0008 55.3952 26.3624 56.3636 27.0363C57.332 27.7101 58.0712 28.664 58.4821 29.77C58.5313 29.9031 58.6083 30.0242 58.708 30.1252ZM50.8381 60.432C51.1546 60.1677 51.5451 60.0078 51.9561 59.974V59.972C53.642 59.8493 55.2442 59.1893 56.5275 58.0888C57.8107 56.9884 58.7073 55.5056 59.0857 53.858C59.4641 52.2105 59.3043 50.4851 58.6297 48.935C57.9552 47.385 56.8015 46.092 55.3381 45.246C55.1874 45.1581 55.0623 45.0322 54.9753 44.881C54.8883 44.7298 54.8424 44.5585 54.8421 44.384V31.764C54.8399 31.2944 54.6515 30.8448 54.3181 30.5141C53.9847 30.1833 53.5337 29.9984 53.0641 30H49.5081C49.0412 30.0032 48.5945 30.1904 48.2649 30.5211C47.9354 30.8518 47.7496 31.2991 47.7481 31.766V44.378C47.748 44.5523 47.7023 44.7235 47.6157 44.8747C47.529 45.0259 47.4044 45.1518 47.2541 45.24C46.076 45.9179 45.0933 46.8891 44.4015 48.059C43.7097 49.229 43.3323 50.558 43.3059 51.9169C43.2796 53.2759 43.6052 54.6185 44.251 55.8144C44.8969 57.0103 45.8412 58.0189 46.9921 58.742C47.0618 58.7874 47.1191 58.8495 47.1588 58.9227C47.1984 58.9959 47.2192 59.0778 47.2192 59.161C47.2192 59.2442 47.1984 59.3261 47.1588 59.3993C47.1191 59.4725 47.0618 59.5346 46.9921 59.58C45.7549 60.4125 44.4133 61.0783 43.0021 61.56C42.8553 61.6086 42.6993 61.6225 42.5462 61.6007C42.3932 61.5788 42.2473 61.5217 42.1201 61.434C41.7053 61.1467 41.2126 60.9931 40.7081 60.994H39.7081C39.045 60.994 38.4091 61.2574 37.9403 61.7262C37.4714 62.1951 37.2081 62.831 37.2081 63.494C37.2081 64.157 37.4714 64.7929 37.9403 65.2618C38.4091 65.7306 39.045 65.994 39.7081 65.994H40.7081C41.0962 65.9942 41.479 65.9039 41.8262 65.7303C42.1734 65.5567 42.4753 65.3046 42.7081 64.994C42.8401 64.8184 43.0264 64.6912 43.2381 64.632C46.035 63.7736 48.623 62.3433 50.8381 60.432Z" fill="url(#paint0_linear_184_119)"/>
<defs>
<linearGradient id="paint0_linear_184_119" x1="50" y1="16" x2="50" y2="78.5" gradientUnits="userSpaceOnUse">
<stop stop-color="#25544C"/>
<stop offset="1" stop-color="#0A4256"/>
</linearGradient>
</defs>
</svg>
