<svg width="100" height="100" viewBox="0 0 100 100" fill="none" xmlns="http://www.w3.org/2000/svg">
<path fill-rule="evenodd" clip-rule="evenodd" d="M100 50C100 77.6142 77.6142 100 50 100C22.3858 100 0 77.6142 0 50C0 22.3858 22.3858 0 50 0C77.6142 0 100 22.3858 100 50ZM37.946 49.1061C37.6211 48.9333 37.2549 48.8529 36.8875 48.8737C36.5201 48.8945 36.1654 49.0157 35.862 49.2241L35.838 49.2401L26.9 55.8641L26.882 55.8761C26.6102 56.0593 26.3876 56.3066 26.2338 56.596C26.08 56.8855 25.9997 57.2083 26 57.5361V72.0001C26 72.5305 26.2107 73.0393 26.5858 73.4143C26.9609 73.7894 27.4696 74.0001 28 74.0001H28.5C28.6326 74.0001 28.7598 73.9474 28.8536 73.8537C28.9473 73.7599 29 73.6327 29 73.5001V60.0001C29 59.7349 29.1054 59.4805 29.2929 59.293C29.4804 59.1055 29.7348 59.0001 30 59.0001C30.2652 59.0001 30.5196 59.1055 30.7071 59.293C30.8946 59.4805 31 59.7349 31 60.0001V73.5001C31 73.6327 31.0527 73.7599 31.1464 73.8537C31.2402 73.9474 31.3674 74.0001 31.5 74.0001H33.5C33.6326 74.0001 33.7598 73.9474 33.8536 73.8537C33.9473 73.7599 34 73.6327 34 73.5001V60.0001C34 59.7349 34.1054 59.4805 34.2929 59.293C34.4804 59.1055 34.7348 59.0001 35 59.0001C35.2652 59.0001 35.5196 59.1055 35.7071 59.293C35.8946 59.4805 36 59.7349 36 60.0001V73.5001C36 73.6327 36.0527 73.7599 36.1464 73.8537C36.2402 73.9474 36.3674 74.0001 36.5 74.0001H37C37.5304 74.0001 38.0391 73.7894 38.4142 73.4143C38.7893 73.0393 39 72.5305 39 72.0001V50.8681C39 50.5066 38.902 50.1518 38.7164 49.8415C38.5308 49.5313 38.2645 49.2771 37.946 49.1061ZM62 55.5C62 55.2239 62.2239 55 62.5 55H73.5C73.7761 55 74 55.2239 74 55.5V60.5C74 60.7761 73.7761 61 73.5 61H62.5C62.2239 61 62 60.7761 62 60.5V55.5ZM74 63.5C74 63.2239 73.7761 63 73.5 63H62.5C62.2239 63 62 63.2239 62 63.5V67.5C62 67.7761 62.2239 68 62.5 68H73.5C73.7761 68 74 67.7761 74 67.5V63.5ZM73.4419 52.9283C73.3634 52.9755 73.2736 53.0003 73.182 53H62.818C62.7265 53.0003 62.6366 52.9755 62.5582 52.9283C62.4797 52.8811 62.4158 52.8132 62.3733 52.7321C62.3308 52.6511 62.3114 52.5599 62.3171 52.4685C62.3229 52.3771 62.3536 52.2891 62.406 52.214C62.4599 52.1378 62.5201 52.0662 62.586 52L66.586 48C66.9611 47.6251 67.4697 47.4144 68 47.4144C68.5303 47.4144 69.0389 47.6251 69.414 48L73.414 52C73.4799 52.0662 73.5401 52.1378 73.594 52.214C73.6464 52.2891 73.6771 52.3771 73.6829 52.4685C73.6887 52.5599 73.6692 52.6511 73.6267 52.7321C73.5842 52.8132 73.5203 52.8811 73.4419 52.9283ZM62.1464 70.1464C62.2402 70.0527 62.3674 70 62.5 70H73.5C73.6326 70 73.7598 70.0527 73.8536 70.1464C73.9473 70.2402 74 70.3674 74 70.5V72C74 72.5304 73.7893 73.0391 73.4142 73.4142C73.0391 73.7893 72.5304 74 72 74H64C63.4696 74 62.9609 73.7893 62.5858 73.4142C62.2107 73.0391 62 72.5304 62 72V70.5C62 70.3674 62.0527 70.2402 62.1464 70.1464ZM52.5835 31.8471C52.6336 31.9685 52.7072 32.079 52.8 32.172L58.828 38.2C59.2004 38.5723 59.4957 39.0145 59.6968 39.5011C59.8979 39.9878 60.0009 40.5094 60 41.036V72C60 72.5304 59.7893 73.0391 59.4142 73.4142C59.0391 73.7893 58.5304 74 58 74H43C42.4696 74 41.9609 73.7893 41.5858 73.4142C41.2107 73.0391 41 72.5304 41 72V41.036C40.9991 40.5094 41.1021 39.9878 41.3032 39.5011C41.5044 39.0145 41.7996 38.5723 42.172 38.2L48.216 32.172C48.3088 32.079 48.3824 31.9685 48.4325 31.8471C48.4826 31.7256 48.5082 31.5954 48.508 31.464V28C48.508 27.4696 48.7187 26.9609 49.0938 26.5858C49.4689 26.2107 49.9776 26 50.508 26C51.0384 26 51.5471 26.2107 51.9222 26.5858C52.2973 26.9609 52.508 27.4696 52.508 28V31.464C52.5078 31.5954 52.5334 31.7256 52.5835 31.8471ZM45.0687 46.1049C45.0237 46.1817 45 46.269 45 46.358V55.42C44.9992 55.5116 45.0235 55.6016 45.0704 55.6803C45.1172 55.7589 45.1847 55.8233 45.2656 55.8662C45.3465 55.9091 45.4376 55.929 45.529 55.9237C45.6204 55.9183 45.7086 55.888 45.784 55.836L52.714 51.036C52.7826 50.989 52.8384 50.9256 52.8762 50.8515C52.914 50.7775 52.9326 50.6951 52.9304 50.612C52.9283 50.5289 52.9053 50.4476 52.8636 50.3757C52.822 50.3037 52.763 50.2433 52.692 50.2L45.762 45.932C45.6862 45.8854 45.5994 45.8598 45.5104 45.858C45.4215 45.8561 45.3337 45.878 45.256 45.9214C45.1784 45.9648 45.1137 46.0282 45.0687 46.1049ZM45.5 70H55.938C55.9468 70.0009 55.9557 69.9998 55.9641 69.997C55.9724 69.9941 55.9801 69.9895 55.9865 69.9834C55.993 69.9774 55.998 69.97 56.0014 69.9618C56.0048 69.9536 56.0063 69.9448 56.006 69.936C56.0064 69.9256 56.004 69.9153 55.9991 69.9062C55.9942 69.897 55.9869 69.8894 55.978 69.884L45.778 63.084C45.7027 63.0336 45.6151 63.0047 45.5246 63.0002C45.4341 62.9957 45.3441 63.0159 45.2642 63.0587C45.1843 63.1014 45.1176 63.165 45.071 63.2427C45.0245 63.3205 44.9999 63.4094 45 63.5V69.5C45 69.6326 45.0527 69.7598 45.1465 69.8536C45.2402 69.9473 45.3674 70 45.5 70ZM55.929 64.4193C55.9755 64.3415 56.0001 64.2526 56 64.162V54.58C55.9994 54.4897 55.9743 54.4013 55.9275 54.3242C55.8806 54.247 55.8138 54.184 55.734 54.1417C55.6542 54.0995 55.5645 54.0796 55.4744 54.0842C55.3842 54.0889 55.297 54.1178 55.222 54.168L48.17 59.05C48.1024 59.0956 48.0469 59.1571 48.0086 59.2291C47.9703 59.3011 47.9503 59.3814 47.9503 59.463C47.9503 59.5446 47.9703 59.6249 48.0086 59.6969C48.0469 59.7689 48.1024 59.8304 48.17 59.876L55.222 64.578C55.2973 64.6284 55.3849 64.6573 55.4754 64.6618C55.5659 64.6663 55.6559 64.6461 55.7358 64.6033C55.8157 64.5606 55.8825 64.497 55.929 64.4193ZM55.9314 46.8949C55.9765 46.8182 56.0001 46.7309 56 46.642V43C56 42.8674 55.9473 42.7402 55.8536 42.6464C55.7598 42.5527 55.6326 42.5 55.5 42.5H49.582C49.4731 42.5 49.3671 42.5355 49.2803 42.6011C49.1934 42.6668 49.1303 42.7591 49.1007 42.8639C49.071 42.9687 49.0764 43.0803 49.116 43.1818C49.1556 43.2832 49.2272 43.369 49.32 43.426L55.238 47.078C55.3149 47.1226 55.4021 47.1461 55.491 47.1461C55.5799 47.1461 55.6671 47.1226 55.744 47.078C55.8217 47.0348 55.8864 46.9716 55.9314 46.8949Z" fill="url(#paint0_linear_184_128)"/>
<defs>
<linearGradient id="paint0_linear_184_128" x1="50" y1="0" x2="50" y2="100" gradientUnits="userSpaceOnUse">
<stop stop-color="#25544C"/>
<stop offset="1" stop-color="#0A4256"/>
</linearGradient>
</defs>
</svg>
