<svg width="102" height="102" viewBox="0 0 102 102" fill="none" xmlns="http://www.w3.org/2000/svg">
<path d="M73.9163 46.838C68.5598 46.838 63.3235 48.4264 58.8696 51.4023C54.4158 54.3783 50.9445 58.6081 48.8946 63.557C46.8447 68.5058 46.3084 73.9514 47.3534 79.205C48.3984 84.4587 50.9779 89.2844 54.7655 93.0721C58.5532 96.8598 63.379 99.4392 68.6326 100.484C73.8863 101.529 79.3318 100.993 84.2807 98.943C89.2295 96.8932 93.4594 93.4218 96.4353 88.968C99.4113 84.5142 101 79.2779 101 73.9213C100.991 66.7411 98.1346 59.8574 93.0574 54.7802C87.9802 49.703 81.0966 46.8468 73.9163 46.838V46.838ZM86.4163 65.9046L74.333 82.0463C73.7949 82.7628 73.109 83.3553 72.3219 83.7834C71.5348 84.2116 70.6647 84.4655 69.7709 84.528C68.877 84.5904 67.9801 84.4599 67.1411 84.1453C66.3021 83.8307 65.5405 83.3394 64.908 82.7046L58.658 76.4546C58.351 76.1686 58.1047 75.8236 57.9339 75.4402C57.7631 75.0569 57.6713 74.6431 57.6639 74.2235C57.6565 73.8039 57.7337 73.3871 57.8908 72.998C58.048 72.6089 58.2819 72.2554 58.5787 71.9587C58.8754 71.6619 59.2289 71.428 59.618 71.2708C60.0071 71.1136 60.4239 71.0364 60.8435 71.0438C61.2631 71.0513 61.6769 71.1431 62.0602 71.3139C62.4436 71.4847 62.7886 71.731 63.0747 72.038L68.4913 77.4546C68.5962 77.5608 68.7229 77.6431 68.8626 77.6957C69.0023 77.7482 69.1517 77.7699 69.3006 77.7592C69.4495 77.7485 69.5943 77.7057 69.725 77.6337C69.8558 77.5617 69.9694 77.4622 70.058 77.3421L81.4413 62.163C81.6876 61.8347 81.996 61.5581 82.3492 61.349C82.7023 61.1399 83.0931 61.0024 83.4994 60.9444C83.9057 60.8864 84.3194 60.9089 84.7169 61.0107C85.1144 61.1126 85.488 61.2918 85.8163 61.538C86.1446 61.7842 86.4212 62.0927 86.6303 62.4458C86.8394 62.7989 86.9769 63.1898 87.0349 63.596C87.093 64.0023 87.0704 64.416 86.9686 64.8135C86.8667 65.2111 86.6876 65.5847 86.4413 65.913L86.4163 65.9046ZM21.833 43.7088H48.9163C49.7451 43.7088 50.54 43.3796 51.126 42.7935C51.7121 42.2075 52.0413 41.4126 52.0413 40.5838C52.0413 39.755 51.7121 38.9602 51.126 38.3741C50.54 37.7881 49.7451 37.4588 48.9163 37.4588H21.833C21.0042 37.4588 20.2093 37.7881 19.6233 38.3741C19.0372 38.9602 18.708 39.755 18.708 40.5838C18.708 41.4126 19.0372 42.2075 19.6233 42.7935C20.2093 43.3796 21.0042 43.7088 21.833 43.7088V43.7088ZM21.833 58.2921H34.333C35.1618 58.2921 35.9567 57.9629 36.5427 57.3769C37.1288 56.7908 37.458 55.9959 37.458 55.1671C37.458 54.3383 37.1288 53.5435 36.5427 52.9574C35.9567 52.3714 35.1618 52.0421 34.333 52.0421H21.833C21.0042 52.0421 20.2093 52.3714 19.6233 52.9574C19.0372 53.5435 18.708 54.3383 18.708 55.1671C18.708 55.9959 19.0372 56.7908 19.6233 57.3769C20.2093 57.9629 21.0042 58.2921 21.833 58.2921ZM21.833 72.8796H33.2913C34.1201 72.8796 34.915 72.5504 35.501 71.9644C36.0871 71.3783 36.4163 70.5834 36.4163 69.7546C36.4163 68.9258 36.0871 68.131 35.501 67.5449C34.915 66.9589 34.1201 66.6296 33.2913 66.6296H21.833C21.0042 66.6296 20.2093 66.9589 19.6233 67.5449C19.0372 68.131 18.708 68.9258 18.708 69.7546C18.708 70.5834 19.0372 71.3783 19.6233 71.9644C20.2093 72.5504 21.0042 72.8796 21.833 72.8796ZM22.8747 27.0421H58.2913C58.5669 27.0422 58.8312 26.933 59.0264 26.7385C59.2217 26.5441 59.3319 26.2802 59.333 26.0046V13.5046C59.3319 13.2287 59.2218 12.9644 59.0267 12.7693C58.8316 12.5742 58.5673 12.4641 58.2913 12.463H50.9997V11.4213C50.9946 9.81303 50.6186 8.2276 49.9008 6.78837C49.183 5.34915 48.1428 4.09494 46.8612 3.12334C45.5795 2.15173 44.091 1.48893 42.5114 1.1865C40.9318 0.884067 39.3037 0.950165 37.7538 1.37965C35.5279 2.04967 33.5819 3.42879 32.2121 5.30699C30.8424 7.1852 30.124 9.45959 30.1663 11.7838V12.4588H22.8747C22.598 12.4599 22.3331 12.5706 22.1378 12.7666C21.9426 12.9626 21.833 13.228 21.833 13.5046V26.0046C21.8341 26.2802 21.9443 26.5441 22.1396 26.7385C22.3348 26.933 22.5991 27.0422 22.8747 27.0421ZM40.583 7.25465C41.2011 7.25465 41.8053 7.43793 42.3192 7.78131C42.8331 8.12469 43.2336 8.61274 43.4701 9.18376C43.7067 9.75478 43.7685 10.3831 43.648 10.9893C43.5274 11.5955 43.2298 12.1523 42.7927 12.5894C42.3557 13.0264 41.7989 13.324 41.1927 13.4446C40.5865 13.5652 39.9581 13.5033 39.3871 13.2668C38.8161 13.0302 38.328 12.6297 37.9847 12.1158C37.6413 11.6019 37.458 10.9977 37.458 10.3796C37.458 9.55085 37.7872 8.75599 38.3733 8.16994C38.9594 7.58389 39.7542 7.25465 40.583 7.25465Z" fill="url(#paint0_linear_262_56)"/>
<path d="M46.6667 93.1088C46.5721 92.975 46.4474 92.8654 46.3026 92.7887C46.1579 92.7119 45.9971 92.6703 45.8333 92.6671H11.4167C10.8641 92.6671 10.3342 92.4476 9.94353 92.0569C9.55283 91.6662 9.33333 91.1363 9.33333 90.5838V22.8754C9.33333 22.3229 9.55283 21.793 9.94353 21.4023C10.3342 21.0116 10.8641 20.7921 11.4167 20.7921H14.5417C14.8172 20.7921 15.0815 20.6829 15.2768 20.4885C15.472 20.294 15.5822 20.0301 15.5833 19.7546V13.5046C15.5822 13.2287 15.4721 12.9643 15.277 12.7692C15.0819 12.5741 14.8176 12.464 14.5417 12.4629H9.33333C7.1232 12.4629 5.00358 13.3409 3.44078 14.9037C1.87797 16.4665 1 18.5861 1 20.7963L1 92.6713C1 94.8814 1.87797 97.001 3.44078 98.5638C5.00358 100.127 7.1232 101.005 9.33333 101.005H51.5208C51.7336 101.004 51.9411 100.939 52.1155 100.817C52.2899 100.695 52.4228 100.522 52.4963 100.323C52.5699 100.123 52.5805 99.9058 52.5267 99.6999C52.473 99.494 52.3575 99.3095 52.1958 99.1713C50.1101 97.3858 48.253 95.3496 46.6667 93.1088ZM78.9625 41.0046C79.1129 41.0276 79.2664 41.0176 79.4125 40.9752C79.5586 40.9328 79.6936 40.859 79.8083 40.7591C79.9229 40.6591 80.0144 40.5353 80.0763 40.3964C80.1382 40.2575 80.169 40.1067 80.1667 39.9546V20.7879C80.1667 18.5778 79.2887 16.4582 77.7259 14.8954C76.1631 13.3326 74.0435 12.4546 71.8333 12.4546H66.625C66.4877 12.4551 66.3518 12.4827 66.2251 12.5358C66.0984 12.5889 65.9834 12.6663 65.8867 12.7639C65.79 12.8614 65.7134 12.977 65.6613 13.104C65.6093 13.2311 65.5828 13.3672 65.5833 13.5046V19.7546C65.5833 20.0309 65.6931 20.2958 65.8884 20.4912C66.0838 20.6865 66.3487 20.7963 66.625 20.7963H69.75C70.3025 20.7963 70.8324 21.0158 71.2231 21.4065C71.6138 21.7972 71.8333 22.3271 71.8333 22.8796V39.5754C71.8331 39.7173 71.8619 39.8577 71.9178 39.988C71.9738 40.1183 72.0558 40.2359 72.1588 40.3334C72.2617 40.4309 72.3836 40.5064 72.5168 40.5552C72.65 40.604 72.7917 40.625 72.9333 40.6171C73.2625 40.6171 73.5875 40.5838 73.9167 40.5838C75.607 40.5926 77.2941 40.7333 78.9625 41.0046V41.0046Z" fill="url(#paint1_linear_262_56)"/>
<defs>
<linearGradient id="paint0_linear_262_56" x1="59.8538" y1="1" x2="59.8538" y2="101.005" gradientUnits="userSpaceOnUse">
<stop stop-color="#25544D"/>
<stop offset="1" stop-color="#0F6886"/>
</linearGradient>
<linearGradient id="paint1_linear_262_56" x1="40.5834" y1="12.4546" x2="40.5834" y2="101.005" gradientUnits="userSpaceOnUse">
<stop stop-color="#25544D"/>
<stop offset="1" stop-color="#0F6886"/>
</linearGradient>
</defs>
</svg>
