<svg width="102" height="102" viewBox="0 0 102 102" fill="none" xmlns="http://www.w3.org/2000/svg">
<path d="M51.0013 33.2875H26.0006C25.1718 33.2875 24.3769 33.6167 23.7908 34.2028C23.2047 34.7889 22.8755 35.5837 22.8755 36.4126C22.8755 37.2414 23.2047 38.0363 23.7908 38.6223C24.3769 39.2084 25.1718 39.5376 26.0006 39.5376H51.0013C51.8301 39.5376 52.625 39.2084 53.211 38.6223C53.7971 38.0363 54.1264 37.2414 54.1264 36.4126C54.1264 35.5837 53.7971 34.7889 53.211 34.2028C52.625 33.6167 51.8301 33.2875 51.0013 33.2875V33.2875ZM54.1305 51.0005C54.1305 50.1716 53.8013 49.3768 53.2152 48.7907C52.6291 48.2046 51.8343 47.8754 51.0054 47.8754H26.0006C25.1718 47.8754 24.3769 48.2046 23.7908 48.7907C23.2047 49.3768 22.8755 50.1716 22.8755 51.0005C22.8755 51.8293 23.2047 52.6242 23.7908 53.2102C24.3769 53.7963 25.1718 54.1256 26.0006 54.1256H51.0013C51.412 54.1261 51.8188 54.0457 52.1985 53.8889C52.5781 53.7321 52.9231 53.502 53.2137 53.2117C53.5044 52.9215 53.7349 52.5768 53.8922 52.1973C54.0496 51.8179 54.1305 51.4112 54.1305 51.0005ZM26.0006 62.455C25.1718 62.455 24.3769 62.7842 23.7908 63.3703C23.2047 63.9563 22.8755 64.7512 22.8755 65.58C22.8755 66.4089 23.2047 67.2037 23.7908 67.7898C24.3769 68.3759 25.1718 68.7051 26.0006 68.7051H42.6677C43.4965 68.7051 44.2914 68.3759 44.8775 67.7898C45.4635 67.2037 45.7928 66.4089 45.7928 65.58C45.7928 64.7512 45.4635 63.9563 44.8775 63.3703C44.2914 62.7842 43.4965 62.455 42.6677 62.455H26.0006Z" fill="url(#paint0_linear_262_62)"/>
<path d="M45.1262 80.1675H15.5837C15.0312 80.1675 14.5013 79.948 14.1106 79.5573C13.7198 79.1666 13.5003 78.6367 13.5003 78.0841V23.916C13.5003 23.3634 13.7198 22.8335 14.1106 22.4428C14.5013 22.0521 15.0312 21.8326 15.5837 21.8326H61.4183C61.9709 21.8326 62.5008 22.0521 62.8915 22.4428C63.2822 22.8335 63.5017 23.3634 63.5017 23.916V45.6541C63.4999 45.8561 63.5572 46.0543 63.6664 46.2242C63.7756 46.3942 63.9321 46.5286 64.1166 46.6109C64.3011 46.6932 64.5056 46.7198 64.7051 46.6875C64.9045 46.6552 65.0902 46.5654 65.2393 46.4291C66.4518 45.1425 67.9326 44.1385 69.5766 43.4882C71.2206 42.838 72.9875 42.5574 74.7521 42.6665C74.9015 42.6956 75.0556 42.6918 75.2035 42.6554C75.3513 42.619 75.4895 42.5508 75.6085 42.4557C75.7274 42.3606 75.8242 42.2407 75.8921 42.1044C75.9601 41.9681 75.9976 41.8187 76.0021 41.6665V15.5824C76.0021 13.9248 75.3436 12.335 74.1714 11.1629C72.9993 9.99072 71.4096 9.33223 69.7519 9.33223H53.0848C52.9093 9.33161 52.7372 9.28466 52.5857 9.19612C52.4343 9.10759 52.3089 8.98061 52.2223 8.82804C50.8112 6.44324 48.8032 4.46718 46.3961 3.09453C43.989 1.72188 41.2658 1 38.4948 1C35.7238 1 33.0006 1.72188 30.5935 3.09453C28.1864 4.46718 26.1784 6.44324 24.7673 8.82804C24.6818 8.97879 24.5584 9.1046 24.4093 9.19302C24.2602 9.28145 24.0906 9.32943 23.9173 9.33223H7.25017C5.59252 9.33223 4.00277 9.99072 2.83063 11.1629C1.6585 12.335 1 13.9248 1 15.5824L1 86.4177C1 88.0754 1.6585 89.6651 2.83063 90.8372C4.00277 92.0094 5.59252 92.6679 7.25017 92.6679H40.1261C40.3304 92.6731 40.5313 92.6155 40.7019 92.503C40.8725 92.3905 41.0046 92.2285 41.0803 92.0387C41.9136 90.0386 44.7054 84.3718 46.0804 81.6551C46.1586 81.4955 46.1942 81.3186 46.184 81.1412C46.1738 80.9639 46.1181 80.7921 46.0222 80.6426C45.9263 80.4931 45.7934 80.3708 45.6365 80.2876C45.4795 80.2044 45.3038 80.163 45.1262 80.1675Z" fill="url(#paint1_linear_262_62)"/>
<path d="M100.319 92.2723L79.2554 52.1253C78.7419 51.1557 77.9738 50.3443 77.0337 49.7784C76.0937 49.2125 75.0171 48.9135 73.9199 48.9135C72.8226 48.9135 71.7461 49.2125 70.806 49.7784C69.8659 50.3443 69.0979 51.1557 68.5843 52.1253L47.5212 92.2514C47.0431 93.1633 46.8098 94.1837 46.8441 95.2128C46.8785 96.2419 47.1792 97.2444 47.7171 98.1224C48.2584 98.9991 49.0142 99.7235 49.9131 100.227C50.8119 100.731 51.8243 100.998 52.8547 101.002H94.985C96.013 101 97.0237 100.737 97.9223 100.238C98.8209 99.7385 99.578 99.0192 100.123 98.1474C100.661 97.2689 100.962 96.2656 100.997 95.2357C101.031 94.2058 100.797 93.1847 100.319 92.2723V92.2723ZM70.7969 67.6674C70.7969 66.8386 71.1261 66.0437 71.7122 65.4576C72.2983 64.8716 73.0931 64.5423 73.922 64.5423C74.7508 64.5423 75.5457 64.8716 76.1317 65.4576C76.7178 66.0437 77.047 66.8386 77.047 67.6674V79.1261C77.047 79.9549 76.7178 80.7498 76.1317 81.3358C75.5457 81.9219 74.7508 82.2512 73.922 82.2512C73.0931 82.2512 72.2983 81.9219 71.7122 81.3358C71.1261 80.7498 70.7969 79.9549 70.7969 79.1261V67.6674ZM73.922 93.7098C73.0978 93.7098 72.2922 93.4654 71.607 93.0076C70.9218 92.5497 70.3877 91.899 70.0723 91.1376C69.757 90.3762 69.6745 89.5384 69.8352 88.7301C69.996 87.9218 70.3929 87.1794 70.9756 86.5967C71.5583 86.0139 72.3008 85.6171 73.1091 85.4563C73.9173 85.2955 74.7551 85.378 75.5165 85.6934C76.2779 86.0088 76.9287 86.5429 77.3865 87.2281C77.8444 87.9133 78.0887 88.7189 78.0887 89.543C78.0882 90.0902 77.9799 90.6319 77.77 91.1373C77.5601 91.6426 77.2527 92.1016 76.8654 92.4882C76.4781 92.8747 76.0184 93.1812 75.5127 93.3901C75.0069 93.5989 74.465 93.7062 73.9178 93.7056L73.922 93.7098Z" fill="url(#paint2_linear_262_62)"/>
<defs>
<linearGradient id="paint0_linear_262_62" x1="38.503" y1="33.2875" x2="38.503" y2="68.7051" gradientUnits="userSpaceOnUse">
<stop stop-color="#25544D"/>
<stop offset="1" stop-color="#0F6886"/>
</linearGradient>
<linearGradient id="paint1_linear_262_62" x1="38.501" y1="1" x2="38.501" y2="92.6682" gradientUnits="userSpaceOnUse">
<stop stop-color="#25544D"/>
<stop offset="1" stop-color="#0F6886"/>
</linearGradient>
<linearGradient id="paint2_linear_262_62" x1="73.9205" y1="48.9135" x2="73.9205" y2="101.002" gradientUnits="userSpaceOnUse">
<stop stop-color="#25544D"/>
<stop offset="1" stop-color="#0F6886"/>
</linearGradient>
</defs>
</svg>
