<svg width="84" height="84" viewBox="0 0 84 84" fill="none" xmlns="http://www.w3.org/2000/svg">
<path d="M66.5 7H17.5C12.8604 7.00556 8.41245 8.85109 5.13177 12.1318C1.85109 15.4125 0.0055575 19.8604 0 24.5L0 59.5C0.0055575 64.1396 1.85109 68.5876 5.13177 71.8682C8.41245 75.1489 12.8604 76.9945 17.5 77H66.5C71.1396 76.9945 75.5875 75.1489 78.8682 71.8682C82.1489 68.5876 83.9944 64.1396 84 59.5V24.5C83.9944 19.8604 82.1489 15.4125 78.8682 12.1318C75.5875 8.85109 71.1396 7.00556 66.5 7ZM77 59.5C77 62.2848 75.8938 64.9555 73.9246 66.9246C71.9555 68.8938 69.2848 70 66.5 70H17.5C14.7152 70 12.0445 68.8938 10.0754 66.9246C8.10625 64.9555 7 62.2848 7 59.5V24.5C7 21.7152 8.10625 19.0445 10.0754 17.0754C12.0445 15.1062 14.7152 14 17.5 14H66.5C69.2848 14 71.9555 15.1062 73.9246 17.0754C75.8938 19.0445 77 21.7152 77 24.5V59.5Z" fill="white"/>
<path d="M55.7725 37.3033L35.5985 27.2162C34.798 26.8158 33.9083 26.6267 33.0142 26.6669C32.12 26.7071 31.2509 26.9753 30.4895 27.4459C29.7282 27.9166 29.0998 28.5741 28.664 29.356C28.2283 30.1378 27.9997 31.0181 28 31.9132V52.0874C27.9997 52.9825 28.2283 53.8628 28.664 54.6447C29.0998 55.4265 29.7282 56.084 30.4895 56.5547C31.2509 57.0253 32.12 57.2935 33.0142 57.3337C33.9083 57.3739 34.798 57.1848 35.5985 56.7844L55.7725 46.6973C56.6452 46.2616 57.3793 45.5913 57.8923 44.7616C58.4054 43.932 58.6771 42.9758 58.6771 42.0003C58.6771 41.0248 58.4054 40.0687 57.8923 39.239C57.3793 38.4094 56.6452 37.7391 55.7725 37.3033Z" fill="white"/>
</svg>
