<svg width="24" height="24" viewBox="0 0 24 24" fill="none" xmlns="http://www.w3.org/2000/svg">
<path d="M11.25 7.24194C11.25 6.97673 11.1446 6.72237 10.9571 6.53484C10.7696 6.3473 10.5152 6.24194 10.25 6.24194H6.75C5.95435 6.24194 5.19129 6.55801 4.62868 7.12062C4.06607 7.68323 3.75 8.44629 3.75 9.24194V17.2419C3.75 18.0376 4.06607 18.8007 4.62868 19.3633C5.19129 19.9259 5.95435 20.2419 6.75 20.2419H14.75C15.5456 20.2419 16.3087 19.9259 16.8713 19.3633C17.4339 18.8007 17.75 18.0376 17.75 17.2419V14.7419C17.75 14.4767 17.6446 14.2224 17.4571 14.0348C17.2696 13.8473 17.0152 13.7419 16.75 13.7419C16.4848 13.7419 16.2304 13.8473 16.0429 14.0348C15.8554 14.2224 15.75 14.4767 15.75 14.7419V17.2419C15.75 17.5072 15.6446 17.7615 15.4571 17.949C15.2696 18.1366 15.0152 18.2419 14.75 18.2419H6.75C6.48478 18.2419 6.23043 18.1366 6.04289 17.949C5.85536 17.7615 5.75 17.5072 5.75 17.2419V9.24194C5.75 8.97673 5.85536 8.72237 6.04289 8.53484C6.23043 8.3473 6.48478 8.24194 6.75 8.24194H10.25C10.3813 8.24194 10.5114 8.21608 10.6327 8.16582C10.754 8.11557 10.8642 8.04191 10.9571 7.94905C11.05 7.85619 11.1236 7.74595 11.1739 7.62463C11.2241 7.5033 11.25 7.37327 11.25 7.24194Z" fill="black"/>
<path d="M9.75005 15.7421C10.1475 15.7422 10.5287 15.5847 10.81 15.3041L17.278 8.84606C17.3012 8.82281 17.3287 8.80436 17.359 8.79177C17.3893 8.77918 17.4217 8.7727 17.4545 8.7727C17.4873 8.7727 17.5198 8.77918 17.5501 8.79177C17.5804 8.80436 17.6079 8.82281 17.631 8.84606L19.4 10.6111C19.4465 10.6576 19.5017 10.6946 19.5624 10.7198C19.6231 10.7451 19.6883 10.758 19.754 10.7581C19.8196 10.7577 19.8844 10.7448 19.945 10.7201C20.0365 10.6823 20.1147 10.6182 20.1697 10.5359C20.2247 10.4537 20.254 10.357 20.254 10.2581V4.25806C20.254 4.12545 20.2014 3.99827 20.1076 3.9045C20.0138 3.81074 19.8867 3.75806 19.754 3.75806H13.754C13.6552 3.75808 13.5586 3.78738 13.4765 3.84226C13.3943 3.89714 13.3302 3.97514 13.2923 4.0664C13.2545 4.15767 13.2445 4.25811 13.2637 4.35505C13.2828 4.45199 13.3303 4.54107 13.4 4.61106L15.161 6.37106C15.2074 6.41833 15.2336 6.48181 15.234 6.54806C15.234 6.58098 15.2274 6.61356 15.2147 6.64394C15.202 6.67431 15.1834 6.70188 15.16 6.72506L8.69005 13.1811C8.48019 13.3908 8.33724 13.658 8.27928 13.949C8.22131 14.24 8.25093 14.5416 8.36439 14.8157C8.47786 15.0898 8.67007 15.3242 8.91671 15.4891C9.16336 15.654 9.45336 15.742 9.75005 15.7421Z" fill="black"/>
</svg>
