<svg width="102" height="102" viewBox="0 0 102 102" fill="none" xmlns="http://www.w3.org/2000/svg">
<path d="M51.1297 17.3322C43.1504 17.4423 35.5293 20.6628 29.8889 26.3079C24.2486 31.9531 21.0345 39.5769 20.9311 47.5563C20.8633 53.5511 22.6126 59.4259 25.9487 64.4072C29.2847 69.3885 34.0511 73.2427 39.6202 75.4624C39.9721 75.5963 40.3453 75.6655 40.7218 75.6666C40.7499 75.6667 40.7777 75.6603 40.8028 75.6477C40.8279 75.6351 40.8497 75.6168 40.8664 75.5942C40.8851 75.5731 40.8983 75.5477 40.905 75.5203C40.9116 75.4929 40.9115 75.4642 40.9047 75.4369L35.5753 50.2699C35.4572 49.7132 35.4935 49.1347 35.6804 48.5971C35.8672 48.0595 36.1974 47.5833 36.6354 47.2198C37.0733 46.8563 37.6023 46.6194 38.1651 46.5348C38.7279 46.4502 39.3032 46.521 39.8286 46.7397L45.9237 49.2917C49.2584 50.6729 53.0053 50.6729 56.3401 49.2917L62.4308 46.7397C62.9563 46.521 63.5315 46.4502 64.0943 46.5348C64.6571 46.6194 65.1861 46.8563 65.6241 47.2198C66.062 47.5833 66.3922 48.0595 66.5791 48.5971C66.7659 49.1347 66.8023 49.7132 66.6841 50.2699L61.3632 75.4369C61.3564 75.4642 61.3563 75.4929 61.363 75.5203C61.3697 75.5477 61.3829 75.5731 61.4015 75.5942C61.4189 75.6161 61.4408 75.6339 61.4658 75.6464C61.4908 75.6589 61.5182 75.6658 61.5461 75.6666C61.9226 75.6655 62.2959 75.5963 62.6477 75.4624C68.2153 73.2414 72.9799 69.3866 76.3143 64.4054C79.6488 59.4242 81.3968 53.5501 81.3284 47.5563C81.2249 39.5769 78.0109 31.9531 72.3705 26.3079C66.7302 20.6628 59.109 17.4423 51.1297 17.3322V17.3322Z" fill="url(#paint0_linear_262_61)"/>
<path d="M59.2123 55.4336C59.2212 55.3737 59.2146 55.3125 59.193 55.2559C59.1714 55.1992 59.1356 55.1491 59.089 55.1104C59.0413 55.0704 58.9834 55.0445 58.9218 55.0355C58.8602 55.0264 58.7974 55.0347 58.7402 55.0593C53.8677 57.0755 48.3943 57.0755 43.5218 55.0593C43.4646 55.0347 43.4018 55.0264 43.3402 55.0355C43.2786 55.0445 43.2207 55.0704 43.173 55.1104C43.1251 55.1508 43.0889 55.2032 43.068 55.2622C43.047 55.3213 43.0422 55.3849 43.0539 55.4464L47.1584 74.8331C47.2065 75.0729 47.3362 75.2887 47.5254 75.4437C47.7146 75.5988 47.9516 75.6836 48.1962 75.6837H54.0658C54.3104 75.6836 54.5474 75.5988 54.7366 75.4437C54.9258 75.2887 55.0555 75.0729 55.1036 74.8331L59.2123 55.4336ZM46.9627 4.16826V12.1262C46.9627 13.2317 47.4019 14.2919 48.1836 15.0736C48.9653 15.8553 50.0255 16.2945 51.131 16.2945C52.2365 16.2945 53.2967 15.8553 54.0784 15.0736C54.8601 14.2919 55.2993 13.2317 55.2993 12.1262V4.16826C55.2993 3.06277 54.8601 2.00256 54.0784 1.22086C53.2967 0.439155 52.2365 0 51.131 0C50.0255 0 48.9653 0.439155 48.1836 1.22086C47.4019 2.00256 46.9627 3.06277 46.9627 4.16826V4.16826ZM14.8459 41.2913H5.3014C4.74309 41.2735 4.18689 41.368 3.66585 41.5694C3.14481 41.7707 2.66955 42.0747 2.26831 42.4633C1.86707 42.852 1.54803 43.3173 1.33015 43.8316C1.11227 44.346 1 44.8989 1 45.4574C1 46.016 1.11227 46.5689 1.33015 47.0833C1.54803 47.5976 1.86707 48.0629 2.26831 48.4516C2.66955 48.8402 3.14481 49.1442 3.66585 49.3455C4.18689 49.5469 4.74309 49.6414 5.3014 49.6236H14.8459C15.9278 49.589 16.9538 49.1349 17.7068 48.3574C18.4599 47.5799 18.881 46.5399 18.881 45.4574C18.881 44.375 18.4599 43.335 17.7068 42.5575C16.9538 41.78 15.9278 41.3259 14.8459 41.2913ZM13.1488 11.6414C12.7613 12.0278 12.4539 12.4869 12.2441 12.9923C12.0344 13.4977 11.9264 14.0396 11.9264 14.5868C11.9264 15.134 12.0344 15.6759 12.2441 16.1813C12.4539 16.6867 12.7613 17.1458 13.1488 17.5322L21.1025 25.4902C21.8907 26.2395 22.9405 26.6512 24.0279 26.6372C25.1154 26.6233 26.1543 26.1849 26.923 25.4157C27.6918 24.6464 28.1294 23.6071 28.1425 22.5197C28.1557 21.4322 27.7433 20.3827 26.9934 19.5951L19.0396 11.6414C18.6532 11.2539 18.1942 10.9465 17.6887 10.7367C17.1833 10.5269 16.6414 10.419 16.0942 10.419C15.547 10.419 15.0051 10.5269 14.4997 10.7367C13.9943 10.9465 13.5352 11.2539 13.1488 11.6414V11.6414ZM96.9649 41.2913H87.4162C86.3343 41.3259 85.3083 41.78 84.5552 42.5575C83.8021 43.335 83.381 44.375 83.381 45.4574C83.381 46.5399 83.8021 47.5799 84.5552 48.3574C85.3083 49.1349 86.3343 49.589 87.4162 49.6236H96.9649C98.0468 49.589 99.0728 49.1349 99.8258 48.3574C100.579 47.5799 101 46.5399 101 45.4574C101 44.375 100.579 43.335 99.8258 42.5575C99.0728 41.78 98.0468 41.3259 96.9649 41.2913V41.2913ZM83.2224 11.6414L75.2686 19.5951C74.5187 20.3827 74.1063 21.4322 74.1195 22.5197C74.1326 23.6071 74.5703 24.6464 75.339 25.4157C76.1077 26.1849 77.1466 26.6233 78.2341 26.6372C79.3215 26.6512 80.3713 26.2395 81.1595 25.4902L89.1132 17.5322C89.5 17.1454 89.8068 16.6862 90.0162 16.1808C90.2255 15.6755 90.3333 15.1338 90.3333 14.5868C90.3333 14.0398 90.2255 13.4981 90.0162 12.9927C89.8068 12.4874 89.5 12.0282 89.1132 11.6414C88.7264 11.2546 88.2672 10.9477 87.7619 10.7384C87.2565 10.5291 86.7148 10.4213 86.1678 10.4213C85.6208 10.4213 85.0791 10.5291 84.5737 10.7384C84.0684 10.9477 83.6092 11.2546 83.2224 11.6414V11.6414ZM40.7146 78.7887C40.1563 78.7708 39.6001 78.8654 39.0791 79.0667C38.558 79.2681 38.0828 79.5721 37.6815 79.9607C37.2803 80.3493 36.9612 80.8146 36.7434 81.329C36.5255 81.8433 36.4132 82.3962 36.4132 82.9548C36.4132 83.5134 36.5255 84.0663 36.7434 84.5806C36.9612 85.095 37.2803 85.5603 37.6815 85.9489C38.0828 86.3375 38.558 86.6415 39.0791 86.8429C39.6001 87.0442 40.1563 87.1388 40.7146 87.1209H61.5559C62.1142 87.1388 62.6704 87.0442 63.1915 86.8429C63.7125 86.6415 64.1878 86.3375 64.589 85.9489C64.9902 85.5603 65.3093 85.095 65.5272 84.5806C65.745 84.0663 65.8573 83.5134 65.8573 82.9548C65.8573 82.3962 65.745 81.8433 65.5272 81.329C65.3093 80.8146 64.9902 80.3493 64.589 79.9607C64.1878 79.5721 63.7125 79.2681 63.1915 79.0667C62.6704 78.8654 62.1142 78.7708 61.5559 78.7887H40.7146ZM61.5474 89.2051H40.7061C39.6006 89.2051 38.5404 89.6442 37.7587 90.4259C36.977 91.2076 36.5378 92.2678 36.5378 93.3733C36.5378 94.4788 36.977 95.539 37.7587 96.3207C38.5404 97.1024 39.6006 97.5416 40.7061 97.5416H46.027C46.2721 97.5415 46.5098 97.6262 46.6997 97.7812C46.8895 97.9362 47.0201 98.1521 47.0691 98.3922C47.266 99.3282 47.7788 100.168 48.5215 100.771C49.2642 101.373 50.1916 101.702 51.148 101.702C52.1045 101.702 53.0318 101.373 53.7745 100.771C54.5172 100.168 55.03 99.3282 55.227 98.3922C55.276 98.1521 55.4065 97.9362 55.5964 97.7812C55.7863 97.6262 56.0239 97.5415 56.269 97.5416H61.5644C62.6699 97.5416 63.7301 97.1024 64.5118 96.3207C65.2935 95.539 65.7327 94.4788 65.7327 93.3733C65.7327 92.2678 65.2935 91.2076 64.5118 90.4259C63.7301 89.6442 62.6699 89.2051 61.5644 89.2051H61.5474Z" fill="url(#paint1_linear_262_61)"/>
<defs>
<linearGradient id="paint0_linear_262_61" x1="51.1297" y1="17.3322" x2="51.1297" y2="75.6666" gradientUnits="userSpaceOnUse">
<stop stop-color="#25544D"/>
<stop offset="1" stop-color="#0F6886"/>
</linearGradient>
<linearGradient id="paint1_linear_262_61" x1="51" y1="0" x2="51" y2="101.702" gradientUnits="userSpaceOnUse">
<stop stop-color="#25544D"/>
<stop offset="1" stop-color="#0F6886"/>
</linearGradient>
</defs>
</svg>
