<svg width="102" height="102" viewBox="0 0 102 102" fill="none" xmlns="http://www.w3.org/2000/svg">
<path d="M68.1615 52.5956L63.8133 45.0652C63.2367 44.0666 62.287 43.338 61.1731 43.0396C60.0592 42.7411 58.8724 42.8974 57.8737 43.4739L54.7952 45.2522C51.8345 42.5954 48.3489 40.5898 44.564 39.3652V35.7826C44.564 34.6295 44.1059 33.5236 43.2904 32.7082C42.475 31.8929 41.369 31.4348 40.2158 31.4348H31.5195C30.3663 31.4348 29.2603 31.8929 28.4449 32.7082C27.6294 33.5236 27.1713 34.6295 27.1713 35.7826V39.3522C23.3752 40.5674 19.8815 42.5772 16.9227 45.2478L13.8529 43.4739C12.8558 42.9029 11.6732 42.7497 10.5635 43.0479C9.45379 43.3461 8.50725 44.0713 7.9307 45.0652L3.58253 52.5956C3.00596 53.5943 2.84971 54.781 3.14816 55.8948C3.44661 57.0086 4.17531 57.9582 5.17396 58.5348L8.26986 60.3261C7.43485 64.2136 7.43485 68.2342 8.26986 72.1217L5.17396 73.9087C4.17531 74.4853 3.44661 75.4349 3.14816 76.5487C2.84971 77.6625 3.00596 78.8492 3.58253 79.8478L7.9307 87.3783C8.50732 88.3768 9.45703 89.1055 10.5709 89.4039C11.6848 89.7023 12.8716 89.5461 13.8703 88.9696L16.9488 87.1913C19.9096 89.8536 23.3989 91.8611 27.1887 93.0826V96.6522C27.1887 97.8053 27.6468 98.9112 28.4623 99.7266C29.2777 100.542 30.3837 101 31.5369 101H40.2332C41.3864 101 42.4924 100.542 43.3078 99.7266C44.1233 98.9112 44.5814 97.8053 44.5814 96.6522V93.087C48.3747 91.8705 51.8665 89.8624 54.8256 87.1957L57.8911 88.9696C58.8898 89.5461 60.0766 89.7023 61.1905 89.4039C62.3044 89.1055 63.2541 88.3768 63.8307 87.3783L68.1788 79.8478C68.7554 78.8492 68.9117 77.6625 68.6132 76.5487C68.3148 75.4349 67.5861 74.4853 66.5874 73.9087L63.4959 72.1261C64.3331 68.2358 64.3331 64.212 63.4959 60.3217L66.5874 58.5348C67.5831 57.9553 68.3081 57.0044 68.6033 55.8908C68.8984 54.7773 68.7395 53.5921 68.1615 52.5956ZM35.8676 81.4348C32.8577 81.4348 29.9153 80.5423 27.4127 78.8702C24.91 77.1981 22.9594 74.8214 21.8075 72.0408C20.6557 69.2602 20.3543 66.2005 20.9415 63.2486C21.5287 60.2967 22.9781 57.5853 25.1065 55.4571C27.2348 53.3289 29.9465 51.8796 32.8987 51.2924C35.8508 50.7052 38.9107 51.0066 41.6915 52.1584C44.4724 53.3101 46.8492 55.2606 48.5214 57.7631C50.1937 60.2655 51.0862 63.2077 51.0862 66.2174C51.0862 70.2533 49.4828 74.1239 46.6288 76.9777C43.7748 79.8315 39.9039 81.4348 35.8676 81.4348ZM98.7551 25.4957L96.2854 24.0696C96.8258 21.7723 96.8169 19.3801 96.2593 17.087L98.7551 15.6478C99.2545 15.3595 99.6188 14.8847 99.768 14.3278C99.9173 13.7709 99.8391 13.1776 99.5508 12.6783L97.3768 8.9087C97.0885 8.40941 96.6136 8.04508 96.0567 7.89587C95.4997 7.74666 94.9063 7.82478 94.407 8.11304L91.9111 9.55652C90.2025 7.92453 88.1334 6.71802 85.8715 6.03478V3.17391C85.8715 2.59736 85.6425 2.04441 85.2348 1.63672C84.827 1.22904 84.274 1 83.6974 1H79.3493C78.7727 1 78.2197 1.22904 77.812 1.63672C77.4043 2.04441 77.1752 2.59736 77.1752 3.17391V6.02609C74.9083 6.70666 72.8314 7.90656 71.1095 9.53043L68.6354 8.1C68.1361 7.81173 67.5427 7.73362 66.9857 7.88283C66.4288 8.03204 65.9539 8.39636 65.6656 8.89565L63.4915 12.6652C63.2032 13.1645 63.1251 13.7579 63.2743 14.3148C63.4236 14.8717 63.7879 15.3465 64.2872 15.6348L66.7527 17.0565C66.2024 19.3574 66.2024 21.7556 66.7527 24.0565L64.2655 25.4913C63.7662 25.7796 63.4018 26.2544 63.2526 26.8113C63.1034 27.3682 63.1815 27.9616 63.4698 28.4609L65.6439 32.2304C65.9322 32.7297 66.407 33.094 66.964 33.2433C67.5209 33.3925 68.1143 33.3144 68.6137 33.0261L71.1008 31.587C72.8125 33.2235 74.8863 34.433 77.1535 35.1174V37.9565C77.1535 38.5331 77.3825 39.086 77.7902 39.4937C78.1979 39.9014 78.7509 40.1304 79.3275 40.1304H83.6757C84.2523 40.1304 84.8053 39.9014 85.213 39.4937C85.6207 39.086 85.8498 38.5331 85.8498 37.9565V35.1087C88.1163 34.4279 90.192 33.2263 91.9111 31.6L94.3852 33.0304C94.8846 33.3187 95.478 33.3968 96.0349 33.2476C96.5919 33.0984 97.0667 32.7341 97.355 32.2348L99.5291 28.4652C99.8192 27.9685 99.9007 27.3772 99.7556 26.8206C99.6105 26.264 99.2508 25.7876 98.7551 25.4957ZM81.5234 27.087C80.2334 27.087 78.9724 26.7045 77.8998 25.9878C76.8272 25.2712 75.9913 24.2527 75.4976 23.061C75.0039 21.8693 74.8748 20.558 75.1264 19.2929C75.3781 18.0278 75.9993 16.8657 76.9114 15.9537C77.8236 15.0416 78.9857 14.4204 80.2509 14.1688C81.5161 13.9171 82.8275 14.0463 84.0193 14.5399C85.2111 15.0335 86.2297 15.8694 86.9464 16.9419C87.6631 18.0144 88.0456 19.2753 88.0456 20.5652C88.0456 22.2949 87.3585 23.9537 86.1353 25.1768C84.9121 26.3998 83.2532 27.087 81.5234 27.087Z" fill="url(#paint0_linear_262_71)"/>
<defs>
<linearGradient id="paint0_linear_262_71" x1="51.4211" y1="1" x2="51.4211" y2="101" gradientUnits="userSpaceOnUse">
<stop stop-color="#25544D"/>
<stop offset="1" stop-color="#0F6886"/>
</linearGradient>
</defs>
</svg>
