<svg width="27" height="33" viewBox="0 0 27 33" fill="none" xmlns="http://www.w3.org/2000/svg">
<path d="M1.69336 1.4378V16.8915C1.69336 17.2479 1.83494 17.5897 2.08695 17.8417C2.33896 18.0938 2.68076 18.2353 3.03716 18.2353C3.39356 18.2353 3.73536 18.0938 3.98737 17.8417C4.23939 17.5897 4.38097 17.2479 4.38097 16.8915V3.4535C4.38097 3.2753 4.45175 3.1044 4.57776 2.97839C4.70377 2.85239 4.87467 2.7816 5.05287 2.7816H17.6564C17.8342 2.78164 18.0048 2.85219 18.1308 2.97779L21.6529 6.4999C21.7155 6.5623 21.7651 6.63644 21.799 6.71807C21.8329 6.7997 21.8504 6.88722 21.8504 6.97561V16.8915C21.8504 17.2479 21.992 17.5897 22.244 17.8417C22.496 18.0938 22.8378 18.2353 23.1942 18.2353C23.5506 18.2353 23.8924 18.0938 24.1444 17.8417C24.3964 17.5897 24.538 17.2479 24.538 16.8915V6.14111C24.5379 5.78474 24.3963 5.44299 24.1443 5.19104L19.441 0.487728C19.189 0.235699 18.8473 0.0940703 18.4909 0.0939941H3.03716C2.68076 0.0939941 2.33896 0.235573 2.08695 0.487585C1.83494 0.739597 1.69336 1.0814 1.69336 1.4378V1.4378Z" fill="url(#paint0_linear_267_66)"/>
<path d="M19.383 28.5262C19.4575 28.577 19.5087 28.6553 19.5255 28.7439C19.6261 29.2835 19.9122 29.7709 20.3343 30.1218C20.7564 30.4728 21.2879 30.6651 21.8368 30.6655H25.1963C25.4636 30.6655 25.72 30.5593 25.909 30.3703C26.098 30.1813 26.2042 29.9249 26.2042 29.6576V20.251C26.2042 19.9837 26.098 19.7274 25.909 19.5384C25.72 19.3494 25.4636 19.2432 25.1963 19.2432H21.8368C21.4363 19.2429 21.0425 19.3456 20.6932 19.5415C20.6501 19.5656 20.6023 19.5799 20.553 19.5834C20.5038 19.5868 20.4544 19.5794 20.4083 19.5617L16.5704 18.0929C16.1584 17.9467 15.7213 17.8841 15.2847 17.9088C14.8482 17.9335 14.4209 18.0449 14.028 18.2367L12.0297 19.2042C11.981 19.2284 11.9272 19.2403 11.8728 19.2389C11.8185 19.2375 11.7653 19.2228 11.718 19.1961C11.3281 18.9765 10.8934 18.8482 10.4467 18.8209C9.99996 18.7937 9.55291 18.8682 9.1392 19.0389L6.53357 20.1502C6.46784 20.1781 6.39495 20.1844 6.3254 20.1683C6.25585 20.1521 6.19323 20.1143 6.14655 20.0602C5.92637 19.8039 5.65339 19.5981 5.3463 19.4571C5.03922 19.3161 4.70528 19.2431 4.36736 19.2432H1.00785C0.740553 19.2432 0.484202 19.3494 0.295193 19.5384C0.106184 19.7274 0 19.9837 0 20.251V29.6576C0 29.9249 0.106184 30.1813 0.295193 30.3703C0.484202 30.5593 0.740553 30.6655 1.00785 30.6655H4.36736C4.78001 30.6652 5.18533 30.5565 5.54267 30.3501C5.9 30.1437 6.19678 29.847 6.40322 29.4897C6.43275 29.4388 6.47508 29.3965 6.526 29.3671C6.57691 29.3376 6.63465 29.322 6.69348 29.3217H7.12484C7.20022 29.3219 7.27342 29.3469 7.33313 29.3929L10.0409 31.5228C10.3777 31.8638 10.8297 32.0665 11.3083 32.0914C11.7868 32.1163 12.2574 31.9614 12.6277 31.6572L15.5935 29.2249C15.6365 29.1903 15.6872 29.1663 15.7413 29.1551L19.129 28.4832C19.2161 28.4635 19.3073 28.4789 19.383 28.5262V28.5262ZM15.7091 26.5293L11.4734 30.1065C11.4734 30.1065 11.339 29.9855 8.21332 27.5223C8.03581 27.382 7.81608 27.3058 7.5898 27.306H7.05496C6.96587 27.306 6.88041 27.2706 6.81741 27.2076C6.75441 27.1446 6.71901 27.0591 6.71901 26.97V22.4831C6.71884 22.4172 6.73813 22.3527 6.77447 22.2977C6.8108 22.2427 6.86257 22.1997 6.92327 22.174L9.90786 20.9028C9.94031 20.89 9.97562 20.8864 10.01 20.8924C10.0443 20.8983 10.0764 20.9135 10.1027 20.9364C10.129 20.9595 10.1484 20.9894 10.1586 21.0229C10.1688 21.0564 10.1694 21.092 10.1605 21.1258C10.04 21.596 10.0521 22.0903 10.1955 22.5539C10.3388 23.0176 10.6078 23.4325 10.9726 23.7526C11.3374 24.0727 11.7837 24.2855 12.2621 24.3674C12.7404 24.4493 13.2321 24.3971 13.6826 24.2166L13.7579 24.1843C13.8219 24.1587 13.8922 24.1531 13.9594 24.1685C14.0267 24.1839 14.0876 24.2194 14.1341 24.2703L15.7467 26.0401C15.8072 26.1083 15.8381 26.1977 15.8327 26.2887C15.8297 26.3352 15.8172 26.3805 15.7959 26.4219C15.7747 26.4633 15.7451 26.4998 15.7091 26.5293V26.5293ZM18.1521 26.4957C18.113 26.4662 18.0808 26.4285 18.0576 26.3854C18.0344 26.3423 18.0208 26.2946 18.0177 26.2457C17.9953 25.8162 17.8388 25.4045 17.5702 25.0686L14.9874 22.2237C14.8476 22.071 14.6644 21.9646 14.4625 21.9187C14.2605 21.8729 14.0494 21.8897 13.8573 21.9671L12.9166 22.3527C12.8427 22.3824 12.7637 22.3972 12.684 22.3962C12.6044 22.3952 12.5257 22.3785 12.4525 22.347C12.3794 22.3156 12.3131 22.27 12.2576 22.2128C12.2021 22.1557 12.1585 22.0882 12.1292 22.0141C11.9773 21.6257 12.1708 21.4645 12.4167 21.2535L14.9108 20.0441C15.2074 19.9021 15.5474 19.8805 15.8596 19.9836L19.2648 21.2858C19.3273 21.3097 19.3811 21.3521 19.419 21.4073C19.4569 21.4625 19.4772 21.5279 19.4771 21.5948V26.0737C19.4771 26.1512 19.4504 26.2262 19.4014 26.2862C19.3524 26.3462 19.2842 26.3875 19.2083 26.403L18.4182 26.5602C18.3718 26.569 18.324 26.5678 18.2782 26.5566C18.2323 26.5455 18.1893 26.5247 18.1521 26.4957V26.4957ZM12.4302 8.49275C12.6975 8.49275 12.9538 8.38657 13.1428 8.19756C13.3318 8.00855 13.438 7.7522 13.438 7.4849C13.438 7.2176 13.3318 6.96125 13.1428 6.77224C12.9538 6.58324 12.6975 6.47705 12.4302 6.47705H8.39877C8.13147 6.47705 7.87512 6.58324 7.68611 6.77224C7.4971 6.96125 7.39092 7.2176 7.39092 7.4849C7.39092 7.7522 7.4971 8.00855 7.68611 8.19756C7.87512 8.38657 8.13147 8.49275 8.39877 8.49275H12.4302ZM8.41221 13.868H18.4907C18.758 13.868 19.0144 13.7618 19.2034 13.5728C19.3924 13.3838 19.4986 13.1274 19.4986 12.8601C19.4986 12.5928 19.3924 12.3365 19.2034 12.1475C19.0144 11.9584 18.758 11.8523 18.4907 11.8523H8.41221C8.14491 11.8523 7.88856 11.9584 7.69955 12.1475C7.51054 12.3365 7.40435 12.5928 7.40435 12.8601C7.40435 13.1274 7.51054 13.3838 7.69955 13.5728C7.88856 13.7618 8.14491 13.868 8.41221 13.868V13.868Z" fill="url(#paint1_linear_267_66)"/>
<defs>
<linearGradient id="paint0_linear_267_66" x1="13.1157" y1="0.0939941" x2="13.1157" y2="18.2353" gradientUnits="userSpaceOnUse">
<stop stop-color="#25544D"/>
<stop offset="1" stop-color="#0F6886"/>
</linearGradient>
<linearGradient id="paint1_linear_267_66" x1="13.1021" y1="6.47705" x2="13.1021" y2="32.094" gradientUnits="userSpaceOnUse">
<stop stop-color="#25544D"/>
<stop offset="1" stop-color="#0F6886"/>
</linearGradient>
</defs>
</svg>
