<svg width="32" height="32" viewBox="0 0 32 32" fill="none" xmlns="http://www.w3.org/2000/svg">
<path d="M31.9995 3.70288C32.0142 2.80343 31.6715 1.9349 31.0466 1.28778C30.4217 0.640667 29.5657 0.267804 28.6663 0.250977H3.33369C2.43428 0.267804 1.57826 0.640667 0.953391 1.28778C0.328521 1.9349 -0.0141824 2.80343 0.000450029 3.70288V22.2504C0.000450029 23.3112 0.421866 24.3286 1.17199 25.0787C1.92211 25.8288 2.9395 26.2502 4.00034 26.2502H13.6667C13.7551 26.2502 13.8399 26.2854 13.9024 26.3479C13.9649 26.4104 14.0001 26.4952 14.0001 26.5836V28.5835C14.0001 28.6719 13.9649 28.7567 13.9024 28.8192C13.8399 28.8817 13.7551 28.9168 13.6667 28.9168H6.66693C6.31332 28.9168 5.97419 29.0573 5.72415 29.3074C5.47411 29.5574 5.33363 29.8965 5.33363 30.2501C5.33363 30.6037 5.47411 30.9429 5.72415 31.1929C5.97419 31.443 6.31332 31.5834 6.66693 31.5834H25.3331C25.6867 31.5834 26.0258 31.443 26.2759 31.1929C26.5259 30.9429 26.6664 30.6037 26.6664 30.2501C26.6664 29.8965 26.5259 29.5574 26.2759 29.3074C26.0258 29.0573 25.6867 28.9168 25.3331 28.9168H17C16.9116 28.9168 16.8268 28.8817 16.7643 28.8192C16.7018 28.7567 16.6666 28.6719 16.6666 28.5835V26.5822C16.6666 26.4938 16.7018 26.4091 16.7643 26.3465C16.8268 26.284 16.9116 26.2489 17 26.2489H27.9997C29.0605 26.2489 30.0779 25.8275 30.828 25.0774C31.5781 24.3272 31.9995 23.3099 31.9995 22.249V3.70288ZM29.333 3.70288V19.5838C29.333 19.7606 29.2627 19.9301 29.1377 20.0552C29.0127 20.1802 28.8431 20.2504 28.6663 20.2504H3.33369C3.15688 20.2504 2.98732 20.1802 2.8623 20.0552C2.73728 19.9301 2.66704 19.7606 2.66704 19.5838V17.1358C2.66703 17.0474 2.70202 16.9626 2.76437 16.8998L7.76423 11.9C7.82711 11.8379 7.91189 11.8031 8.00023 11.8031C8.08856 11.8031 8.17334 11.8379 8.23622 11.9L12.6268 16.2905C12.7195 16.3834 12.8297 16.4571 12.9509 16.5074C13.0722 16.5576 13.2021 16.5835 13.3334 16.5835C13.4647 16.5835 13.5946 16.5576 13.7159 16.5074C13.8372 16.4571 13.9473 16.3834 14.0401 16.2905L16.7066 13.6239C16.8833 13.4344 16.9794 13.1837 16.9749 12.9246C16.9703 12.6655 16.8654 12.4184 16.6821 12.2351C16.4989 12.0519 16.2518 11.947 15.9927 11.9424C15.7336 11.9378 15.4829 12.034 15.2934 12.2106L13.5694 13.9346C13.5065 13.9966 13.4217 14.0314 13.3334 14.0314C13.2451 14.0314 13.1603 13.9966 13.0974 13.9346L8.70687 9.54405C8.61412 9.45117 8.50397 9.37748 8.38272 9.3272C8.26146 9.27693 8.13149 9.25105 8.00023 9.25105C7.86896 9.25105 7.73899 9.27693 7.61773 9.3272C7.49648 9.37748 7.38633 9.45117 7.29358 9.54405L3.23636 13.6013C3.18974 13.648 3.13029 13.6798 3.06556 13.6928C3.00082 13.7057 2.93371 13.6991 2.87273 13.6738C2.81175 13.6485 2.75964 13.6057 2.72303 13.5508C2.68641 13.4958 2.66692 13.4313 2.66704 13.3653V3.70288C2.65297 3.51071 2.71497 3.3207 2.83967 3.17381C2.96436 3.02691 3.14178 2.93489 3.33369 2.91757H28.6663C28.8582 2.93489 29.0356 3.02691 29.1603 3.17381C29.285 3.3207 29.347 3.51071 29.333 3.70288Z" fill="url(#paint0_linear_267_69)"/>
<path d="M24.5245 13.8306C24.5245 14.0654 24.4312 14.2906 24.2652 14.4566C24.0991 14.6226 23.874 14.7159 23.6392 14.7159H21.4579C21.3266 14.7159 21.1965 14.7418 21.0752 14.792C20.9539 14.8423 20.8437 14.9159 20.7508 15.0088C20.6579 15.1016 20.5843 15.2119 20.534 15.3332C20.4838 15.4545 20.4579 15.5846 20.4579 15.7159C20.4579 15.8472 20.4838 15.9772 20.534 16.0985C20.5843 16.2199 20.6579 16.3301 20.7508 16.423C20.8437 16.5158 20.9539 16.5895 21.0752 16.6397C21.1965 16.69 21.3266 16.7158 21.4579 16.7158H21.6485C21.7369 16.7158 21.8217 16.751 21.8842 16.8135C21.9467 16.876 21.9819 16.9608 21.9819 17.0492V17.2412C21.9819 17.5064 22.0872 17.7607 22.2748 17.9482C22.4623 18.1358 22.7166 18.2411 22.9818 18.2411C23.247 18.2411 23.5014 18.1358 23.6889 17.9482C23.8765 17.7607 23.9818 17.5064 23.9818 17.2412V16.9638C23.9816 16.8871 24.0081 16.8127 24.0567 16.7533C24.1054 16.6939 24.1732 16.6534 24.2485 16.6385C24.8332 16.5155 25.3652 16.2134 25.7702 15.7741C26.1753 15.3348 26.4334 14.7802 26.5087 14.1874C26.5839 13.5946 26.4725 12.9931 26.19 12.4665C25.9075 11.9399 25.468 11.5145 24.9325 11.2493L22.9458 10.26C22.7678 10.1703 22.6253 10.0232 22.5413 9.8424C22.4573 9.66161 22.4367 9.45776 22.483 9.26386C22.5293 9.06996 22.6397 8.89735 22.7963 8.77398C22.9528 8.65061 23.1465 8.58369 23.3458 8.58407H25.5271C25.7923 8.58407 26.0467 8.47872 26.2342 8.29119C26.4217 8.10366 26.5271 7.84931 26.5271 7.5841C26.5271 7.31889 26.4217 7.06454 26.2342 6.87701C26.0467 6.68948 25.7923 6.58413 25.5271 6.58413H25.3324C25.244 6.58413 25.1593 6.54901 25.0967 6.4865C25.0342 6.42399 24.9991 6.33921 24.9991 6.2508V6.05881C24.9991 5.7936 24.8938 5.53925 24.7062 5.35172C24.5187 5.16419 24.2644 5.05884 23.9991 5.05884C23.7339 5.05884 23.4796 5.16419 23.2921 5.35172C23.1045 5.53925 22.9992 5.7936 22.9992 6.05881V6.33747C22.9991 6.41415 22.9725 6.48845 22.9239 6.54775C22.8753 6.60705 22.8077 6.6477 22.7325 6.66279C22.1487 6.78677 21.618 7.08935 21.214 7.52858C20.81 7.9678 20.5527 8.52188 20.4778 9.11395C20.4029 9.70602 20.5142 10.3067 20.7961 10.8327C21.078 11.3587 21.5167 11.7839 22.0512 12.0493L24.0351 13.0426C24.1822 13.1151 24.306 13.2274 24.3925 13.3666C24.4789 13.5059 24.5247 13.6666 24.5245 13.8306Z" fill="url(#paint1_linear_267_69)"/>
<defs>
<linearGradient id="paint0_linear_267_69" x1="16" y1="0.250977" x2="16" y2="31.5834" gradientUnits="userSpaceOnUse">
<stop stop-color="#25544D"/>
<stop offset="1" stop-color="#0F6886"/>
</linearGradient>
<linearGradient id="paint1_linear_267_69" x1="23.4933" y1="5.05884" x2="23.4933" y2="18.2411" gradientUnits="userSpaceOnUse">
<stop stop-color="#25544D"/>
<stop offset="1" stop-color="#0F6886"/>
</linearGradient>
</defs>
</svg>
