<svg width="32" height="32" viewBox="0 0 32 32" fill="none" xmlns="http://www.w3.org/2000/svg">
<path d="M11.6932 28.2372L15.031 31.5751C15.2823 31.8177 15.6187 31.9519 15.9679 31.9489C16.3172 31.9459 16.6512 31.8058 16.8982 31.5588C17.1451 31.3119 17.2852 30.9778 17.2883 30.6286C17.2913 30.2794 17.157 29.9429 16.9144 29.6917L13.5766 26.3539C13.5255 26.3017 13.4936 26.2337 13.4864 26.1611C13.4791 26.0884 13.4968 26.0155 13.5366 25.9543C14.5107 24.4289 14.8874 22.5976 14.5945 20.8117C14.3015 19.0257 13.3595 17.4107 11.9492 16.2764C10.5388 15.1422 8.7594 14.5686 6.95214 14.6655C5.14488 14.7625 3.43703 15.5232 2.15613 16.8019C0.875224 18.0805 0.111445 19.787 0.0112685 21.5941C-0.0889076 23.4011 0.481571 25.1816 1.6133 26.594C2.74502 28.0063 4.35832 28.9512 6.14379 29.2473C7.92926 29.5434 9.7612 29.17 11.2883 28.1986C11.3499 28.1573 11.4238 28.1385 11.4976 28.1456C11.5715 28.1526 11.6405 28.185 11.6932 28.2372ZM7.35905 26.6828C6.43703 26.6828 5.53572 26.4094 4.76909 25.8972C4.00247 25.3849 3.40495 24.6569 3.05211 23.805C2.69927 22.9532 2.60695 22.0159 2.78683 21.1116C2.9667 20.2073 3.4107 19.3766 4.06266 18.7247C4.71463 18.0727 5.54528 17.6287 6.44958 17.4488C7.35388 17.2689 8.29121 17.3613 9.14305 17.7141C9.99488 18.0669 10.723 18.6645 11.2352 19.4311C11.7474 20.1977 12.0209 21.099 12.0209 22.021C12.0209 23.2574 11.5297 24.4432 10.6554 25.3174C9.78119 26.1917 8.59544 26.6828 7.35905 26.6828V26.6828Z" fill="url(#paint0_linear_267_59)"/>
<path d="M32.0004 24.6409V5.8792C32.0002 5.17275 31.7195 4.49529 31.2198 3.99583L28.0045 0.780519C27.5051 0.280909 26.8276 0.000150876 26.1212 0L10.6893 0C9.98277 0 9.3052 0.280659 8.80562 0.780234C8.30605 1.27981 8.02539 1.95738 8.02539 2.66389V12.3871C8.02545 12.4679 8.05588 12.5458 8.11065 12.6052C8.16541 12.6647 8.24052 12.7014 8.32108 12.7081C8.97907 12.7755 9.62791 12.9135 10.2564 13.1196C10.305 13.1371 10.357 13.1426 10.4081 13.1358C10.4593 13.1291 10.5081 13.1102 10.5504 13.0807C10.5928 13.0512 10.6275 13.0121 10.6516 12.9665C10.6758 12.9209 10.6887 12.8702 10.6893 12.8186V3.32986C10.6893 3.15323 10.7594 2.98384 10.8843 2.85894C11.0092 2.73405 11.1786 2.66389 11.3552 2.66389H25.8455C26.0217 2.66392 26.1908 2.73385 26.3156 2.85835L29.142 5.68473C29.2665 5.80954 29.3364 5.97862 29.3365 6.15491V23.975C29.3365 24.1516 29.2663 24.321 29.1414 24.4459C29.0165 24.5708 28.8471 24.6409 28.6705 24.6409H16.5259C16.4575 24.6409 16.3909 24.6628 16.3358 24.7033C16.2807 24.7438 16.2399 24.8008 16.2195 24.866C16.0692 25.3304 15.8822 25.782 15.6601 26.2166C15.6387 26.2659 15.629 26.3194 15.6318 26.373C15.6346 26.4266 15.6497 26.4789 15.6761 26.5256L16.2874 27.1357C16.3913 27.233 16.5252 27.2921 16.667 27.3035H29.3365C30.0428 27.3035 30.7201 27.023 31.2197 26.5237C31.7192 26.0244 32 25.3472 32.0004 24.6409V24.6409Z" fill="url(#paint1_linear_267_59)"/>
<path d="M15.0503 16.6213C15.3025 16.6784 15.566 16.6594 15.8073 16.5667C16.0487 16.474 16.2571 16.3118 16.4062 16.1006L18.596 13.0104C18.6442 12.9419 18.7166 12.8941 18.7986 12.8766C18.8805 12.8591 18.9661 12.8731 19.0382 12.9159L21.0454 14.1213C21.3007 14.2751 21.6002 14.3389 21.896 14.3025C22.1918 14.266 22.4668 14.1314 22.677 13.9202C22.7285 13.8699 22.7753 13.815 22.8169 13.7563L26.3972 8.78285C26.4993 8.64082 26.5725 8.48007 26.6125 8.30976C26.6525 8.13945 26.6586 7.96292 26.6304 7.79026C26.6022 7.6176 26.5403 7.45219 26.4481 7.30346C26.356 7.15474 26.2355 7.02561 26.0935 6.92346C25.9514 6.82131 25.7907 6.74814 25.6204 6.70812C25.4501 6.6681 25.2735 6.66201 25.1009 6.69021C24.9282 6.71841 24.7628 6.78034 24.6141 6.87247C24.4654 6.9646 24.3362 7.08512 24.2341 7.22715L21.5502 10.9566C21.501 11.024 21.4284 11.0706 21.3466 11.0873C21.2648 11.1041 21.1798 11.0897 21.108 11.0472L19.0808 9.83909C18.7931 9.66686 18.4511 9.60947 18.123 9.67835C17.7948 9.74724 17.5048 9.93733 17.3106 10.2107L14.2312 14.5608C14.0721 14.7883 13.9912 15.0613 14.0008 15.3387C14.0119 15.4032 14.0359 15.4648 14.0714 15.5198C14.3758 15.8393 14.6579 16.1793 14.9158 16.5374C14.9543 16.5744 15.0002 16.603 15.0503 16.6213V16.6213Z" fill="url(#paint2_linear_267_59)"/>
<defs>
<linearGradient id="paint0_linear_267_59" x1="8.64415" y1="14.655" x2="8.64415" y2="31.949" gradientUnits="userSpaceOnUse">
<stop stop-color="#25544D"/>
<stop offset="1" stop-color="#0F6886"/>
</linearGradient>
<linearGradient id="paint1_linear_267_59" x1="20.0129" y1="0" x2="20.0129" y2="27.3035" gradientUnits="userSpaceOnUse">
<stop stop-color="#25544D"/>
<stop offset="1" stop-color="#0F6886"/>
</linearGradient>
<linearGradient id="paint2_linear_267_59" x1="20.3239" y1="6.67279" x2="20.3239" y2="16.6536" gradientUnits="userSpaceOnUse">
<stop stop-color="#25544D"/>
<stop offset="1" stop-color="#0F6886"/>
</linearGradient>
</defs>
</svg>
