<svg width="32" height="24" viewBox="0 0 32 24" fill="none" xmlns="http://www.w3.org/2000/svg">
<path d="M16 0.347992C11.7579 0.35258 7.69095 2.03976 4.69136 5.03935C1.69177 8.03894 0.00458811 12.1059 0 16.348L0 19.536C0.0010589 20.5658 0.410605 21.5531 1.13877 22.2812C1.86693 23.0094 2.85422 23.4189 3.884 23.42H28.116C29.1458 23.4189 30.1331 23.0094 30.8612 22.2812C31.5894 21.5531 31.9989 20.5658 32 19.536V16.348C31.9954 12.1059 30.3082 8.03894 27.3086 5.03935C24.3091 2.03976 20.2421 0.35258 16 0.347992V0.347992ZM28.116 20.748H3.884C3.56217 20.7476 3.25355 20.62 3.02548 20.3929C2.79742 20.1659 2.66843 19.8578 2.66667 19.536V17.7507H6C6.26522 17.7507 6.51957 17.6453 6.70711 17.4578C6.89464 17.2702 7 17.0159 7 16.7507C7 16.4854 6.89464 16.2311 6.70711 16.0436C6.51957 15.856 6.26522 15.7507 6 15.7507H2.68C2.75159 14.0995 3.13193 12.4764 3.80133 10.9653L6.50667 12.5307C6.73652 12.6633 7.00964 12.6991 7.26594 12.6304C7.52224 12.5616 7.74073 12.3938 7.87333 12.164C8.00594 11.9341 8.04181 11.661 7.97305 11.4047C7.90428 11.1484 7.73652 10.9299 7.50667 10.7973L4.74667 9.19732C5.62289 7.82423 6.74208 6.62237 8.04933 5.65066L9.556 8.25999C9.69144 8.48678 9.90988 8.6519 10.165 8.72035C10.4201 8.7888 10.6919 8.75519 10.9227 8.62666C11.0364 8.56094 11.1361 8.47345 11.216 8.36919C11.296 8.26493 11.3546 8.14594 11.3885 8.01902C11.4224 7.8921 11.431 7.75974 11.4138 7.62951C11.3965 7.49927 11.3538 7.37371 11.288 7.25999L9.74 4.57866C11.3675 3.70802 13.1593 3.18796 15 3.05199V6.08666C15 6.35187 15.1054 6.60623 15.2929 6.79377C15.4804 6.9813 15.7348 7.08666 16 7.08666C16.2652 7.08666 16.5196 6.9813 16.7071 6.79377C16.8946 6.60623 17 6.35187 17 6.08666V3.05199C19.07 3.20922 21.0747 3.84733 22.8547 4.91556C24.6347 5.98379 26.1408 7.45266 27.2533 9.20532L24.4933 10.8053C24.2635 10.9379 24.0957 11.1564 24.027 11.4127C23.9582 11.669 23.9941 11.9421 24.1267 12.172C24.2593 12.4018 24.4778 12.5696 24.7341 12.6384C24.9904 12.7071 25.2635 12.6713 25.4933 12.5387L28.1987 10.976C28.8668 12.4837 29.2471 14.1031 29.32 15.7507H26C25.8687 15.7507 25.7386 15.7765 25.6173 15.8268C25.496 15.877 25.3858 15.9507 25.2929 16.0436C25.2 16.1364 25.1264 16.2466 25.0761 16.368C25.0259 16.4893 25 16.6193 25 16.7507C25 16.882 25.0259 17.012 25.0761 17.1333C25.1264 17.2547 25.2 17.3649 25.2929 17.4578C25.3858 17.5506 25.496 17.6243 25.6173 17.6745C25.7386 17.7248 25.8687 17.7507 26 17.7507H29.3333V19.5333C29.3335 19.6934 29.3022 19.8519 29.2411 19.9998C29.18 20.1477 29.0904 20.2822 28.9773 20.3954C28.8643 20.5087 28.7301 20.5986 28.5823 20.66C28.4345 20.7215 28.276 20.7532 28.116 20.7533V20.748Z" fill="url(#paint0_linear_267_53)"/>
<path d="M22.0871 6.71733C21.977 6.64576 21.8538 6.59661 21.7247 6.57268C21.5956 6.54876 21.463 6.55053 21.3346 6.5779C21.2062 6.60527 21.0844 6.6577 20.9763 6.73219C20.8681 6.80668 20.7757 6.90176 20.7044 7.01199L16.7044 13.1707C16.0152 13.0036 15.2892 13.0857 14.6547 13.4023C14.0202 13.719 13.518 14.2497 13.2371 14.9008C12.9562 15.5519 12.9145 16.2814 13.1195 16.9603C13.3245 17.6391 13.763 18.2236 14.3573 18.6104C14.9517 18.9972 15.6637 19.1613 16.3674 19.0738C17.0711 18.9863 17.7212 18.6528 18.2027 18.1322C18.6843 17.6117 18.9662 16.9376 18.9987 16.2292C19.0312 15.5209 18.8122 14.8238 18.3804 14.2613L22.3804 8.10133C22.5248 7.87883 22.575 7.60813 22.52 7.34866C22.465 7.08919 22.3093 6.86213 22.0871 6.71733V6.71733Z" fill="url(#paint1_linear_267_53)"/>
<defs>
<linearGradient id="paint0_linear_267_53" x1="16" y1="0.347992" x2="16" y2="23.42" gradientUnits="userSpaceOnUse">
<stop stop-color="#25544D"/>
<stop offset="1" stop-color="#0F6886"/>
</linearGradient>
<linearGradient id="paint1_linear_267_53" x1="17.7665" y1="6.55597" x2="17.7665" y2="19.0968" gradientUnits="userSpaceOnUse">
<stop stop-color="#25544D"/>
<stop offset="1" stop-color="#0F6886"/>
</linearGradient>
</defs>
</svg>
