<svg width="32" height="32" viewBox="0 0 32 32" fill="none" xmlns="http://www.w3.org/2000/svg">
<path d="M28.0003 0.78123C27.5004 0.281164 26.8223 0.000151013 26.1152 0L10.6692 0C9.9621 0 9.28391 0.280914 8.78388 0.780945C8.28385 1.28098 8.00294 1.95916 8.00294 2.66631V15.4899C8.00249 15.5644 8.02718 15.6368 8.07301 15.6955C8.11884 15.7541 8.18313 15.7956 8.25546 15.8132C8.3278 15.8308 8.40395 15.8234 8.47159 15.7923C8.53924 15.7613 8.59441 15.7083 8.62819 15.6419C9.04041 14.8031 9.68924 14.1032 10.4946 13.6289C10.5461 13.6021 10.5895 13.562 10.6202 13.5128C10.651 13.4635 10.6679 13.4069 10.6692 13.3489V3.33289C10.6692 3.1561 10.7395 2.98656 10.8645 2.86155C10.9895 2.73654 11.159 2.66631 11.3358 2.66631H25.8392C26.0157 2.66635 26.1849 2.73635 26.3098 2.86095L29.1388 5.68991C29.2634 5.81484 29.3334 5.98407 29.3334 6.16052V23.9968C29.3334 24.1736 29.2632 24.3432 29.1382 24.4682C29.0132 24.5932 28.8437 24.6634 28.6669 24.6634H18.6442C18.5847 24.6625 18.5261 24.6777 18.4745 24.7074C18.423 24.7371 18.3804 24.7803 18.3514 24.8322C18.3225 24.8842 18.3081 24.943 18.3099 25.0025C18.3117 25.062 18.3295 25.1199 18.3616 25.17C18.75 25.7468 19.0284 26.3904 19.1828 27.0684C19.1969 27.1426 19.2362 27.2096 19.294 27.2582C19.3518 27.3068 19.4246 27.3339 19.5001 27.335H29.3334C30.0406 27.335 30.7188 27.0541 31.2188 26.5541C31.7188 26.0541 31.9998 25.3759 31.9998 24.6687V5.88455C31.9996 5.17746 31.7186 4.49938 31.2185 3.99947L28.0003 0.78123Z" fill="url(#paint0_linear_267_72)"/>
<path d="M17.4193 14.0888C17.4751 14.1362 17.546 14.1622 17.6192 14.1622C17.6925 14.1622 17.7633 14.1362 17.8192 14.0888L18.5778 13.0223C18.6265 12.9539 18.6992 12.9062 18.7813 12.8887C18.8635 12.8712 18.9493 12.8851 19.0217 12.9277L21.0308 14.1342C21.2867 14.2892 21.5873 14.3536 21.8842 14.3171C22.1812 14.2806 22.4572 14.1453 22.6679 13.9329C22.7194 13.8825 22.7662 13.8276 22.8079 13.7689L26.3914 8.79088C26.4937 8.64872 26.5669 8.48782 26.607 8.31735C26.647 8.14689 26.6531 7.9702 26.6249 7.79739C26.5966 7.62457 26.5347 7.459 26.4424 7.31014C26.3502 7.16128 26.2296 7.03204 26.0875 6.92979C25.9453 6.82755 25.7844 6.75431 25.6139 6.71425C25.4435 6.67419 25.2668 6.66811 25.094 6.69633C24.9211 6.72456 24.7556 6.78654 24.6067 6.87875C24.4578 6.97097 24.3286 7.09159 24.2264 7.23375L21.5401 10.9666C21.4907 11.034 21.4181 11.0807 21.3363 11.0974C21.2544 11.1142 21.1693 11.0999 21.0974 11.0572L19.0684 9.84807C18.7802 9.67544 18.4374 9.61798 18.1087 9.68719C17.7799 9.7564 17.4894 9.94717 17.2953 10.2214L15.6142 12.601C15.5851 12.6422 15.566 12.6895 15.5583 12.7393C15.5506 12.7891 15.5545 12.84 15.5698 12.8881C15.585 12.9361 15.6111 12.9799 15.6461 13.0162C15.6811 13.0524 15.724 13.0801 15.7715 13.097C16.373 13.3318 16.9302 13.6672 17.4193 14.0888V14.0888ZM10.0522 18.7429C10.0554 18.8012 10.0428 18.8593 10.0158 18.9112C9.98886 18.963 9.94849 19.0066 9.89893 19.0375L6.08077 21.3306C6.02641 21.3624 5.96401 21.3778 5.90109 21.3749C5.83818 21.3721 5.77742 21.3511 5.72615 21.3146C5.26466 20.9926 4.73435 20.7828 4.17746 20.702C3.62058 20.6213 3.05252 20.6717 2.51857 20.8493C1.96568 21.0255 1.46346 21.3325 1.05452 21.7442C0.645589 22.1559 0.34201 22.6602 0.169549 23.2143C-0.00358337 23.7646 -0.0448465 24.3479 0.0490928 24.9171C0.143032 25.4863 0.369539 26.0254 0.710316 26.4909C1.05109 26.9564 1.49658 27.3352 2.0108 27.5967C2.52501 27.8582 3.09353 27.9951 3.67042 27.9963C4.6084 27.9951 5.50966 27.6316 6.18609 26.9818C6.23098 26.938 6.28753 26.908 6.349 26.8955C6.41047 26.883 6.47425 26.8884 6.53271 26.9111C6.53271 26.9111 9.09637 27.9523 9.81627 28.2443C9.87121 28.2693 9.91792 28.3094 9.95096 28.3599C9.984 28.4104 10.002 28.4693 10.0029 28.5296C10.0327 29.0515 10.1736 29.5611 10.4162 30.0241C10.6588 30.4872 10.9975 30.8931 11.4097 31.2146C11.8219 31.5362 12.298 31.7659 12.8062 31.8886C13.3144 32.0112 13.8429 32.0238 14.3564 31.9257C14.8699 31.8275 15.3564 31.6208 15.7835 31.3193C16.2106 31.0179 16.5684 30.6286 16.8329 30.1777C17.0974 29.7268 17.2625 29.2246 17.3172 28.7047C17.3719 28.1848 17.3149 27.6592 17.15 27.1631C16.9769 26.62 16.6766 26.1262 16.274 25.7227C15.8715 25.3192 15.3783 25.0177 14.8356 24.8434C14.2035 24.6322 13.5256 24.5979 12.8754 24.7443C12.2251 24.8907 11.6274 25.2122 11.1468 25.674C11.1026 25.718 11.0465 25.7482 10.9853 25.7607C10.9242 25.7733 10.8608 25.7677 10.8028 25.7446L7.40726 24.3968C7.38605 24.3858 7.36776 24.3699 7.35386 24.3504C7.33996 24.3309 7.33085 24.3085 7.32727 24.2848L7.28727 23.8142C7.28736 23.7875 7.29427 23.7612 7.30733 23.7379C7.32039 23.7146 7.33918 23.695 7.36193 23.6809L11.2587 21.3306C11.3131 21.2987 11.3755 21.2833 11.4384 21.2862C11.5013 21.289 11.5621 21.31 11.6134 21.3466C12.0834 21.6707 12.6228 21.8802 13.1883 21.9582C13.7539 22.0363 14.3299 21.9808 14.8701 21.7961C15.4103 21.6114 15.8998 21.3026 16.2991 20.8947C16.6985 20.4867 16.9968 19.9908 17.17 19.4468C17.3431 18.8965 17.3844 18.3132 17.2904 17.744C17.1965 17.1748 16.97 16.6357 16.6292 16.1702C16.2884 15.7047 15.8429 15.3259 15.3287 15.0644C14.8145 14.8029 14.246 14.666 13.6691 14.6648C13.1588 14.68 12.6569 14.7994 12.1945 15.0157C11.732 15.2321 11.3187 15.5407 10.9799 15.9227C10.6411 16.3047 10.3841 16.7519 10.2245 17.2369C10.065 17.7219 10.0064 18.2344 10.0522 18.7429V18.7429Z" fill="url(#paint1_linear_267_72)"/>
<defs>
<linearGradient id="paint0_linear_267_72" x1="20.0013" y1="0" x2="20.0013" y2="27.335" gradientUnits="userSpaceOnUse">
<stop stop-color="#25544D"/>
<stop offset="1" stop-color="#0F6886"/>
</linearGradient>
<linearGradient id="paint1_linear_267_72" x1="13.3212" y1="6.67889" x2="13.3212" y2="31.991" gradientUnits="userSpaceOnUse">
<stop stop-color="#25544D"/>
<stop offset="1" stop-color="#0F6886"/>
</linearGradient>
</defs>
</svg>
