<svg width="32" height="32" viewBox="0 0 32 32" fill="none" xmlns="http://www.w3.org/2000/svg">
<path d="M25.3331 31.5834C25.6867 31.5834 26.0258 31.443 26.2759 31.1929C26.5259 30.9429 26.6664 30.6037 26.6664 30.2501C26.6664 29.8965 26.5259 29.5574 26.2759 29.3074C26.0258 29.0573 25.6867 28.9168 25.3331 28.9168H17C16.9116 28.9168 16.8268 28.8817 16.7643 28.8192C16.7018 28.7567 16.6666 28.6719 16.6666 28.5835V26.5822C16.6666 26.4938 16.7018 26.4091 16.7643 26.3465C16.8268 26.284 16.9116 26.2489 17 26.2489H27.9997C29.0605 26.2489 30.0779 25.8275 30.828 25.0774C31.5781 24.3272 31.9995 23.3099 31.9995 22.249V3.70288C32.0142 2.80343 31.6715 1.9349 31.0466 1.28778C30.4217 0.640667 29.5657 0.267804 28.6663 0.250977H3.33369C2.43428 0.267804 1.57826 0.640667 0.953391 1.28778C0.328521 1.9349 -0.0141824 2.80343 0.000450029 3.70288V22.2504C0.000450029 23.3112 0.421866 24.3286 1.17199 25.0787C1.92211 25.8288 2.9395 26.2502 4.00034 26.2502H13.6667C13.7551 26.2502 13.8399 26.2854 13.9024 26.3479C13.9649 26.4104 14.0001 26.4952 14.0001 26.5836V28.5835C14.0001 28.6719 13.9649 28.7567 13.9024 28.8192C13.8399 28.8817 13.7551 28.9168 13.6667 28.9168H6.66693C6.31332 28.9168 5.97419 29.0573 5.72415 29.3074C5.47411 29.5574 5.33363 29.8965 5.33363 30.2501C5.33363 30.6037 5.47411 30.9429 5.72415 31.1929C5.97419 31.443 6.31332 31.5834 6.66693 31.5834H25.3331ZM2.66704 3.70288C2.65297 3.51071 2.71497 3.3207 2.83967 3.17381C2.96436 3.02691 3.14178 2.93489 3.33369 2.91757H28.6663C28.8582 2.93489 29.0356 3.02691 29.1603 3.17381C29.285 3.3207 29.347 3.51071 29.333 3.70288V19.5838C29.333 19.7606 29.2627 19.9301 29.1377 20.0552C29.0127 20.1802 28.8431 20.2504 28.6663 20.2504H3.33369C3.15688 20.2504 2.98732 20.1802 2.8623 20.0552C2.73728 19.9301 2.66704 19.7606 2.66704 19.5838V3.70288Z" fill="url(#paint0_linear_267_63)"/>
<path d="M18.667 5.92951C18.6952 5.88872 18.714 5.84211 18.7218 5.79312C18.7297 5.74412 18.7265 5.69399 18.7124 5.64641C18.6983 5.59883 18.6738 5.55501 18.6405 5.51817C18.6073 5.48133 18.5662 5.4524 18.5203 5.43353C17.7232 5.09507 16.8664 4.91963 16.0004 4.91754C14.479 4.91923 13.0044 5.44301 11.8228 6.40133C10.6412 7.35966 9.82428 8.69448 9.50859 10.1827C9.49798 10.2314 9.49846 10.2819 9.51 10.3303C9.52154 10.3788 9.54385 10.424 9.57526 10.4627C9.60693 10.5005 9.64653 10.5308 9.69123 10.5515C9.73593 10.5723 9.78464 10.5829 9.83392 10.5827H15.1231C15.2313 10.5827 15.3378 10.5563 15.4335 10.5059C15.5292 10.4555 15.6112 10.3826 15.6724 10.2934L18.667 5.92951ZM20.8323 7.01615C20.7979 6.98024 20.756 6.95243 20.7096 6.93474C20.6631 6.91705 20.6133 6.90993 20.5638 6.91389C20.5143 6.91785 20.4662 6.93279 20.4232 6.95762C20.3801 6.98246 20.3432 7.01657 20.315 7.05748L17.5404 11.1067C17.4591 11.2261 17.4188 11.3686 17.4255 11.5129C17.4323 11.6572 17.4857 11.7954 17.5777 11.9067L20.7203 15.6679C20.7521 15.7061 20.7921 15.7367 20.8373 15.7575C20.8825 15.7782 20.9318 15.7886 20.9815 15.7878C21.0312 15.7871 21.0802 15.7752 21.1247 15.753C21.1693 15.7309 21.2083 15.6991 21.2389 15.6599C22.2305 14.4141 22.7364 12.8508 22.6629 11.2603C22.5893 9.6697 21.9412 8.15982 20.8389 7.01082L20.8323 7.01615ZM9.83392 12.5827C9.7846 12.5828 9.73593 12.594 9.69143 12.6152C9.64693 12.6365 9.60771 12.6674 9.57659 12.7057C9.54547 12.7439 9.52323 12.7886 9.51147 12.8365C9.49971 12.8844 9.49873 12.9343 9.50859 12.9826C9.82398 14.4713 10.6407 15.8066 11.8223 16.7654C13.0039 17.7242 14.4787 18.2484 16.0004 18.2505C17.0788 18.2475 18.1399 17.9787 19.0897 17.4679C19.1335 17.4445 19.1716 17.4116 19.2012 17.3717C19.2308 17.3318 19.2511 17.2857 19.2607 17.237C19.2703 17.1882 19.2689 17.1379 19.2566 17.0897C19.2443 17.0416 19.2214 16.9968 19.1897 16.9585L15.7338 12.8227C15.6711 12.7478 15.5928 12.6877 15.5043 12.6464C15.4158 12.6052 15.3194 12.5839 15.2218 12.584L9.83392 12.5827Z" fill="url(#paint1_linear_267_63)"/>
<defs>
<linearGradient id="paint0_linear_267_63" x1="16" y1="0.250977" x2="16" y2="31.5834" gradientUnits="userSpaceOnUse">
<stop stop-color="#25544D"/>
<stop offset="1" stop-color="#0F6886"/>
</linearGradient>
<linearGradient id="paint1_linear_267_63" x1="16.0854" y1="4.91754" x2="16.0854" y2="18.2505" gradientUnits="userSpaceOnUse">
<stop stop-color="#25544D"/>
<stop offset="1" stop-color="#0F6886"/>
</linearGradient>
</defs>
</svg>
