<svg width="89" height="89" viewBox="0 0 89 89" fill="none" xmlns="http://www.w3.org/2000/svg">
<path fill-rule="evenodd" clip-rule="evenodd" d="M0 0H89V89H0V0Z" fill="#FBFDFF"/>
<path fill-rule="evenodd" clip-rule="evenodd" d="M73.7035 82.5906C75.0195 82.5906 76.0907 81.5204 76.0907 80.2035C76.0907 78.8876 75.0195 77.8174 73.7035 77.8174C72.3876 77.8174 71.3164 78.8876 71.3164 80.2035C71.3164 81.5204 72.3876 82.5906 73.7035 82.5906Z" fill="black"/>
<path fill-rule="evenodd" clip-rule="evenodd" d="M71.6899 80.2036C71.6899 79.0936 72.5935 78.1909 73.7035 78.1909C74.8135 78.1909 75.7171 79.0936 75.7171 80.2036C75.7171 81.3135 74.8135 82.2171 73.7035 82.2171C72.5935 82.2171 71.6899 81.3135 71.6899 80.2036Z" fill="#FBFDFF"/>
<path fill-rule="evenodd" clip-rule="evenodd" d="M73.125 80.3049H73.9754C74.3919 80.3049 74.4353 80.5537 74.4353 80.7666C74.4353 80.864 74.4459 81.2579 74.4977 81.4167H74.9271V81.359C74.819 81.2976 74.801 81.2436 74.7973 81.0995L74.7747 80.6295C74.7613 80.2688 74.6131 80.2038 74.4644 80.1423C74.6329 80.0449 74.8287 79.9032 74.8287 79.5199C74.8287 78.9709 74.4021 78.8227 73.9754 78.8227H72.775V81.4162H73.125V80.3049V80.3049ZM17.7495 17.1904C17.7606 17.3137 17.768 17.4379 17.7731 17.564H20.3633V21.7121H18.4578C18.4439 21.8428 18.4149 21.9628 18.3641 22.0648C18.1628 22.4675 18.6134 22.8165 18.7925 23.4186L20.3638 25.0642V26.2342H19.2187C19.2376 26.2822 19.2561 26.3298 19.2769 26.3792C19.3088 26.4558 19.3355 26.532 19.3605 26.6078H20.3638V29.2918C20.5296 29.5491 20.6555 29.8301 20.7373 30.1252V26.6078H21.8376L24.8859 29.7997V30.7559H20.8463C20.8504 30.8196 20.8537 30.8819 20.8537 30.9429C20.8537 30.9983 20.8541 31.062 20.8555 31.1294H24.8859V35.2775H22.3012C22.351 35.4101 22.3884 35.5361 22.4097 35.6511H24.8854V39.7992H24.3392C24.4011 39.9373 24.4247 40.055 24.4547 40.1727H24.8854V40.8699C25.0124 41.0057 25.1366 41.1696 25.259 41.3501V40.1727H29.4071V44.3213H27.4429C27.5076 44.4432 27.5662 44.5688 27.6221 44.6949H29.4071V46.9675C29.5327 47.1111 29.6564 47.2731 29.7806 47.4398V44.6949H33.9288V48.843H31.2074C31.3191 48.9487 31.4262 49.0739 31.5421 49.2165H33.9288V51.2906C34.0539 51.3728 34.1786 51.4554 34.3028 51.5385V49.2165H38.4509V53.3647H36.9632C37.0533 53.4224 37.1336 53.4727 37.1982 53.5096C37.6383 53.7613 38.0783 53.5369 38.3742 53.7377H38.4514V53.8047C38.5128 53.8698 38.5659 53.9607 38.6088 54.0905C38.6605 54.2465 38.7344 54.3329 38.8249 54.3809V53.7377H42.973V55.4835C43.1148 55.4881 43.239 55.4969 43.3465 55.5121V53.7373H47.4951V56.3012C47.617 56.2948 47.7412 56.2906 47.8687 56.2869V53.8675L50.4377 56.5584C50.7397 56.5529 51.1238 56.4711 51.502 56.4116L48.9491 53.7377H52.0173V56.3539C52.1507 56.3474 52.2767 56.352 52.3908 56.3719V53.7377H55.0683L52.5695 56.4199C53.0945 56.594 53.77 55.9674 54.354 55.7822L56.2586 53.7377H56.5389V54.9064C56.6543 54.8703 56.779 54.8449 56.9125 54.8316V53.7377H59.3517C59.6791 53.6874 59.9335 53.542 60.1787 53.3642H56.9125V53.0359L60.471 49.2161H61.0606V52.7529C61.1723 52.6942 61.2933 52.6411 61.4258 52.5968L61.4341 52.5931V49.2161H64.8573C64.9234 49.0923 64.9889 48.9672 65.0549 48.8425H61.4341V48.1813L64.6823 44.6939H65.5822V47.8646C65.7101 47.6421 65.8357 47.4398 65.9558 47.275V44.6939H66.9693L67.0385 44.3204H65.9553V43.3272L67.5676 41.5958C67.5829 41.1775 67.5621 40.7513 67.545 40.3431L65.9553 42.0492V40.1723H67.5381C67.5335 40.0458 67.5289 39.9206 67.5275 39.7987H65.9558V36.9134L67.642 38.68C67.6448 38.6726 67.6457 38.6648 67.6485 38.6578C67.763 38.3143 67.7676 37.9015 67.7089 37.4878L65.9558 35.6515V35.6502H67.0316C67.0154 35.6285 67.0002 35.6058 66.9845 35.5878C66.924 35.5153 66.8728 35.4073 66.8257 35.2766H65.9553V32.9883C65.8895 32.9514 65.8152 32.9321 65.7397 32.9324C65.6866 32.9324 65.6335 32.9301 65.5818 32.9255V35.2605L61.6373 31.1285H63.1097C62.9749 30.9958 62.8324 30.8711 62.6831 30.755H61.4332V30.1681C61.3098 30.1414 61.1851 30.1211 61.0597 30.1072V30.5241L60.6917 30.139L60.1011 30.755H59.4265C59.3273 30.8792 59.2183 31.0052 59.1047 31.1285H59.7442L57.1364 33.849C57.2726 33.867 57.9661 33.9445 58.4514 33.7363L60.6917 31.3995L61.0606 31.7855V34.41C61.2057 34.5551 61.3313 34.7185 61.4341 34.8962V32.1775L64.3938 35.2771H61.5948C61.628 35.3971 61.6451 35.5223 61.6433 35.6506H64.7502L65.5827 36.5224V39.7987H61.4346V37.7044C61.3713 37.8521 61.2587 37.9537 61.061 37.9842V39.7987H56.9129V37.48C56.7749 37.4901 56.646 37.485 56.5394 37.4518V39.7987H52.3913V35.6506H55.0776C55.0318 35.5283 54.9926 35.4036 54.9603 35.2771H52.3913V31.129H55.1417C55.1861 31.0103 55.2456 30.8838 55.3149 30.7554H52.3913V26.6073H56.5394V29.0309C56.653 28.8831 56.7776 28.7317 56.9129 28.5853V26.6073H61.061V27.244C61.1728 27.3253 61.291 27.419 61.4346 27.5021V26.6073H65.5827V29.3218C65.615 29.361 65.6423 29.4026 65.6575 29.4483C65.7304 29.6694 65.8209 29.922 65.9558 30.1358V26.6068H70.1039V30.755H67.304C67.4781 30.8468 67.6295 30.977 67.745 31.1285H70.1039V35.2766H69.5549C69.5729 35.3907 69.5881 35.5153 69.6011 35.6502H70.1044V39.7983H69.9132C69.9215 39.9216 69.9275 40.0462 69.9321 40.1718H70.1044V44.3204H69.409C69.4385 44.4497 69.4829 44.5748 69.5471 44.6939H70.1044V48.8421H67.7625C67.6841 48.9749 67.5932 49.1 67.491 49.2156H70.1044V53.3637H65.9562V50.9189C65.8274 51.1271 65.7406 51.3132 65.7406 51.4347C65.7406 51.606 65.6963 51.8484 65.5827 52.1198V53.3633H64.5503C64.3725 53.493 64.2077 53.6168 64.0525 53.7368H65.5827V57.8849H61.4346V55.7388C61.2966 55.8231 61.1709 55.926 61.061 56.0445V57.8849H57.2283C57.1278 57.9678 57.0335 58.0579 56.9462 58.1546C56.9111 58.1934 56.8769 58.2266 56.8423 58.2585H70.4774V17.1904H17.7495Z" fill="black"/>
<path fill-rule="evenodd" clip-rule="evenodd" d="M20.3637 23.8023L18.7241 22.0856H20.3637V23.8023ZM20.7372 26.2338V25.4548L21.4806 26.2338H20.7372ZM24.8854 28.5378L23.0417 26.6073H24.8854V28.5378ZM24.8854 26.2338H22.6852L20.7372 24.1934V22.0856H24.8854V26.2338V26.2338ZM24.8854 21.7121H20.7372V17.564H24.8854V21.7121ZM25.2589 30.1903L25.7987 30.7554H25.2589V30.1903ZM29.407 39.7987H25.2589V35.6506H29.407V39.7987ZM29.407 35.2771H25.2589V31.1289H26.1546L29.407 34.5346V35.2771V35.2771ZM29.407 33.2732L27.3593 31.1289H29.407V33.2732ZM29.407 30.7554H27.0028L25.2589 28.9288V26.6073H29.407V30.7554ZM29.407 26.2338H25.2589V22.0856H29.407V26.2338ZM29.407 21.7121H25.2589V17.564H29.407V21.7121ZM29.7806 34.9257L30.1162 35.2771H29.7806V34.9257ZM33.9287 44.3209H29.7806V40.1723H33.9287V44.3209ZM33.9287 39.7987H29.7806V35.6506H30.4727L33.9287 39.2701V39.7987ZM33.9287 38.0086L31.6769 35.6506H33.9287V38.0086ZM33.9287 35.2771H31.3204L29.7806 33.6647V31.1289H33.9287V35.2771V35.2771ZM33.9287 30.7554H29.7806V26.6073H33.9287V30.7554ZM33.9287 26.2338H29.7806V22.0856H33.9287V26.2338ZM33.9287 21.7121H29.7806V17.564H33.9287V21.7121ZM34.3022 39.6611L34.4338 39.7987H34.3022V39.6611ZM38.4503 48.8425H34.3022V44.6944H38.4503V48.8425ZM38.4503 44.3209H34.3022V40.1723H34.7898L38.4503 44.006V44.3209ZM38.4503 42.7445L35.9949 40.1723H38.4503V42.7445ZM38.4503 39.7987H35.638L34.3022 38.4002V35.6506H38.4503V39.7987ZM38.4503 35.2771H34.3022V31.1289H38.4503V35.2771ZM38.4503 30.7554H34.3022V26.6073H38.4503V30.7554ZM38.4503 26.2338H34.3022V22.0856H38.4503V26.2338ZM38.4503 21.7121H34.3022V17.564H38.4503V21.7121ZM42.972 53.3642H38.8239V49.216H42.972V53.3642ZM42.972 48.8425H38.8239V44.6944H39.1078L42.972 48.7414V48.8425ZM42.972 47.48L40.312 44.6944H42.972V47.48ZM42.972 44.3209H39.956L38.8239 43.1351V40.1723H42.972V44.3209ZM42.972 39.7987H38.8239V35.6506H42.972V39.7987ZM42.972 35.2771H38.8239V31.1289H42.972V35.2771ZM42.972 30.7554H38.8239V26.6073H42.972V30.7554ZM42.972 26.2338H38.8239V22.0856H42.972V26.2338ZM42.972 21.7121H38.8239V17.564H42.972V21.7121ZM43.3455 53.3642V49.216H43.4254L47.387 53.3642H43.3455ZM47.4941 52.2154L44.6301 49.216H47.4941V52.2154ZM47.4941 48.8425H44.2736L43.3455 47.8706V44.6944H47.4941V48.8425V48.8425ZM47.4941 44.3209H43.3455V40.1723H47.4941V44.3209ZM47.4941 39.7987H43.3455V35.6506H47.4941V39.7987ZM47.4941 35.2771H43.3455V31.1289H47.4941V35.2771ZM47.4941 30.7554H43.3455V26.6073H47.4941V30.7554ZM47.4941 26.2338H43.3455V22.0856H47.4941V26.2338ZM47.4941 21.7121H43.3455V17.564H47.4941V21.7121ZM52.0158 53.3642H48.5907L47.8677 52.6069V49.216H52.0158V53.3642V53.3642ZM52.0158 48.8425H47.8677V44.6944H52.0158V48.8425ZM52.0158 44.3209H47.8677V40.1723H52.0158V44.3209ZM52.0158 39.7987H47.8677V35.6506H52.0158V39.7987ZM52.0158 35.2771H47.8677V31.1289H52.0158V35.2771ZM52.0158 30.7554H47.8677V26.6073H52.0158V30.7554ZM52.0158 26.2338H47.8677V22.0856H52.0158V26.2338ZM52.0158 21.7121H47.8677V17.564H52.0158V21.7121ZM65.5808 44.3209H65.029L65.5808 43.7285V44.3209ZM61.4326 40.1723H65.5808V42.45L63.8387 44.3209H61.4326V40.1723V40.1723ZM61.4326 44.6944H63.4905L61.4326 46.9037V44.6944ZM61.0591 48.8425H60.8167L61.0591 48.5821V48.8425ZM56.911 40.1723H61.0591V44.3209H56.911V40.1723ZM56.911 44.6944H61.0591V47.304L59.6264 48.8425H56.911V44.6944V44.6944ZM56.911 49.216H59.2792L56.911 51.7574V49.216ZM56.5374 52.1586L55.415 53.3642H52.3893V49.216H56.5374V52.1586V52.1586ZM56.5374 48.8425H52.3893V44.6944H56.5374V48.8425ZM56.5374 40.1723V44.3209H52.3893V40.1723H56.5374ZM56.5374 26.2338H52.3893V22.0856H56.5374V26.2338ZM56.5374 21.7121H52.3893V17.564H56.5374V21.7121ZM61.0591 26.2338H56.911V22.0856H61.0591V26.2338ZM61.0591 21.7121H56.911V17.564H61.0591V21.7121ZM65.5808 26.2338H61.4326V22.0856H65.5808V26.2338ZM65.5808 21.7121H61.4326V17.564H65.5808V21.7121ZM70.1024 57.8858H65.9543V53.7377H70.1024V57.8858ZM70.1024 26.2338H65.9543V22.0856H70.1024V26.2338ZM70.1024 21.7121H65.9543V17.564H70.1024V21.7121Z" fill="#FBFDFF"/>
<path fill-rule="evenodd" clip-rule="evenodd" d="M41.051 57.8858H38.8236V57.8641C38.7003 57.92 38.5734 57.9334 38.4501 57.8757V57.8854H34.3019V54.7202C34.1842 54.5679 34.0586 54.4192 33.9279 54.2793V57.8858H29.7798V53.7377H33.3199C33.1857 53.6415 33.0387 53.5648 32.8831 53.5096C32.7881 53.4738 32.6986 53.425 32.6171 53.3646H29.7798V50.791C29.7632 50.7845 29.7466 50.7776 29.73 50.7721C29.617 50.7327 29.5086 50.6816 29.4063 50.6197V53.3646H25.2582V49.2165H28.1795C28.1166 49.0955 28.0611 48.9707 28.0133 48.843H25.2582V46.7938C25.1529 46.6973 25.0841 46.5108 25.0841 46.2084C25.0841 45.4285 25.0319 44.8518 24.7309 44.3208H20.7365V40.1723H22.1198C22.1037 40.0231 22.0741 39.892 22.0067 39.7987H20.7365V36.2601C20.6275 36.0181 20.501 35.8085 20.363 35.6589V39.7987H16.2148V35.6506H20.3551C20.3054 35.596 20.2497 35.5472 20.1889 35.5052C20.1159 35.4567 20.0633 35.3768 20.0222 35.2771H16.2148V31.1289H18.6347C18.5782 31.0082 18.5155 30.8905 18.4468 30.7762L18.4357 30.7554H16.2153V26.6073H17.2902C17.2851 26.4932 17.3451 26.3829 17.4015 26.2337H16.2153V22.0856H16.7726L16.732 21.7121H16.2153V18.8476C16.2125 18.8416 16.2102 18.8346 16.207 18.8291C15.9992 18.4135 15.9087 17.5949 16.1248 17.1904H15.8413V58.2594H41.3806C41.2584 58.1463 41.148 58.0211 41.051 57.8858V57.8858Z" fill="black"/>
<path fill-rule="evenodd" clip-rule="evenodd" d="M20.3639 57.8859H16.2153V53.7378H20.3639V57.8859ZM20.3639 53.3643H16.2153V49.2161H20.3639V53.3643ZM20.3639 48.8426H16.2153V44.6945H20.3639V48.8426ZM20.3639 44.3209H16.2153V40.1724H20.3639V44.3209ZM24.8856 57.8859H20.7375V53.7378H24.8856V57.8859ZM24.8856 53.3643H20.7375V49.2161H24.8856V53.3643ZM24.8856 48.8426H20.7375V44.6945H24.8856V48.8426ZM29.4072 57.8859H25.2591V53.7378H29.4072V57.8859ZM42.4292 58.2594C42.245 57.9764 42.1448 58.1177 42.0109 58.2594H42.4292ZM54.5384 57.9067L54.5375 57.8859H53.825C53.8135 57.9192 53.8015 57.9533 53.7918 57.9898C53.7631 58.0854 53.7331 58.1745 53.7017 58.2594H54.5421C54.5393 58.1419 54.5381 58.0243 54.5384 57.9067V57.9067Z" fill="#FBFDFF"/>
<path fill-rule="evenodd" clip-rule="evenodd" d="M16.6341 81.3003C17.0667 81.1281 17.4536 80.8811 17.727 80.5851C17.7948 79.7466 17.8179 79.1297 17.8179 78.7354V68.2289C17.8179 66.2061 17.7953 66.033 15.9512 65.9591V64.9696C18.3655 65.019 20.1667 65.0435 21.3289 65.0435C21.8746 65.0435 23.9219 65.019 27.4384 64.9696L27.7117 65.3159C27.6232 66.4443 27.5548 67.5741 27.5067 68.705H26.6645C26.6415 67.9639 26.5736 67.2962 26.4595 66.7283C25.9632 66.4314 24.7636 66.3326 22.8304 66.3326C22.3299 66.3326 21.7841 66.358 21.1927 66.358C21.1017 67.2722 21.0791 68.1375 21.0791 68.928V72.4361H22.057C23.5807 72.4361 24.5365 72.4117 24.9455 72.2145C25.3777 72.0169 25.4456 71.4236 25.4687 70.3362H26.3233C26.3007 71.5473 26.2781 72.7081 26.2781 73.8172C26.2781 74.5051 26.2781 75.1691 26.3007 75.8077H25.4687C25.423 74.7263 25.2868 74.1367 24.8772 73.94C24.4224 73.7188 23.1711 73.6694 21.0791 73.6449V80.4023H22.1023C24.536 80.4023 25.9853 80.2545 26.4291 80.1174C26.7703 79.9946 26.9296 79.1805 27.1346 77.6508H28.0225C27.8858 79.1801 27.7948 80.5366 27.7718 81.7694C27.1115 81.8433 26.5653 81.8932 26.1557 81.8932C24.494 81.8932 22.4449 81.7939 20.0074 81.7939C18.7529 81.7939 17.6129 81.8433 16.6341 81.8932V81.3003ZM29.9617 80.8649C30.8699 80.8649 31.4194 80.8155 31.563 80.6433C31.8262 80.3718 31.8977 78.5203 31.8977 75.1141V68.3748C31.8977 67.215 31.8737 66.5233 31.6585 66.3017C31.4438 66.0791 30.8699 65.9563 29.964 65.9291L29.9617 64.9696C30.9655 65.0435 32.0409 65.068 33.1859 65.068C35.0707 65.068 36.7694 64.9696 38.2049 64.9696C41.792 64.9696 43.3933 65.8326 43.3933 68.4986C43.3933 70.3995 42.1743 71.9786 39.8075 72.9911L43.4884 78.7673C44.325 80.0749 44.7313 80.8894 45.6151 80.8894H45.7351V81.8922C44.6833 81.8438 43.9182 81.8193 43.4648 81.8193C42.9389 81.8193 42.2934 81.8438 41.5524 81.9167L37.2953 75.1885C36.9026 74.5476 36.4628 73.9369 35.9794 73.3614L36.1465 72.8923H36.2185C38.5396 72.8923 39.9991 71.4601 39.9991 69.313C39.9991 67.5114 38.8028 66.3022 36.8645 66.3022C36.3621 66.3022 35.8833 66.3266 35.381 66.4005C35.3028 67.1634 35.2629 67.9298 35.2614 68.6967V78.7428C35.2614 80.5205 35.2854 80.8658 36.8405 80.8658H37.2232V81.8932C36.0289 81.8461 34.8337 81.8218 33.6384 81.8202C32.6125 81.8202 31.3949 81.8447 29.9608 81.8932V80.8649H29.9617V80.8649ZM47.2293 80.8649C48.2049 80.8404 48.7659 80.8155 48.9607 80.5934C49.181 80.3464 49.3513 78.8158 49.3998 76.0016L49.4728 70.1261V69.6076C49.4728 67.8554 49.3509 66.8184 49.205 66.4476C49.0337 66.0528 48.4736 65.9291 47.498 65.9291H47.2293V64.9678C48.3023 65.0172 49.3024 65.0417 50.2766 65.0417C51.2509 65.0417 52.2011 65.0172 53.0774 64.9678C55.7568 71.1632 57.6568 75.1626 58.6551 76.9643C60.2873 74.0263 62.1873 70.0278 64.2826 64.9678C66.1029 65.0667 67.9272 65.0667 69.7475 64.9678V65.9291C69.5527 65.9046 69.3823 65.9046 69.2119 65.9046C67.7482 65.9046 67.7238 66.6207 67.7238 69.0402V78.8896C67.7238 80.4452 67.8221 80.8889 69.162 80.8889C69.3333 80.8889 69.5037 80.8644 69.6986 80.8644V81.8918C68.6505 81.8433 67.3332 81.8433 65.7711 81.8433C64.4779 81.8433 63.3074 81.8433 62.2602 81.8918V80.8889H62.7958C64.3061 80.8889 64.3306 80.5435 64.3306 78.8398V68.3979C61.4563 74.2489 59.2401 78.7659 57.8997 82.064H57.0473C55.1718 77.6559 53.0525 73.0641 50.7868 68.2248H50.6649L50.7868 78.2728C50.8113 80.3459 50.7868 80.9134 52.1027 80.9134C52.2731 80.9134 52.468 80.9134 52.6873 80.8889V81.8918C51.7855 81.8433 50.8847 81.7934 49.9594 81.7934C49.0577 81.7934 48.1559 81.8188 47.2288 81.8918V80.8649H47.2293V80.8649Z" fill="black"/>
<path fill-rule="evenodd" clip-rule="evenodd" d="M73.1255 79.1223H74.0009C74.174 79.1223 74.4672 79.1546 74.4672 79.5559C74.4672 79.94 74.1957 80.0051 73.9385 80.0051H73.125V79.1223H73.1255V79.1223Z" fill="#FBFDFF"/>
<path fill-rule="evenodd" clip-rule="evenodd" d="M15.9581 10.7813C15.9581 10.7813 16.4558 9.45384 16.207 9.20451C15.9581 8.95564 15.543 7.71129 16.0412 7.2962C16.539 6.88158 16.6216 4.39242 16.9536 6.63224C17.2856 8.87253 16.8705 9.61914 17.0367 10.9466C17.2025 12.274 17.0367 12.274 17.2856 13.3526C17.5344 14.4312 17.2856 15.2609 17.5344 16.0907C17.7838 16.9204 17.7838 17.5012 17.7838 18.3309C17.7838 19.1607 17.8664 19.3264 18.1153 19.9904C18.3641 20.6539 18.6135 21.5667 18.3641 22.0644C18.1153 22.5622 18.8619 22.9773 18.8619 23.8896C18.8619 24.802 18.8619 25.3828 19.277 26.3788C19.6916 27.3743 19.4427 28.2871 20.0236 28.8679C20.604 29.4488 20.8533 30.2785 20.8533 30.9425C20.8533 31.606 20.9364 33.1827 21.351 33.6805C21.7657 34.1782 22.4292 35.2568 22.4292 35.8377C22.4292 36.4185 22.7611 38.161 23.7566 39.0734C24.7521 39.9858 24.1712 40.152 24.8352 40.8155C25.4992 41.4795 26.0796 42.9727 26.6609 43.3878C27.2412 43.8024 27.4901 44.3837 27.7394 44.9645C27.9883 45.5454 28.5692 46.2089 29.15 46.7066C29.7304 47.2044 30.2286 48.283 30.8921 48.6149C31.5556 48.9469 31.8049 49.9424 33.3812 50.9379C34.9576 51.9333 36.617 53.1781 37.1979 53.5097C37.7787 53.8412 38.3596 53.3439 38.6084 54.0905C38.8573 54.8371 39.6044 54.0074 40.2679 54.8371C40.9318 55.6668 40.7656 55.5837 42.1762 55.5011C43.5867 55.4184 43.8356 55.5842 44.2507 55.9988C44.6658 56.4134 46.0754 56.4134 47.0718 56.3308C48.0664 56.2477 49.561 56.2477 50.0587 56.4966C50.5555 56.7454 51.883 56.1646 52.5479 56.4134C53.2118 56.6623 54.1233 55.5837 54.7881 55.7495C55.4521 55.9152 55.9498 54.6709 57.3599 54.8367C58.7701 55.0024 58.1066 53.7581 59.102 53.7581C60.0975 53.7581 60.4295 52.9284 61.425 52.5964C62.4204 52.2644 63.5821 51.2689 64.2456 50.2734C64.9091 49.278 65.6562 47.4528 66.2366 46.9546C66.817 46.4564 66.9832 44.0503 67.3983 42.7229C67.8129 41.3954 67.3152 39.6533 67.6471 38.6579C67.9791 37.6619 67.3983 36.0856 66.9832 35.5879C66.5681 35.0901 66.5686 32.9329 65.7388 32.9329C64.9091 32.9329 64.2456 32.3521 64.1625 31.7713C64.0794 31.1904 63.2497 31.2735 63.2497 31.2735C63.2497 31.2735 62.5857 30.5269 61.8391 30.278C61.0925 30.0292 60.0139 29.9465 59.5988 30.5274C59.1842 31.1078 58.4371 31.8548 58.0225 32.0206C57.6079 32.1863 57.1097 32.9334 57.1097 33.8462C57.1097 33.8462 58.1883 34.012 58.686 33.5969C59.1838 33.1823 60.1792 33.7631 60.677 34.0951C61.1747 34.4271 61.8387 35.1737 61.5898 36.0034C61.3409 36.8331 61.8387 37.9944 60.9258 37.9944C60.013 37.9944 60.013 38.8241 58.9349 38.741C57.8563 38.6583 57.1928 39.073 57.9394 37.9113C58.686 36.7496 57.0266 37.7455 56.4462 37.4135C55.8653 37.0811 55.2019 36.2514 54.953 35.2559L54.7041 34.2604C54.7041 34.2604 55.6996 32.0201 55.2019 31.7713C54.7041 31.5224 55.6165 30.1949 56.0316 29.6972C56.4462 29.1995 57.1102 28.0378 58.1056 27.7889C59.1011 27.54 59.5162 27.4569 60.2628 27.1249C61.0094 26.7929 61.0925 27.6227 62.088 27.7058C63.0835 27.7889 63.5812 28.2035 63.9132 28.5355C64.2452 28.8675 65.4895 28.9501 65.6553 29.4483C65.821 29.9465 66.0699 30.61 66.7339 30.61C67.3978 30.61 67.9782 31.1909 67.9782 31.7717C67.9782 32.3526 67.9782 32.7672 68.3102 33.0992C68.6422 33.4311 68.6422 34.4266 69.0568 34.4266C69.4714 34.4266 69.6376 35.2559 69.6376 36.6669C69.6376 38.0775 69.8034 38.5752 69.8865 39.4876C69.9696 40.3999 69.9696 41.479 69.7208 42.2256C69.4719 42.9722 69.1399 43.9677 69.555 44.7148C69.9696 45.4614 69.3061 46.1253 68.8084 46.6231C68.3106 47.1208 67.9787 47.4528 67.9787 48.1163C67.9787 48.7798 67.3978 49.3606 67.0658 49.6095C66.7339 49.8584 65.7384 51.0201 65.7384 51.4347C65.7384 51.8493 65.4895 52.679 64.5767 53.343C63.6639 54.0069 63.0835 54.5047 62.5026 55.2513C62.5026 55.2513 61.1752 55.6659 60.9263 56.2468C60.6774 56.8276 59.8477 56.9934 59.1842 57.2422C58.5207 57.4911 57.7737 57.2422 56.9439 58.1551C56.1142 59.0679 55.4507 57.9893 55.0356 58.5697C54.6205 59.1501 54.5379 58.9843 54.5379 57.9057C54.5379 56.8272 54.0402 57.1591 53.7913 57.9888C53.5424 58.8186 53.2104 59.2332 52.4638 59.2332C51.7163 59.2332 50.3057 57.8226 49.8911 58.6523C49.4765 59.4821 48.5646 59.6478 48.2326 59.3989C47.8997 59.1501 46.822 58.6523 46.0745 59.1501C45.3279 59.6478 44.5813 58.7355 44.3329 58.6523C44.084 58.5692 43.2543 60.0629 42.5903 58.5692C41.9264 57.076 42.1757 59.8136 40.682 57.3249C39.1883 54.8362 39.6039 56.5783 39.6039 56.8271C39.6039 57.076 38.6911 58.6523 38.1102 57.4911C37.5294 56.3299 36.617 57.0765 36.7828 55.8317C36.9485 54.5869 36.2019 54.5042 36.1188 55.2508C36.0357 55.9974 35.2891 56.3294 34.8745 55.5828C34.4598 54.8362 33.6301 53.7576 32.8835 53.5087C32.1369 53.2599 30.7263 51.1027 29.7304 50.7707C28.7345 50.4387 27.9052 48.9455 27.9052 48.3647C27.9052 47.7838 27.9052 47.0372 27.076 47.0372C26.2462 47.0372 26.4951 45.6267 26.1631 46.2906C25.8316 46.9546 25.085 47.2034 25.085 46.2075C25.085 45.2116 25.0019 44.5476 24.421 43.8841C23.8402 43.2202 23.4256 41.8096 22.5958 41.4781C21.7661 41.1461 22.5127 39.6524 21.683 39.6524C20.8533 39.6524 21.1022 38.8227 21.1022 37.9103C21.1022 36.998 20.6871 35.8363 20.1893 35.5043C19.6916 35.1723 20.1067 33.4302 19.1939 33.1814C18.281 32.932 19.4427 32.4347 18.4473 30.7753C17.4518 29.1159 19.0281 27.9546 17.8664 27.2076C16.7047 26.4605 17.7007 26.5436 17.4518 25.3824C17.2029 24.2207 16.954 23.8061 16.7883 22.2297C16.6221 20.6529 16.4563 19.326 16.2074 18.8282C15.9586 18.3305 15.8755 17.2519 16.2905 17.0026C16.7052 16.7537 16.2905 16.256 15.9586 14.9285C15.6266 13.601 16.2074 13.1028 15.9586 12.3562C15.7092 11.6105 15.5435 11.6105 15.9581 10.7813V10.7813Z" fill="#929496"/>
</svg>
