<svg width="100" height="100" viewBox="0 0 100 100" fill="none" xmlns="http://www.w3.org/2000/svg">
<path fill-rule="evenodd" clip-rule="evenodd" d="M50 100C77.6142 100 100 77.6142 100 50C100 22.3858 77.6142 0 50 0C22.3858 0 0 22.3858 0 50C0 77.6142 22.3858 100 50 100ZM44.6892 52.5051C44.53 52.7141 44.3311 52.8897 44.104 53.0219C43.877 53.1543 43.6261 53.2406 43.3657 53.2759C43.1053 53.3113 42.8405 53.2949 42.5864 53.2279C42.3323 53.1608 42.0939 53.0444 41.8848 52.8851C41.6758 52.7259 41.5002 52.527 41.368 52.2999C39.6892 49.4045 38.8761 46.0883 39.0252 42.7447C39.1742 39.4011 40.2792 36.1705 42.209 33.4359C44.1388 30.7014 46.8124 28.5777 49.9128 27.3169C53.0131 26.0561 56.41 25.7109 59.7006 26.3225C62.9912 26.934 66.0373 28.4765 68.4776 30.7671C70.9179 33.0576 72.6501 36 73.4686 39.2453C74.2871 42.4906 74.1575 45.9025 73.0954 49.0764C72.0332 52.2503 70.083 55.053 67.476 57.1519C67.0631 57.485 66.5347 57.6404 66.0072 57.584C65.4796 57.5275 64.9961 57.2638 64.663 56.8509C64.3299 56.438 64.1745 55.9096 64.2309 55.3821C64.2874 54.8545 64.5511 54.371 64.964 54.0379C67.5524 51.9549 69.2802 48.9894 69.8158 45.7104C70.3514 42.4315 69.6571 39.0702 67.866 36.2719C67.7695 36.1218 67.6336 36.0011 67.4731 35.9231C67.3126 35.8451 67.1337 35.8128 66.956 35.8298C66.7784 35.8467 66.6088 35.9122 66.4659 36.0191C66.3231 36.126 66.2124 36.2702 66.146 36.4359C65.9615 36.898 65.6563 37.3022 65.2623 37.6061C64.8682 37.9101 64.3999 38.1027 63.906 38.1639L60.946 38.5339C60.8355 38.5484 60.7299 38.589 60.6381 38.6523C60.5464 38.7156 60.4709 38.7997 60.418 38.8979C60.3673 38.9966 60.3408 39.1059 60.3408 39.2169C60.3408 39.3279 60.3673 39.4372 60.418 39.5359L61.178 41.0539C61.2355 41.1696 61.3242 41.2669 61.4342 41.3347C61.5441 41.4026 61.6708 41.4383 61.8 41.4379H62.324C62.4416 41.4386 62.5571 41.4691 62.6598 41.5265C62.7624 41.5839 62.8488 41.6664 62.9109 41.7663C62.973 41.8661 63.0088 41.9801 63.015 42.0976C63.0211 42.215 62.9974 42.3321 62.946 42.4379L60.746 46.8379C60.6978 46.9349 60.6725 47.0416 60.672 47.1499V50.5499C60.6722 50.9578 60.5828 51.3607 60.41 51.7302C60.2372 52.0997 59.9852 52.4266 59.672 52.6879L57.034 54.8879C56.8924 55.0061 56.7096 55.0633 56.5258 55.0468C56.342 55.0303 56.1723 54.9415 56.054 54.7999L53.926 52.2319C53.6458 51.8955 53.4489 51.4978 53.3513 51.0711C53.2536 50.6444 53.258 50.2006 53.364 49.7759L53.656 48.6139C53.6955 48.4519 53.6764 48.2811 53.602 48.1319L52.518 45.9639C52.4599 45.8489 52.3709 45.7523 52.2611 45.6848C52.1513 45.6174 52.0249 45.5817 51.896 45.5819H49.524C48.9259 45.5818 48.3438 45.3889 47.8639 45.0319C47.384 44.6749 47.032 44.1727 46.86 43.5999L45.946 40.5639C45.9126 40.4523 45.9078 40.3342 45.9319 40.2203C45.956 40.1064 46.0083 40.0004 46.084 39.9119L48.484 37.0959C48.8054 36.7185 49.2219 36.434 49.6904 36.2719C50.1588 36.1098 50.6621 36.0759 51.148 36.1739L52.948 36.5359C52.9927 36.5449 53.0384 36.549 53.084 36.5479H57.884C58.0681 36.5479 58.2446 36.4748 58.3747 36.3446C58.5049 36.2145 58.578 36.038 58.578 35.8539V34.2539C58.5783 33.6978 58.4119 33.1544 58.1003 32.6938C57.7887 32.2332 57.3462 31.8766 56.83 31.6699C56.7849 31.6428 56.72 31.62 56.646 31.594C56.3924 31.5049 56.0325 31.3785 56 30.9139C55.9916 30.7926 55.9587 30.6743 55.9033 30.5661C55.848 30.4579 55.7712 30.362 55.6778 30.2842C55.5843 30.2065 55.4761 30.1485 55.3596 30.1137C55.2431 30.0789 55.1208 30.0681 55 30.0819C52.7681 30.3323 50.6339 31.1352 48.7906 32.4181C46.9472 33.701 45.4528 35.4234 44.4428 37.4293C43.4327 39.4352 42.9387 41.6613 43.0056 43.9061C43.0726 46.151 43.6982 48.3437 44.826 50.2859C44.9584 50.5129 45.0447 50.7638 45.08 51.0242C45.1154 51.2846 45.099 51.5494 45.032 51.8035C44.9649 52.0576 44.8485 52.296 44.6892 52.5051ZM32 54.1139H28C26.8954 54.1139 26 55.0093 26 56.1139V70.1139C26 71.2185 26.8954 72.1139 28 72.1139H32C33.1046 72.1139 34 71.2185 34 70.1139V56.1139C34 55.0093 33.1046 54.1139 32 54.1139ZM66.696 60.2779H66.726C67.9809 59.9033 69.3199 59.9182 70.5661 60.3206C71.8124 60.723 72.9072 61.4941 73.706 62.5319C73.8178 62.6438 73.9014 62.7806 73.9501 62.9312C73.9987 63.0817 74.0109 63.2416 73.9857 63.3978C73.9606 63.554 73.8987 63.7019 73.8052 63.8296C73.7117 63.9572 73.5893 64.0608 73.448 64.1319C69.3825 66.1656 66.195 67.8601 63.6345 69.2214L63.626 69.2259C57.446 72.5139 54.596 73.9999 51.348 73.9999C48.688 73.9999 45.76 72.9999 40.512 71.1819C39.36 70.7819 38.09 70.3419 36.678 69.8619C36.4801 69.7946 36.3082 69.6669 36.1866 69.4969C36.065 69.3268 35.9997 69.1229 36 68.9139V57.1139C36 56.8487 36.1054 56.5943 36.2929 56.4068C36.4804 56.2192 36.7348 56.1139 37 56.1139H41C43.9419 56.3053 46.7432 57.4425 48.986 59.3559C49.3458 59.6413 49.7285 59.8969 50.13 60.1199L57.5 60.1059C58.163 60.1059 58.7989 60.3693 59.2678 60.8381C59.7366 61.307 60 61.9428 60 62.6059C60 63.2689 59.7366 63.9048 59.2678 64.3736C58.7989 64.8425 58.163 65.1059 57.5 65.1059H47C46.7348 65.1059 46.4804 65.2112 46.2929 65.3988C46.1054 65.5863 46 65.8407 46 66.1059C46 66.3711 46.1054 66.6255 46.2929 66.813C46.4804 67.0005 46.7348 67.1059 47 67.1059H57.502C58.0997 67.1057 58.6915 66.9865 59.2426 66.7551C59.7938 66.5237 60.2933 66.1849 60.712 65.7583C61.1308 65.3317 61.4603 64.826 61.6815 64.2707C61.9026 63.7154 62.0109 63.1215 62 62.5239C61.9967 62.3092 62.0626 62.0991 62.188 61.9248C62.3133 61.7505 62.4914 61.6211 62.696 61.5559L66.696 60.2779Z" fill="url(#paint0_linear_184_148)"/>
<defs>
<linearGradient id="paint0_linear_184_148" x1="50" y1="16" x2="50" y2="78.5" gradientUnits="userSpaceOnUse">
<stop stop-color="#25544C"/>
<stop offset="1" stop-color="#0A4256"/>
</linearGradient>
</defs>
</svg>
