<svg width="120" height="59" viewBox="0 0 120 59" fill="none" xmlns="http://www.w3.org/2000/svg">
<path d="M0.00919038 32.8857H6.53396V34.2554H1.58984V36.627H6.15718V37.9232H1.58984V40.5798H6.61667V41.9494H0V32.8857H0.00919038Z" fill="#003362"/>
<path d="M9.04319 38.9342C9.04319 39.2835 9.09833 39.5777 9.21779 39.8259C9.33726 40.0741 9.50268 40.2763 9.71404 40.4326C9.92541 40.5889 10.1735 40.6992 10.44 40.7727C10.7157 40.8463 11.0098 40.883 11.3315 40.883C11.6807 40.883 11.9747 40.8463 12.2229 40.7635C12.471 40.6808 12.664 40.5797 12.8202 40.451C12.9764 40.3223 13.0867 40.1752 13.151 40.0097C13.2154 39.8443 13.2521 39.6788 13.2521 39.5042C13.2521 39.1549 13.1694 38.8975 13.0132 38.732C12.857 38.5665 12.6824 38.447 12.4986 38.3827C12.1769 38.2632 11.8001 38.1529 11.3774 38.0426C10.9455 37.9323 10.4217 37.8036 9.79675 37.6289C9.41078 37.5278 9.07995 37.3899 8.82263 37.2245C8.56532 37.059 8.36314 36.8751 8.20692 36.6729C8.05069 36.4707 7.9496 36.2501 7.88527 36.0295C7.82094 35.7996 7.79337 35.5698 7.79337 35.3308C7.79337 34.8712 7.88527 34.4759 8.07826 34.145C8.27124 33.8141 8.51937 33.5291 8.83182 33.3085C9.14427 33.0879 9.50268 32.9224 9.89784 32.8213C10.293 32.711 10.6974 32.665 11.1017 32.665C11.5796 32.665 12.0207 32.7294 12.4434 32.8489C12.8661 32.9684 13.2337 33.1522 13.5462 33.4004C13.8678 33.6486 14.116 33.952 14.2998 34.3105C14.4836 34.669 14.5755 35.0918 14.5755 35.5606H12.9856C12.9397 34.9723 12.7467 34.5679 12.3883 34.3197C12.0299 34.0807 11.5796 33.9612 11.0282 33.9612C10.8444 33.9612 10.6514 33.9795 10.4584 34.0163C10.2654 34.0531 10.0816 34.1174 9.92541 34.2094C9.75999 34.3013 9.63133 34.4208 9.52106 34.5679C9.41078 34.7241 9.36483 34.908 9.36483 35.1378C9.36483 35.4595 9.46592 35.7077 9.6589 35.8916C9.86108 36.0754 10.1184 36.2133 10.44 36.3052C10.4768 36.3144 10.6055 36.3512 10.8444 36.4155C11.0741 36.4799 11.3406 36.5534 11.6255 36.627C11.9104 36.7005 12.1953 36.774 12.471 36.8476C12.7467 36.9211 12.9397 36.9763 13.0591 37.0038C13.3532 37.0958 13.6105 37.2245 13.8311 37.3807C14.0516 37.5462 14.2354 37.73 14.3825 37.9323C14.5295 38.1437 14.6398 38.3643 14.7133 38.6033C14.7868 38.8423 14.8236 39.0813 14.8236 39.3111C14.8236 39.8167 14.7225 40.2487 14.5111 40.6164C14.2998 40.9749 14.0333 41.2691 13.6932 41.4989C13.3532 41.7287 12.9672 41.8942 12.5353 42.0045C12.1034 42.1148 11.6623 42.1608 11.212 42.1608C10.6974 42.1608 10.2103 42.0964 9.7508 41.9677C9.29131 41.839 8.89615 41.646 8.55613 41.3794C8.2161 41.1128 7.9496 40.7819 7.74742 40.3683C7.54525 39.9546 7.43497 39.4766 7.42578 38.9159H9.04319V38.9342Z" fill="#003362"/>
<path d="M24.141 41.9494H23.1301L22.8912 40.8831C22.4684 41.3703 22.0457 41.7012 21.623 41.8851C21.2003 42.0689 20.7132 42.1608 20.1618 42.1608C19.4818 42.1608 18.8752 42.0321 18.3422 41.784C17.8 41.5358 17.3497 41.1956 16.9729 40.7636C16.5962 40.3316 16.3113 39.826 16.1183 39.256C15.9161 38.6769 15.8242 38.0702 15.8242 37.4176C15.8242 36.7741 15.9253 36.1674 16.1183 35.5883C16.3205 35.0092 16.6054 34.5128 16.9729 34.0807C17.3497 33.6487 17.8 33.3086 18.3422 33.0512C18.8752 32.7938 19.491 32.6743 20.1618 32.6743C20.6489 32.6743 21.1175 32.7387 21.5678 32.8674C22.009 32.996 22.4041 33.1891 22.7533 33.4557C23.1025 33.7131 23.3874 34.0348 23.6172 34.4301C23.8469 34.8161 23.994 35.2666 24.0491 35.7721H22.496C22.4501 35.478 22.3582 35.2114 22.2203 34.9908C22.0825 34.7702 21.9079 34.5771 21.6965 34.4301C21.4851 34.2738 21.2462 34.1635 20.9889 34.0899C20.7224 34.0164 20.4467 33.9796 20.1618 33.9796C19.6747 33.9796 19.2612 34.0807 18.912 34.2738C18.5628 34.4668 18.2779 34.7334 18.0573 35.0551C17.8368 35.3769 17.6714 35.7538 17.5703 36.1674C17.46 36.5811 17.4141 37.0039 17.4141 37.436C17.4141 37.868 17.4692 38.2909 17.5703 38.7045C17.6806 39.1182 17.8368 39.4859 18.0573 39.8168C18.2779 40.1385 18.5628 40.4051 18.912 40.5981C19.2612 40.7912 19.6839 40.8923 20.1618 40.8923C20.5662 40.9015 20.9246 40.8463 21.237 40.736C21.5495 40.6257 21.816 40.4603 22.0273 40.2396C22.2387 40.0282 22.4041 39.7616 22.5144 39.4491C22.6247 39.1366 22.6798 38.7872 22.689 38.4104H20.2813V37.2062H24.141V41.9494Z" fill="#003362"/>
<path d="M34.1122 32.8857V33.9061H29.3611V36.7925H33.5241V37.8037H29.3611V41.9586H28.1572V32.8857H34.1122Z" fill="#003362"/>
<path d="M39.6908 41.9495V40.9108H39.6632C39.4335 41.3152 39.1394 41.6186 38.7902 41.8024C38.4318 41.9955 38.0183 42.0874 37.5312 42.0874C37.0993 42.0874 36.7409 42.0322 36.456 41.9127C36.1711 41.8024 35.9322 41.637 35.7576 41.4255C35.583 41.2141 35.4543 40.9659 35.3808 40.6718C35.3073 40.3776 35.2705 40.0559 35.2705 39.6974V35.377H36.3457V39.8261C36.3457 40.2305 36.4652 40.5523 36.7041 40.7913C36.9431 41.0303 37.2647 41.1498 37.6782 41.1498C38.0091 41.1498 38.294 41.0946 38.5329 40.9935C38.7718 40.8924 38.974 40.7453 39.1394 40.5615C39.2956 40.3776 39.4243 40.157 39.4978 39.9088C39.5805 39.6606 39.6173 39.3848 39.6173 39.0907V35.3861H40.6925V41.9495H39.6908Z" fill="#003362"/>
<path d="M43.155 40.4879C43.2561 40.6533 43.394 40.782 43.5594 40.8831C43.7248 40.9843 43.9086 41.0486 44.12 41.0946C44.3313 41.1405 44.5427 41.1589 44.7633 41.1589C44.9287 41.1589 45.1125 41.1497 45.2963 41.1221C45.4801 41.0946 45.6547 41.0486 45.8109 40.9843C45.9671 40.9199 46.0958 40.8188 46.1969 40.6901C46.298 40.5614 46.3531 40.3959 46.3531 40.1845C46.3531 39.9087 46.2428 39.6973 46.0315 39.5502C45.8201 39.4032 45.5536 39.2929 45.2411 39.2009C44.9195 39.109 44.5795 39.0355 44.2027 38.9619C43.8259 38.8884 43.4859 38.7873 43.1642 38.6586C42.8426 38.5299 42.5853 38.346 42.3739 38.107C42.1625 37.868 42.0523 37.5371 42.0523 37.1143C42.0523 36.7833 42.1258 36.4984 42.2728 36.2594C42.4199 36.0204 42.6128 35.8273 42.8426 35.6803C43.0723 35.5332 43.3388 35.4229 43.6329 35.3493C43.927 35.2758 44.2119 35.239 44.5059 35.239C44.8827 35.239 45.2227 35.2666 45.5352 35.3309C45.8477 35.3953 46.1234 35.5056 46.3715 35.6619C46.6104 35.8181 46.8034 36.0296 46.9504 36.2961C47.0975 36.5627 47.1802 36.8936 47.2077 37.2889H46.1325C46.1142 37.0775 46.059 36.9028 45.9671 36.765C45.8752 36.6271 45.7558 36.5168 45.6087 36.4248C45.4617 36.3421 45.3055 36.2778 45.1309 36.241C44.9562 36.2042 44.7816 36.1858 44.607 36.1858C44.4416 36.1858 44.2854 36.195 44.12 36.2226C43.9546 36.2502 43.8075 36.2961 43.6697 36.3605C43.5318 36.4248 43.4215 36.5076 43.3388 36.6179C43.2561 36.7282 43.2102 36.8569 43.2102 37.0315C43.2102 37.2154 43.2745 37.3716 43.4032 37.4911C43.5318 37.6106 43.6972 37.7118 43.9086 37.7945C44.1108 37.8772 44.3405 37.9416 44.5978 37.9967C44.8552 38.0519 45.1033 38.107 45.3606 38.1714C45.6271 38.2265 45.8936 38.3001 46.1509 38.3828C46.4082 38.4655 46.638 38.5758 46.8402 38.7229C47.0423 38.8608 47.1986 39.0355 47.3272 39.2469C47.4467 39.4583 47.511 39.7249 47.511 40.0374C47.511 40.4327 47.4283 40.7636 47.2629 41.0302C47.0975 41.2968 46.8861 41.5082 46.6196 41.6645C46.3531 41.83 46.0498 41.9403 45.719 42.0046C45.3882 42.069 45.0481 42.0965 44.7265 42.0965C44.3589 42.0965 44.0189 42.0598 43.688 41.9862C43.3572 41.9127 43.0631 41.784 42.815 41.6093C42.5577 41.4347 42.3555 41.2049 42.2085 40.9199C42.0523 40.6349 41.9696 40.2948 41.9512 39.8812H43.0264C42.9988 40.1202 43.054 40.3224 43.155 40.4879Z" fill="#003362"/>
<path d="M48.7422 34.2094V32.8857H49.8174V34.2094H48.7422ZM49.8174 35.3861V41.9494H48.7422V35.3861H49.8174Z" fill="#003362"/>
<path d="M51.3438 37.3257C51.4816 36.9028 51.6838 36.5443 51.9503 36.2318C52.2168 35.9193 52.5568 35.6803 52.952 35.5056C53.3472 35.3309 53.8067 35.239 54.3213 35.239C54.8451 35.239 55.3046 35.3309 55.6998 35.5056C56.0949 35.6803 56.4257 35.9284 56.6923 36.2318C56.9588 36.5443 57.1701 36.9028 57.2988 37.3257C57.4366 37.7485 57.501 38.199 57.501 38.677C57.501 39.1642 57.4366 39.6054 57.2988 40.0191C57.1609 40.4327 56.9588 40.8004 56.6923 41.1038C56.4257 41.4163 56.0857 41.6553 55.6998 41.83C55.3046 42.0046 54.8451 42.0873 54.3213 42.0873C53.8067 42.0873 53.3472 42.0046 52.952 41.83C52.5568 41.6553 52.2168 41.4163 51.9503 41.1038C51.6838 40.7912 51.4724 40.4327 51.3438 40.0191C51.2059 39.6054 51.1416 39.155 51.1416 38.677C51.1416 38.1898 51.2059 37.7393 51.3438 37.3257ZM52.4466 39.7341C52.5568 40.0466 52.6947 40.304 52.8877 40.5063C53.0715 40.7177 53.292 40.8739 53.5401 40.9843C53.7883 41.0946 54.0548 41.1497 54.3305 41.1497C54.6062 41.1497 54.8727 41.0946 55.1208 40.9843C55.3689 40.8739 55.5895 40.7177 55.7733 40.5063C55.9571 40.2948 56.1041 40.0374 56.2144 39.7341C56.3247 39.4215 56.3706 39.0722 56.3706 38.677C56.3706 38.2817 56.3155 37.9232 56.2144 37.6198C56.1041 37.3073 55.9663 37.0499 55.7733 36.8385C55.5895 36.6271 55.3689 36.4616 55.1208 36.3513C54.8727 36.241 54.6062 36.1858 54.3305 36.1858C54.0548 36.1858 53.7883 36.241 53.5401 36.3513C53.292 36.4616 53.0715 36.6179 52.8877 36.8385C52.7039 37.0499 52.5568 37.3073 52.4466 37.6198C52.3363 37.9324 52.2903 38.2817 52.2903 38.677C52.2811 39.0722 52.3363 39.4307 52.4466 39.7341Z" fill="#003362"/>
<path d="M59.798 35.386V36.4247H59.8256C60.2759 35.625 60.9835 35.2297 61.9576 35.2297C62.3895 35.2297 62.7479 35.2849 63.0328 35.4044C63.3177 35.5239 63.5566 35.6894 63.7312 35.9008C63.9058 36.1122 64.0345 36.3604 64.108 36.6546C64.1815 36.9487 64.2183 37.2704 64.2183 37.6289V41.9494H63.1431V37.5003C63.1431 37.0958 63.0236 36.7741 62.7847 36.5351C62.5457 36.2961 62.2241 36.1765 61.8106 36.1765C61.4797 36.1765 61.1948 36.2317 60.9559 36.3328C60.717 36.4339 60.5148 36.581 60.3494 36.7649C60.184 36.9487 60.0645 37.1693 59.991 37.4175C59.9083 37.6657 59.8715 37.9415 59.8715 38.2356V41.9402H58.7871V35.3768H59.798V35.386Z" fill="#003362"/>
<path d="M53.0805 45.0104V48.4024H53.1081C53.2827 48.0347 53.5676 47.7773 53.9443 47.6119C54.3211 47.4464 54.7438 47.3637 55.2033 47.3637C55.7088 47.3637 56.1499 47.4556 56.5267 47.6394C56.9035 47.8233 57.2159 48.0807 57.464 48.3932C57.7122 48.7149 57.9051 49.0734 58.0246 49.4963C58.1533 49.9099 58.2176 50.3512 58.2176 50.82C58.2176 51.2888 58.1533 51.73 58.0338 52.1437C57.9143 52.5573 57.7213 52.925 57.4732 53.2284C57.2251 53.5409 56.9126 53.7799 56.5359 53.9546C56.1591 54.1292 55.718 54.2212 55.2217 54.2212C55.0563 54.2212 54.8817 54.2028 54.6795 54.166C54.4773 54.1292 54.2844 54.0741 54.0914 54.0006C53.8984 53.927 53.7146 53.8167 53.54 53.688C53.3654 53.5593 53.2183 53.3939 53.0989 53.2008H53.0713V54.0741H51.9961V45.0012H53.0805V45.0104ZM56.9678 49.8456C56.8851 49.5514 56.7656 49.2941 56.6002 49.0642C56.4348 48.8344 56.2234 48.6506 55.9661 48.5219C55.7088 48.384 55.4055 48.3197 55.0563 48.3197C54.6887 48.3197 54.3854 48.3932 54.1281 48.5311C53.8708 48.6782 53.6686 48.862 53.5032 49.0918C53.3378 49.3216 53.2275 49.5882 53.154 49.8824C53.0805 50.1765 53.0437 50.4799 53.0437 50.7832C53.0437 51.105 53.0805 51.4175 53.154 51.7208C53.2275 52.0242 53.347 52.2816 53.5124 52.5114C53.6778 52.7412 53.8892 52.925 54.1557 53.0629C54.4222 53.2008 54.7347 53.2744 55.1114 53.2744C55.4882 53.2744 55.7915 53.2008 56.0488 53.0629C56.2969 52.9159 56.4991 52.732 56.6553 52.493C56.8116 52.254 56.9218 51.9874 56.9862 51.6841C57.0505 51.3807 57.0873 51.0682 57.0873 50.7465C57.0873 50.4339 57.0413 50.1306 56.9678 49.8456Z" fill="#007AAC"/>
<path d="M62.0767 54.9566C61.948 55.2783 61.8285 55.5449 61.6999 55.7655C61.5804 55.9861 61.4426 56.17 61.2955 56.3078C61.1485 56.4457 60.9831 56.5468 60.7993 56.6112C60.6155 56.6755 60.4041 56.7031 60.1744 56.7031C60.0457 56.7031 59.9171 56.6939 59.7976 56.6755C59.6689 56.6572 59.5495 56.6296 59.43 56.5836V55.5908C59.5219 55.6368 59.6322 55.6736 59.7516 55.7012C59.8711 55.7287 59.9814 55.7471 60.0641 55.7471C60.2847 55.7471 60.4684 55.692 60.6155 55.5908C60.7625 55.4805 60.8728 55.3335 60.9555 55.1404L61.3966 54.0373L58.7959 47.5107H60.0181L61.9388 52.8883H61.9664L63.8043 47.5107H64.9439L62.0767 54.9566Z" fill="#007AAC"/>
<path d="M46.8676 27.4989C47.0422 27.4438 47.2168 27.3702 47.3822 27.2691L54.394 23.252L63.2438 18.1779C65.0542 17.1391 65.0542 14.5469 63.2438 13.5081L54.394 8.43394L47.3822 4.41688C45.2594 3.19429 42.723 5.18904 43.4306 7.5239L45.7005 15.08C45.728 15.1628 45.7464 15.2363 45.7556 15.319L48.3287 24.3367C48.7147 25.6788 47.9979 26.9658 46.8676 27.4989Z" fill="#007AAC"/>
<path d="M48.3295 24.3184L45.7563 15.3007C45.8482 15.7327 45.8298 16.1831 45.7012 16.606L43.4313 24.1621C42.788 26.3131 44.8741 28.1608 46.8683 27.4989C47.9986 26.9658 48.7155 25.6788 48.3295 24.3184Z" fill="url(#paint0_linear_263_78)"/>
<path d="M108.008 40.2212V8.27771V40.2212ZM118.208 29.6867H77.2217H118.208ZM80.677 40.2212V8.27771V40.2212ZM84.1324 40.2212V8.27771V40.2212ZM87.4224 40.2212V8.27771V40.2212ZM90.8869 40.2212V8.27771V40.2212ZM94.3423 40.2212V8.27771V40.2212ZM97.7977 40.2212V8.27771V40.2212ZM101.253 40.2212V8.27771V40.2212ZM104.708 40.2212V8.27771V40.2212ZM111.463 40.2212V8.27771V40.2212ZM114.918 40.2212V8.27771V40.2212ZM118.208 11.734H77.2217H118.208ZM118.208 15.3558H77.2217H118.208ZM118.208 18.9776H77.2217H118.208ZM118.208 22.5994H77.2217H118.208ZM118.208 26.2304H77.2217H118.208ZM118.208 33.1431H77.2217H118.208ZM118.208 36.7649H77.2217H118.208ZM77.2217 40.2212H118.208V8.27771H77.2217V40.2212Z" stroke="#53606B" stroke-opacity="0.6" stroke-width="0.35" stroke-miterlimit="1"/>
<path d="M76.7713 58.8266V58.3026C77.1573 58.1187 77.479 57.9349 77.7271 57.7419C77.7638 57.4661 77.8006 57.034 77.8282 56.4181C77.8833 55.3059 77.9017 54.4969 77.9017 53.9914V49.6158C77.9017 49.4503 77.8925 48.8161 77.8741 47.7222C77.8557 46.9868 77.8098 46.5455 77.7363 46.3801C77.6995 46.3157 77.6536 46.2698 77.5892 46.233C77.4146 46.1503 76.9459 46.0951 76.1924 46.0583V45.231L78.4439 45.277C78.8942 45.2862 79.3169 45.2862 79.7213 45.2862C80.6127 45.2862 81.596 45.277 82.6804 45.2586L84.6562 45.2126C84.886 45.2126 85.3638 45.231 86.0714 45.2494C86.1358 45.2494 86.246 45.2678 86.3931 45.3046L86.4666 45.4333L86.2828 46.8305C86.2736 46.9316 86.246 47.3912 86.1817 48.2277H85.419C85.4098 47.4648 85.373 46.996 85.3363 46.8213C85.3087 46.7294 85.2719 46.665 85.2168 46.6283C85.1341 46.5731 84.8768 46.518 84.4448 46.472C83.8015 46.3985 83.1766 46.3617 82.5609 46.3617C81.982 46.3617 81.3938 46.3801 80.7965 46.426C80.7046 47.1614 80.6586 48.0899 80.6586 49.2113V51.2061C81.0997 51.2428 81.5592 51.252 82.0371 51.252C82.1841 51.252 82.7263 51.2428 83.6453 51.2153C83.9945 51.2061 84.1967 51.1877 84.261 51.1509C84.3254 51.1142 84.3713 51.0406 84.3989 50.9487C84.4724 50.7005 84.5184 50.2868 84.5367 49.7169H85.3271L85.2903 51.8587L85.3271 53.9822H84.4908C84.5 53.2284 84.4448 52.7688 84.3438 52.5941C84.2702 52.4654 84.1232 52.3827 83.9302 52.3551C83.4799 52.2816 82.9101 52.2448 82.2117 52.2448C81.5868 52.2448 81.063 52.2632 80.6586 52.3V56.4181C80.6586 56.8778 80.6678 57.273 80.6862 57.604C81.21 57.6407 81.8349 57.6591 82.5517 57.6591C83.2502 57.6591 83.8934 57.6407 84.4908 57.5948C85.0881 57.5488 85.4465 57.4845 85.5844 57.4017C85.6303 57.3742 85.6671 57.319 85.713 57.2271C85.8325 56.9145 85.952 56.3262 86.0806 55.4621H86.8801C86.7331 56.7491 86.6688 57.8062 86.6688 58.6335L86.5401 58.7622C86.1266 58.8082 85.5384 58.8266 84.7757 58.8266L83.2134 58.799C81.6695 58.7806 80.6127 58.7714 80.0245 58.7714C79.8591 58.7714 78.7747 58.7898 76.7713 58.8266Z" fill="#53606B"/>
<path d="M87.5684 46.04V45.2495C87.7154 45.2495 88.23 45.2587 89.1214 45.2863C89.5534 45.2955 90.1691 45.3047 90.9686 45.3047C91.6486 45.3047 92.2276 45.2955 92.7146 45.2679C93.5142 45.2403 94.185 45.2219 94.7088 45.2219C95.7289 45.2219 96.4825 45.2955 96.9879 45.4425C97.4933 45.5896 97.9253 45.893 98.2837 46.3526C98.6421 46.8122 98.8167 47.3729 98.8167 48.0348C98.8167 48.8161 98.5777 49.5331 98.0907 50.1766C97.6036 50.8201 96.8593 51.3257 95.8484 51.7025C96.0138 51.9967 96.1976 52.2909 96.3998 52.5942C96.6111 52.8976 96.7306 53.0814 96.7674 53.1457C96.8041 53.2101 96.8409 53.2744 96.8776 53.3296L98.3848 55.5909C98.7891 56.1884 99.0005 56.5193 99.0372 56.5653C99.5243 57.2088 99.8184 57.5948 99.9286 57.7143C100.039 57.8338 100.149 57.9074 100.25 57.9533C100.351 57.9993 100.563 58.0269 100.866 58.0269V58.8358C99.8643 58.8082 99.1475 58.799 98.6972 58.799C98.1826 58.799 97.668 58.8082 97.1533 58.8358C97.1166 58.6979 97.0431 58.5049 96.9236 58.2843L94.8467 54.8555C94.2494 53.8719 93.7439 53.0998 93.3304 52.5299C93.119 52.2449 92.926 52.0335 92.7238 51.8864L92.8341 51.5647C93.6061 51.5922 94.1942 51.5095 94.5894 51.3257C94.9845 51.1418 95.3154 50.8109 95.5911 50.3329C95.8576 49.8549 95.9954 49.3217 95.9954 48.7334C95.9954 48.1359 95.8484 47.6395 95.5635 47.2442C95.2786 46.849 94.9294 46.5732 94.5067 46.4169C94.231 46.3158 93.7531 46.2699 93.0455 46.2699C92.733 46.2699 92.4298 46.2974 92.1265 46.3434C92.1081 46.5732 92.0897 47.1064 92.0714 47.9153C92.0346 49.7446 92.0162 50.9672 92.0162 51.5922C92.0162 52.5666 92.0254 53.587 92.0438 54.6809C92.0714 56.0138 92.0897 56.7767 92.0989 56.9514C92.1173 57.3099 92.1541 57.5489 92.2092 57.6592C92.2368 57.7143 92.2735 57.7603 92.3379 57.7971C92.393 57.8338 92.4849 57.8706 92.6228 57.8982C92.7514 57.9258 93.1282 57.9442 93.7531 57.9625V58.8174C92.6503 58.7807 91.5292 58.7623 90.3896 58.7623C89.3788 58.7623 88.4414 58.7807 87.5867 58.8174V57.9625C88.3219 57.935 88.763 57.8982 88.9009 57.8522C88.9744 57.8338 89.0387 57.7971 89.0663 57.7511C89.1031 57.7052 89.1306 57.6132 89.149 57.4753C89.195 57.2272 89.2225 56.8411 89.2501 56.3263L89.3236 53.4951V49.8916L89.2869 47.8417C89.2777 47.0328 89.2317 46.5456 89.1674 46.3802C89.1306 46.3066 89.0847 46.2515 89.0204 46.2147C88.8457 46.1595 88.3679 46.0952 87.5684 46.04Z" fill="#53606B"/>
<path d="M101.454 58.8266V57.9993C102.189 57.9442 102.621 57.8982 102.759 57.843C102.833 57.8155 102.897 57.7695 102.943 57.7052C102.998 57.6224 103.044 57.4937 103.062 57.3375C103.108 56.9698 103.145 56.1608 103.182 54.9199C103.2 54.3224 103.209 53.2836 103.209 51.8129C103.209 50.4983 103.2 49.3309 103.182 48.3198C103.163 47.3086 103.117 46.7019 103.053 46.5089C103.026 46.4169 102.989 46.3526 102.934 46.2974C102.879 46.2515 102.777 46.2147 102.621 46.1871C102.198 46.1136 101.813 46.0768 101.463 46.0584V45.2311C102.796 45.2679 103.715 45.2863 104.22 45.2863C104.891 45.2863 105.553 45.2679 106.233 45.2311L107.087 47.1523L107.767 48.6047L110.855 54.975C111.517 53.6973 112.013 52.7045 112.344 52.0059L113.621 49.3125C114.338 47.805 114.77 46.8857 114.926 46.5364C115.083 46.1871 115.266 45.7551 115.469 45.2219C116.314 45.2679 116.865 45.2863 117.104 45.2863L119.999 45.2219V46.0492H119.861C119.209 46.04 118.795 46.1228 118.621 46.279C118.446 46.4353 118.354 46.7479 118.354 47.1983C118.354 47.7406 118.354 48.1451 118.345 48.4209L118.299 51.151V54.5614C118.299 55.3887 118.299 55.8759 118.308 56.0138C118.363 56.8411 118.4 57.3375 118.446 57.5305C118.464 57.6224 118.501 57.696 118.556 57.7511C118.611 57.8063 118.685 57.8522 118.777 57.8798C118.878 57.9074 119.282 57.9442 119.999 57.9901V58.8174L116.902 58.7623L113.87 58.8174V57.9901C114.669 57.9625 115.129 57.9166 115.239 57.8522C115.349 57.7879 115.432 57.6316 115.487 57.3926C115.533 57.1536 115.56 56.3539 115.56 54.9842V47.9153L113.309 52.4747L112.234 54.736C111.949 55.3335 111.545 56.1976 111.03 57.3283C110.717 58.0177 110.46 58.5692 110.286 58.9921H109.624C109.394 58.4497 109.054 57.7052 108.613 56.7583C107.859 55.1405 107.29 53.9271 106.904 53.1366L104.349 47.9153V52.6861C104.349 53.4859 104.358 54.4327 104.386 55.5266C104.404 56.6297 104.432 57.2455 104.459 57.3926C104.487 57.5397 104.523 57.65 104.579 57.7144C104.634 57.7787 104.735 57.8339 104.873 57.8798C105.011 57.9258 105.406 57.9717 106.067 58.0085V58.8358C105.341 58.7991 104.597 58.7807 103.843 58.7807C102.833 58.7715 102.042 58.7899 101.454 58.8266Z" fill="#53606B"/>
<path d="M104.708 39.5501L117.472 26.313V26.3038L111.306 19.8324L108.494 22.9303L108.007 22.5993L111.297 19.143L118.208 26.2303L104.708 40.2211L77.0557 11.8994L77.3865 11.5685L104.708 39.5501Z" fill="#53606B"/>
<path d="M118.042 27.8483C117.923 27.8483 117.794 27.7839 117.877 28.0413C118.015 28.1792 118.042 27.9126 118.042 27.8483ZM117.546 27.8759C117.62 28.0321 117.5 27.9954 117.546 27.8759V27.8759ZM117.041 28.0413C117.041 28.1884 117.224 28.1241 117.224 27.8759H117.059C117.013 27.7931 116.884 27.8759 117.059 28.0413H117.041ZM116.894 26.7176C116.985 26.5981 116.857 26.5338 116.728 26.7176C116.792 26.8095 116.894 26.8095 116.894 26.7176ZM116.728 23.7577C116.949 23.8588 117.105 23.6749 117.059 23.5922C116.884 23.4268 116.645 23.4268 116.563 23.5922C116.609 23.7301 116.645 23.7577 116.728 23.7577ZM117.877 23.0958H117.711C117.831 23.2521 117.877 23.0958 117.877 23.0958ZM113.438 19.474C113.117 19.3178 112.988 19.6579 113.273 19.9704C113.484 20.1451 113.695 20.1083 113.769 19.9704C113.971 20.0164 113.999 19.6395 113.769 19.6395C113.686 19.5292 113.539 19.474 113.438 19.474ZM110.966 18.6467V18.3158C110.801 18.2515 110.828 18.4996 110.966 18.6467ZM109.946 17.4977C109.946 17.7918 110.222 17.6999 110.148 17.4977C110.222 17.1851 109.983 17.1851 109.983 17.4977H109.946ZM108.659 18.4905C108.724 18.6191 108.604 18.6743 108.659 18.4905V18.4905ZM107.511 23.2613C107.722 23.1878 107.63 22.9304 107.511 22.9304C107.143 22.8476 107.143 23.0958 107.511 23.2613ZM107.842 23.2521C107.759 23.2521 107.676 23.344 107.676 23.4268C107.878 23.4911 107.943 23.3992 107.842 23.2613V23.2521ZM109.321 22.4432L109.156 22.2777C109.064 22.2134 108.908 22.2777 108.99 22.4432H109.321ZM109.321 23.2613H109.487V23.0958C109.34 22.9396 109.275 23.1234 109.321 23.2613ZM109.808 23.0683C109.606 23.0683 109.634 23.1878 109.808 23.2613V23.0683ZM111.132 23.8864C110.984 23.8864 111.012 24.1346 111.132 24.2449L111.297 24.2173C111.352 24.2173 111.352 23.914 111.297 23.914C111.352 23.8496 111.132 23.914 111.132 23.914V23.8864ZM110.644 23.4268C110.644 23.3348 110.644 23.2613 110.47 23.2613L110.304 23.5922C110.433 23.9783 110.736 23.675 110.47 23.4268H110.644ZM110.47 22.6086C110.304 22.6086 110.13 22.7006 110.304 22.7649C110.488 23.0315 110.553 22.7925 110.47 22.6086ZM117.224 29.7051C117.132 29.7051 117.059 29.7051 117.059 29.843C117.197 30.1923 117.647 30.0085 117.711 29.843C117.583 29.6132 117.546 29.457 117.546 29.3466C117.647 29.1536 117.647 29.0617 117.381 28.8503C117.096 28.7859 116.939 29.0525 117.215 29.1812C117.28 29.3375 117.28 29.4294 117.224 29.7051ZM116.728 30.0085H117.059C116.921 29.7051 116.71 29.8522 116.563 30.0085H116.728ZM116.894 30.3394H117.059H116.894ZM116.066 30.3394H116.232C116.425 30.4313 116.563 30.4313 116.563 30.3394V30.0085L116.37 29.843C116.37 29.9166 116.066 29.9166 116.039 29.843C116.039 29.9166 116.076 30.174 116.076 30.174V30.3394H116.066ZM113.925 34.7885C114.081 34.8805 114.109 34.9724 114.256 34.761C114.477 34.761 114.541 34.761 114.421 34.6231C114.357 34.3933 114.21 34.3933 114.091 34.4576C113.934 34.669 113.925 34.7058 113.925 34.7885ZM114.421 35.1286C113.778 35.1286 114.026 35.5239 114.256 35.6066C114.688 35.4871 114.633 35.1103 114.421 35.1103V35.1286ZM112.446 35.7721C112.345 35.671 112.225 35.671 112.115 35.7721C112.198 35.9468 112.345 35.9468 112.446 35.7721ZM111.922 36.434C111.922 36.6546 112.225 36.6822 112.611 36.5994C112.777 36.6546 112.804 36.7097 112.942 36.434C113.025 36.342 113.052 36.195 112.777 36.2685H112.611L112.446 36.103H112.28C111.83 35.8273 111.802 36.3145 111.949 36.434H111.922V36.434ZM112.115 37.583C112.041 37.5279 111.949 37.583 111.949 37.583V37.7485H112.115V37.9139H112.28V37.583H112.115V37.583ZM111.297 38.2357C111.132 38.2357 111.196 38.4103 111.297 38.4103V38.2357ZM111.628 37.9139C111.775 37.868 111.793 37.8036 111.793 37.7485C111.71 37.4727 111.444 37.583 111.297 37.583C111.196 37.776 111.288 37.9139 111.628 37.9139ZM109.974 38.2449C109.974 38.4195 110.093 38.3552 110.139 38.2449H109.974ZM109.652 38.2632C109.523 38.2632 109.487 38.2908 109.487 38.4103H109.652V38.2449V38.2632ZM109.321 39.0722H109.487C109.064 38.9067 109.183 39.1181 109.321 39.0722ZM108.007 38.9067L107.842 39.0722H108.007L108.172 39.4031H108.338V39.2376L108.503 39.3939C109.009 39.3939 108.577 39.1181 108.172 39.0722V38.7412C108.669 38.2632 108.338 38.1437 108.172 38.2449L108.007 38.9067ZM101.749 40.7176C101.813 40.6441 101.629 40.6165 101.583 40.7176C101.629 41.0669 101.813 41.0393 101.749 40.7176ZM101.234 40.5521C101.234 40.3407 101.087 40.3407 101.087 40.5521C101.05 40.8555 101.326 40.8831 101.234 40.5521ZM100.6 40.2212C100.6 40.4602 100.765 40.4234 100.784 40.2212C100.775 40.0925 100.591 40.1569 100.6 40.2212ZM100.104 40.5797C100.168 40.5797 100.205 40.6073 100.269 40.5521C100.168 40.4602 100.141 40.4602 100.104 40.5521V40.5797ZM94.6726 39.0722C95.1137 39.2744 95.1688 39.0906 95.1688 38.7412C95.1229 38.6309 94.7829 38.6034 94.6726 38.7412C94.5072 38.8699 94.5072 38.9619 94.6726 39.0722ZM95.1597 38.4103V38.2449L94.9942 38.4103H95.1597ZM94.6726 38.2449C94.6726 38.1713 94.7185 38.1713 94.6726 38.2449C94.7185 38.3919 94.6266 38.3552 94.6726 38.2449ZM92.8622 38.7412C92.8622 38.8791 93.1379 38.8424 93.193 38.7412C93.1011 38.5114 92.8622 38.5114 92.8622 38.7412ZM93.8639 37.0958C93.8639 36.9579 93.6158 36.8936 93.5147 37.0958C93.5882 37.3256 93.8455 37.2337 93.8639 37.0958ZM91.3734 37.105C91.2448 37.105 91.3643 37.2521 91.5389 37.2521H91.7043V37.0866C91.7962 37.0407 91.8697 37.0131 91.8513 36.7557C91.8513 36.581 91.5389 36.5535 91.5389 36.7557C91.4929 36.8017 91.4286 36.9855 91.3734 37.105ZM90.0593 35.9376L90.2247 35.7721C90.4269 35.4596 90.2431 35.4596 90.0593 35.6066C89.9674 35.4596 89.8479 35.7078 89.8939 35.7721L90.0593 35.9376ZM89.7285 35.4412C89.6641 35.3952 89.5631 35.4412 89.5631 35.4412C89.7836 35.7078 89.8112 35.4963 89.7285 35.4412ZM88.4143 35.1195C88.4143 35.2849 88.5062 35.2481 88.5797 35.1195C88.5062 35.0091 88.4143 35.0091 88.4143 35.1195ZM88.5706 33.9612C88.5706 34.0899 88.69 34.1451 88.7176 33.9612C88.7176 33.9061 88.5797 33.9061 88.5797 33.9612H88.5706ZM86.0985 32.3158C86.0985 32.6007 86.3742 32.564 86.4385 32.3158C86.3466 32.1135 86.1628 32.1779 86.0985 32.3158ZM85.7768 31.0013C85.7309 30.8358 85.5471 30.8358 85.446 31.0013C85.4001 31.4425 85.639 31.2862 85.7768 31.0013ZM84.4627 30.174V30.3394L84.6281 30.3118C84.7292 30.3118 84.7935 30.1556 84.7935 30.0085C84.6741 29.7971 84.426 29.8798 84.4627 30.0085V30.174ZM84.7568 29.5213C84.7568 29.5213 84.7292 29.5489 84.6281 29.5213C84.7568 29.7971 84.9406 29.7051 84.7568 29.5213ZM84.4627 29.5213H84.2973C84.2422 29.9166 84.5179 29.7695 84.4627 29.5213ZM84.1319 29.6868C84.0308 29.4661 83.9021 29.5581 83.801 29.6868C84.0308 29.889 84.0584 29.8246 84.1319 29.6868ZM82.1561 27.5449C82.202 27.6093 82.3215 27.5449 82.3215 27.5449C82.3858 27.3979 82.3215 27.3059 82.3215 27.3795C82.0458 27.2967 82.0182 27.3611 82.1561 27.5449ZM81.8252 26.2304L81.6598 26.3959H81.9907C82.1101 26.3591 82.0458 26.1753 81.8252 26.2304ZM81.5036 25.0446C81.5036 25.0446 81.4393 24.9251 81.3382 25.0722C81.2003 25.1641 81.3198 25.2836 81.5036 25.2377C81.5955 25.3204 81.6598 25.1641 81.5036 25.0722V25.0446ZM79.6932 21.1195V21.4504H79.8586C80.1067 21.2665 79.9505 21.0827 79.8586 21.1195H79.6932ZM79.3624 20.476C78.9764 20.476 79.0959 20.6874 79.3624 20.7885C79.4635 20.6599 79.3991 20.5036 79.3624 20.4576V20.476ZM79.491 20.4668C79.491 20.6966 79.5829 20.6323 79.7024 20.4668C79.7024 20.3933 79.5186 20.3289 79.5186 20.4668H79.491ZM78.5169 17.9941C78.5169 18.3434 78.7007 18.1595 78.7007 17.9941C78.7926 17.9205 78.6088 17.8929 78.5353 17.9941H78.5169ZM83.801 30.6703C83.9205 30.5508 83.7459 30.3762 83.4702 30.5049C83.4059 30.0361 83.1394 30.1188 83.1394 30.0085C82.9831 29.9533 83.4059 29.6224 83.4702 29.6776L83.3048 29.5121V29.3466H83.1394L82.8085 29.0157C82.5604 28.8503 82.4777 28.7675 82.6431 28.6848C82.8177 28.5193 82.4777 28.2619 82.3123 28.3539C82.3123 28.4274 82.1469 28.3447 82.1469 28.1884L81.9815 27.8575C81.8069 27.9218 81.715 27.8391 81.816 27.692C81.8896 27.499 81.7977 27.5266 81.6506 27.499C81.2922 27.499 81.2922 27.3335 81.4852 27.1589C81.715 27.1589 81.6322 27.0761 81.4852 27.0302H81.1544V26.8647L81.3198 26.5338L81.1544 26.2029C80.8695 26.6533 80.7868 26.065 80.989 25.8719L80.8235 25.7248C80.7041 25.7248 80.5295 25.3847 80.4927 25.0538C80.1986 25.0538 80.1986 24.7229 80.4927 24.7229H80.6581C81.1268 24.7964 80.9522 24.4655 80.4927 24.392C80.4468 24.2908 80.4468 24.392 80.3273 24.392L80.1619 24.2265V24.061L79.9965 23.8956L80.1619 23.7301L80.3273 23.5646L80.1619 23.2337H79.9965C79.9413 23.1969 79.9413 23.0223 79.9965 22.9028C79.9413 22.8568 79.7759 22.7373 79.831 22.7373V22.5719L79.5002 22.4064V21.91L79.3348 21.7446V21.4136L79.1694 21.2482C78.8386 21.2482 78.9213 21.1654 79.1786 21.0827C79.1786 20.9908 79.0959 20.9172 78.8385 20.908C78.6731 20.908 78.5904 20.8253 78.5077 20.7518V20.7334C78.5812 20.7334 78.6731 20.6507 78.6731 20.5679C79.0132 20.5679 79.0131 20.4025 78.8385 20.2554L78.6731 20.0623C78.8385 20.0623 78.7558 19.9245 78.6731 19.9245V19.759C78.4158 19.805 78.4158 19.4648 78.5077 19.4281C78.6731 19.2994 78.6731 19.1339 78.3423 18.9317V18.6008L78.0115 18.4353V18.2698L77.846 18.1044H78.0115C78.4158 18.0308 78.1585 17.5253 77.846 17.4425L78.0115 17.2679C78.2504 17.2679 78.2504 17.1024 78.1769 16.9461V16.845L78.0115 16.6796C77.8277 16.7439 77.745 16.6612 77.846 16.3211C77.745 16.3211 77.745 16.2383 77.846 16.1924C78.0758 15.9074 77.9931 15.9074 77.6806 15.8614C77.2303 15.8155 77.4049 15.5305 77.6806 15.5305C77.8277 15.4754 77.9104 15.3099 77.6806 15.1996C77.5704 15.1444 77.5152 14.9698 77.5152 14.8687L77.3498 14.7032V14.5377H77.5152C77.4049 14.3815 77.5152 14.2068 77.5152 14.2068C77.5704 13.9586 77.5704 13.7932 77.3498 13.7104V13.545H77.5152L77.3498 13.3795C76.8995 13.4438 76.9822 12.8555 77.019 12.7176C76.8903 12.5154 76.9822 12.35 77.019 12.2213C76.9822 12.0098 76.9822 11.9271 77.019 11.8903V10.4104L76.6881 10.2449C76.8076 10.153 76.6422 9.98751 76.5227 9.91397V9.74851C76.7249 9.64739 76.6422 9.31647 76.5227 9.08666L76.6881 8.75573C77.0649 8.71896 76.8076 8.46158 76.5227 8.42481V8.25935L76.6881 8.13065C76.8076 8.13065 76.8076 8.04792 76.6881 7.93761L76.5227 7.60669V7.27576C76.3849 6.95403 76.4676 6.77937 76.5227 6.61391C76.6422 6.61391 76.5595 6.27379 76.3573 5.96125V5.79579C76.3022 5.60275 76.3022 5.52002 76.5227 5.46486C76.6422 5.35456 76.5227 5.1799 76.5227 4.96848C76.054 4.59159 76.3849 4.59159 76.5227 4.15036V3.65397C76.3022 3.41497 76.4676 3.15758 76.5227 3.15758C76.6422 3.07485 76.6422 3.07485 76.6881 2.99212C76.6422 2.90939 76.6422 2.82665 76.6881 2.82665V2.49573C76.4768 2.56927 76.5227 2.39461 76.5227 2.33027C76.6422 2.14642 76.5595 2.1648 76.3573 2.1648V1.97176C76.4676 1.97176 76.5227 1.88903 76.5595 1.83388C76.5595 1.72357 76.6422 1.66842 76.6881 1.66842C76.6422 1.54891 76.6422 1.38345 76.6881 1.33749C76.7249 1.21799 76.7249 1.04333 76.6881 1.00656C76.5595 0.960603 76.5595 0.67564 76.6881 0.67564C76.7249 0.620486 76.8076 0.455023 76.8535 0.344714C76.7249 0.280368 76.8076 0.179251 76.8535 0.179251C76.9822 -0.0597504 77.0649 -0.0597504 77.1844 0.179251V0.67564C77.2303 0.620486 77.2303 0.67564 77.1844 0.67564V1.00656C77.313 1.04333 77.313 1.2088 77.1844 1.33749C77.2303 1.30072 77.2303 1.38345 77.3498 1.50295V1.8063C77.4049 1.8063 77.4049 1.97176 77.313 2.14642C77.313 2.14642 77.3498 2.22915 77.3498 2.1648V4.16874C77.4049 4.16874 77.4049 4.25147 77.3498 4.30663V4.63755C77.4876 4.59159 77.5704 4.75705 77.4876 4.80301C77.4876 5.01444 77.4876 5.34536 77.6806 5.45567C77.5704 5.67629 77.5704 5.85094 77.6531 5.95206C77.6531 6.09914 77.7358 7.36769 77.846 7.61588C77.9931 7.61588 77.9931 8.46158 77.846 8.74654C77.9931 8.95796 78.0115 9.21535 77.9931 9.40839C77.9931 9.47274 78.1769 9.89559 78.1769 10.2357L78.1677 10.4012C78.1677 10.4012 78.1769 10.4012 78.1769 10.5666C78.0758 10.5666 78.1769 10.7321 78.1769 10.8884C78.2504 10.8148 78.3423 10.8976 78.3331 11.0722C78.3331 11.0722 78.2504 11.0538 78.1769 11.0538V11.2193C78.4158 11.3204 78.4158 11.9087 78.3423 12.0466C78.5812 12.1661 78.7558 13.0945 78.6731 13.1956L78.8385 13.5266H78.6731V13.8575C78.8385 14.023 78.8385 14.1057 78.8385 14.5194C79.0131 14.6113 79.1694 15.1996 79.1694 15.5121C79.344 15.6316 79.3348 16.0545 79.3348 16.0085L79.344 16.3394C79.344 16.3946 79.4267 16.4773 79.491 16.6704C79.4267 16.8174 79.491 16.8174 79.491 17.0013C79.5921 17.2403 79.5921 17.323 79.6748 17.4977C79.6748 17.5804 79.9321 18.1687 79.9873 18.4813C80.0975 18.6651 80.1527 18.9225 80.1803 19.1707C80.1803 19.1707 80.3457 19.5935 80.3089 19.6303C80.263 19.8417 80.263 19.759 80.3089 19.7958L80.4743 20.1267C80.603 19.9337 80.6857 20.522 80.6398 20.6231C80.7684 20.7702 80.7684 20.7885 80.8052 20.7885C80.8511 20.9448 80.8511 21.2849 80.8052 21.2849V21.6159C80.8511 21.7078 80.9706 21.7905 80.9338 21.9468C80.9338 22.0387 80.9706 22.2134 80.9706 22.4432C81.2738 22.2961 81.4668 22.8017 81.4668 23.2705C81.6139 23.3164 81.6966 23.3992 81.7977 23.436C81.6966 23.6566 81.7977 23.9875 81.7977 24.0978C81.9539 24.1621 82.1285 24.3276 82.1193 24.4287C82.1193 24.6677 82.2939 24.9251 82.2939 24.9251C82.7075 25.3388 82.7075 25.4307 82.7902 25.587C82.8821 25.7708 83.0475 25.8535 82.9556 26.0834C83.0475 26.019 83.121 26.1109 83.121 26.2488C83.3875 26.4419 83.3875 26.5246 83.2864 26.7452C83.2221 26.782 83.3048 27.0394 83.4518 27.0761C84.0675 27.3703 84.0675 27.4622 84.1135 27.738V27.9034C84.3157 28.1332 84.9957 28.8962 85.2622 29.4018C85.492 29.4018 85.492 29.5673 85.4276 29.7143C85.5839 29.65 85.7585 29.9074 85.7585 30.0728C85.9147 30.0728 86.0893 30.3302 85.9239 30.5417L86.2547 30.7071L86.4201 30.8726L86.4293 31.038C86.4293 31.0932 86.512 31.0932 86.5856 31.2035V31.1759C86.6775 31.1759 86.7693 31.2587 86.9164 31.2035V31.369C86.7693 31.516 86.9348 31.6999 87.0818 31.6999C87.2748 31.7642 87.3575 31.9389 87.4402 32.1871C87.4402 32.1871 87.5781 32.2698 87.5781 32.518L88.0743 32.8489C88.4603 32.6927 88.4603 32.9409 88.4051 33.1799L88.5706 33.3453L88.736 33.5108L88.9014 33.6762H89.0668L89.2322 33.8417H89.3976L89.5631 34.0072L89.8939 34.1726L90.0685 34.3381C90.0685 34.4668 90.1512 34.669 90.2247 34.6323C90.3166 34.6323 90.482 34.8253 90.5555 34.8253L90.721 34.9632C90.8312 34.9632 91.0794 35.0459 91.2172 35.1562C91.3367 35.3033 91.5021 35.386 91.7135 35.4871C91.9248 35.6434 92.513 35.9835 92.8622 36.3145V36.3237C92.9357 36.3237 92.9357 36.3237 92.8622 36.4799C93.9466 36.5718 93.9466 37.0774 94.0109 37.4635H94.1763H94.3418L94.5072 37.298C94.9483 37.0774 95.2056 37.3256 95.3342 37.4911C95.3802 37.4911 95.5456 37.4911 95.4997 37.6198C95.5456 37.6565 95.5456 37.6565 95.6283 37.7852C95.6283 37.9047 95.8765 37.9875 95.9867 37.9507C96.0419 37.822 96.2165 37.822 96.3176 37.9507H96.6484L96.9792 38.1162C97.0619 37.9967 97.2274 38.0794 97.3101 38.1162C97.402 38.2449 97.5674 38.2449 97.6409 38.1162C97.7328 38.1621 97.9074 38.1621 97.9717 38.2816L98.468 38.4471H98.7988H99.1296C99.5983 38.3276 100.021 38.6126 100.122 38.6126L100.288 38.778V38.6126H100.453V38.778H101.115V38.6126H101.445V38.778H101.776C101.877 38.8424 102.3 38.7596 102.438 38.6126H102.603H102.769H103.1H103.43C103.495 38.6677 104.166 38.6677 104.248 38.6126C104.248 38.6677 104.331 38.7596 104.423 38.6126C104.588 38.6677 105.351 38.6126 105.406 38.6126C105.599 38.6677 105.599 38.585 105.737 38.4195C105.93 38.4195 106.436 38.2816 106.564 38.2816C106.693 38.3368 107.226 38.1621 107.226 38.1162C107.29 37.9967 107.538 37.822 107.722 37.7852C107.796 37.822 107.888 37.822 107.888 37.7852C107.961 37.6565 108.053 37.5738 108.053 37.6198H108.218C108.301 37.5738 108.301 37.5738 108.384 37.6198C108.384 37.4911 108.549 37.3164 108.705 37.4543C108.797 37.5738 108.797 37.4911 108.871 37.2889C108.972 37.0682 109.312 36.9579 109.533 36.9579C109.652 37.0682 109.735 36.9763 109.863 36.7925C109.9 36.7281 110.24 36.5535 110.36 36.627C110.406 36.5535 110.58 36.4615 110.69 36.4615C110.746 36.3053 110.764 36.2869 110.874 36.2869L110.883 36.2685C110.957 36.2133 111.095 36.2317 111.187 36.3053C111.343 36.3053 111.426 36.2225 111.352 36.1306C111.426 35.9651 111.674 35.7078 111.848 35.7997C112.014 35.7997 112.436 35.6342 112.519 35.3125C112.519 34.9632 112.859 34.8161 112.997 34.8161C113.19 35.0367 113.273 34.7885 113.328 34.4852V34.3197C113.273 34.3657 113.365 34.3657 113.493 34.3197C113.787 34.4484 113.87 34.2829 113.824 34.1543C113.87 33.6854 113.787 33.7774 113.99 33.6579V33.4924H114.155V33.3269H114.32V33.1615L114.486 32.996L114.651 32.8306H114.817C114.881 32.757 114.881 32.757 114.798 32.8306C114.798 32.5916 114.881 32.4996 114.982 32.5088C115.056 32.5088 115.221 32.4261 115.147 32.3434C114.89 32.0032 115.138 31.9205 115.313 31.847C115.396 31.6631 115.478 31.6631 115.304 31.516C115.304 31.4149 115.313 31.4149 115.313 31.3506L115.644 31.1851V31.0013V30.8358C115.644 30.799 115.644 30.6336 115.809 30.5049C115.736 30.4589 115.901 30.3762 115.975 30.3394C115.901 30.0361 115.901 29.9533 115.984 29.8706C115.984 29.8706 116.066 29.8706 115.984 29.6776C115.984 29.6132 116.066 29.4478 116.14 29.365C116.241 29.365 116.305 29.1904 116.305 29.1904C116.158 28.9514 116.241 28.9514 116.324 28.8686C116.324 28.8686 116.406 28.7032 116.324 28.5285C116.324 28.5285 116.324 28.4458 116.471 28.3631C116.406 28.2711 116.471 28.2711 116.471 28.1976C116.406 27.931 116.406 27.4346 116.471 27.214C116.406 27.0945 116.471 27.0945 116.471 27.0486C116.158 26.7544 116.241 26.5889 116.471 26.5522V26.3867C116.324 26.3315 116.406 26.0558 116.471 26.0558V25.8903L116.489 25.7248C116.489 25.6605 116.471 25.5594 116.471 25.5594C116.324 25.4031 116.406 25.3939 116.489 25.3939C116.489 25.2377 116.471 25.2285 116.471 25.2285C116.324 25.063 116.305 24.9803 116.305 24.7321C116.406 24.6401 116.406 24.6402 116.305 24.4011C116.158 24.2173 116.158 24.2173 116.305 23.9048C116.158 23.7117 116.158 23.5463 116.305 23.4084C116.406 23.2889 116.406 23.2889 116.305 23.2429L115.975 22.912C115.901 22.7833 115.984 22.6914 115.809 22.6086C115.736 22.6086 115.644 22.5259 115.644 22.4156C115.396 22.3512 115.478 22.0203 115.478 21.9192L115.313 21.7537C114.973 21.5056 115.138 21.3401 115.313 21.2574C115.644 21 115.304 20.8345 114.982 20.9264C114.798 21.3401 114.716 21.2482 114.651 21.0827C114.458 21.0827 114.376 21 114.32 20.9264C114.376 20.8253 114.376 20.8253 114.32 20.761C114.376 20.6599 114.376 20.6599 114.32 20.5955C114.127 20.6599 113.953 20.5771 113.824 20.4117C113.787 20.4117 113.787 20.3289 113.659 20.2646C113.53 20.3289 113.107 20.237 112.997 20.0715C112.85 20.0715 112.767 20.0715 112.666 19.7682C112.602 19.7314 112.602 19.566 112.501 19.6027L112.335 19.4373L112.17 19.2718C112.096 19.3086 111.839 19.2258 111.839 19.1063C111.839 18.9685 111.674 18.9685 111.674 19.1431C111.582 19.1431 111.086 19.4005 110.69 19.4373L110.525 19.2718C110.24 19.3086 109.652 19.6487 109.542 19.9337L109.238 20.0991C109.238 20.3197 109.156 20.43 109.045 20.43C108.816 20.4944 108.724 20.6599 108.88 20.761L108.862 20.7702L108.715 20.9264V21.0919L108.549 21.2574C108.476 21.5883 108.558 21.7537 108.715 21.7629C109.064 21.7629 108.807 21.7537 108.88 21.7537L109.045 21.9192C108.981 21.8457 109.238 21.7537 109.376 21.7537C109.487 21.5975 109.744 21.5056 110.029 21.5883C110.406 21.0827 110.746 21.3401 110.69 21.5883C110.746 21.7629 111.168 21.9192 111.352 21.9192C111.508 21.7629 111.674 22.1031 111.518 22.2501V22.4156L111.683 22.5811V22.7465L112.014 22.7833C112.106 22.7833 112.106 23.0315 111.848 23.0774L111.683 23.2429C111.508 23.5371 111.766 23.5371 111.848 23.4084C112.096 23.2889 112.096 23.629 112.014 24.0702V24.2357L112.179 24.4011C112.271 24.5574 112.271 24.6402 112.179 24.7229C112.014 24.7229 111.766 24.8883 111.683 24.7229C111.508 24.7229 111.426 24.7229 111.352 24.5666L111.187 24.8975H110.69L110.525 25.063C110.323 25.3204 110.24 25.3204 110.194 25.2285C110.066 25.2285 109.992 25.3112 109.863 25.5502C109.735 25.6421 109.477 25.6421 109.533 25.5502C109.652 25.3112 109.477 25.1365 109.367 25.2193L109.202 25.3847H109.036V25.5502H108.871C108.466 25.3939 108.632 25.3939 108.871 25.2193L109.036 25.3847L109.202 25.2193V24.7229L109.036 24.5574C108.889 24.631 108.807 24.5482 108.871 24.392C108.807 24.2908 108.54 24.2908 108.54 24.392L108.549 24.5574V24.7229C108.549 24.7964 108.375 24.8883 108.375 24.5482C108.292 24.5482 108.209 24.5574 108.044 24.5574C107.704 24.7137 107.621 24.4655 107.713 24.2081C107.786 24.2081 107.786 24.1254 107.548 24.061L107.382 23.868C107.446 23.868 107.364 23.7853 107.217 23.7301C107.106 23.7853 107.106 23.7853 107.051 23.7301C106.776 23.5371 106.684 23.4451 106.886 23.3992C107.024 23.1969 106.941 23.1142 106.72 23.0683V22.7373C106.436 22.434 106.776 22.2685 106.886 22.4064C107.364 22.2593 107.106 22.0111 106.858 22.0755C106.858 22.1766 106.776 22.1766 106.555 22.0755C106.353 21.7537 106.436 21.5883 106.72 21.4136V21.2482C106.353 21.1654 106.518 20.9908 106.555 20.9172L106.702 20.7702L106.72 20.7518L106.886 20.5679C107.106 20.5679 107.024 20.4025 106.886 20.2554C106.693 20.4025 106.72 20.1451 106.72 20.0899V19.759C106.776 19.7222 106.776 19.6395 106.886 19.5935C106.776 19.5568 106.886 19.3821 106.886 19.2626C107.106 19.2994 107.281 19.0971 107.198 19.0971C107.198 18.9593 107.217 18.9317 107.217 18.9317C107.446 18.7938 107.529 18.5456 107.382 18.4353C107.446 18.371 107.612 18.1044 107.713 18.1136C107.786 18.1136 107.878 18.0308 107.878 17.9389C108.035 17.8654 108.035 17.6907 108.209 17.608C108.292 17.608 108.466 17.5253 108.54 17.4425L108.88 16.9461C108.88 17.0105 109.045 16.9277 109.192 16.7807H109.358C109.891 16.845 109.891 16.7623 109.854 16.6152C109.725 16.5049 109.891 16.6152 110.02 16.6152H110.35C110.396 16.7623 110.681 16.6796 110.681 16.6152L110.847 16.2843H111.012V16.6152L111.343 16.4497H111.674C111.839 16.5049 112.427 16.5876 112.657 16.7807C112.924 16.845 113.098 16.845 113.153 16.9461L113.319 16.9277C113.604 16.9277 113.778 17.0932 113.98 17.2771V17.4425L114.311 17.4333C114.366 17.4333 114.706 17.5161 114.973 17.9297L115.138 18.0952L115.469 18.4261L115.8 18.5916V18.757L116.131 19.088H115.8L115.635 18.757C115.552 18.7019 115.469 18.5272 115.138 18.5916C115.046 18.4445 114.881 18.757 114.973 18.7846C115.129 18.7846 115.138 18.9225 115.138 18.9225C115.046 19.0328 114.964 19.2075 115.304 19.088C115.635 19.0328 115.635 19.1247 115.635 19.2534C115.469 19.5384 115.892 19.5384 116.131 19.4189V19.2534C117.151 19.5384 117.068 19.713 117.123 19.8785C116.903 19.8785 116.82 20.1359 116.958 20.237C117.243 20.3013 117.16 20.5679 116.958 20.5679C116.912 20.4668 116.811 20.5955 116.939 20.6966L116.949 20.715C116.894 20.7885 116.903 20.8989 116.958 20.8989L117.123 20.8897C117.077 20.8897 117.16 20.8989 117.123 20.8989C117.077 21.0551 117.16 21.1379 117.289 21.2206C117.583 21.2206 117.583 21.4688 117.454 21.7262C117.243 21.7262 117.417 21.9744 117.62 21.8916C117.84 21.8916 117.95 21.9744 117.95 22.0387C118.171 22.1398 118.088 22.3053 117.923 22.388C117.923 22.388 117.95 22.7281 117.95 22.8568C118.006 22.9763 118.346 23.1418 118.281 23.3532C118.428 23.3992 118.428 23.5187 118.281 23.5187C118.428 23.5738 118.428 23.8496 118.281 23.8496C118.511 23.9048 118.428 24.1805 118.281 24.1621C118.346 24.1621 118.346 24.5115 118.281 24.5115C118.428 24.585 118.447 24.6769 118.447 24.6769C118.346 24.7505 118.346 25.0078 118.281 25.0078C118.428 25.0906 118.612 25.1733 118.612 25.3388C118.686 25.4307 118.686 25.5042 118.612 25.5134C118.511 25.5134 118.447 25.6789 118.447 25.8535C118.346 25.8535 118.346 26.3591 118.428 26.4878C118.428 26.4419 118.447 26.7728 118.447 26.9842L118.281 27.3151H118.447V27.4806H118.281V27.8115C118.428 27.8759 118.346 28.216 118.263 28.3079C118.263 28.4734 118.281 28.5561 118.281 28.8043C118.346 28.8043 118.263 29.2271 118.088 29.3099C118.088 29.3099 118.006 29.5673 117.95 29.6224C118.006 29.8155 118.006 30.0636 117.785 30.2751C117.665 30.3118 117.665 30.3118 117.785 30.4405C117.84 30.5692 117.84 30.652 117.748 30.7715C117.748 30.9002 117.767 30.9829 117.767 31.0932V31.1116C117.767 31.1667 117.675 31.2679 117.463 31.2679V31.4333C117.427 31.4977 117.427 31.6631 117.298 31.5988C117.335 31.9205 117.169 31.8378 116.967 31.7642V31.5988C116.498 31.6631 116.664 32.086 116.802 31.9297C116.995 31.8378 117.087 31.9205 117.132 32.0952H116.967L117.004 32.4261C117.004 32.3434 116.811 32.518 116.811 32.5915C116.921 32.7662 116.838 33.0236 116.645 33.1063C116.333 33.1063 116.25 33.5292 116.315 33.5843C116.25 33.7774 116.085 34.0348 115.993 33.9153C115.993 33.952 115.818 34.0348 115.818 34.2462L115.322 34.5771C115.322 34.6323 115.331 34.7977 115.331 34.908C115.497 35.2206 115.239 35.4044 114.991 35.4044C114.991 35.478 114.991 35.7353 114.835 35.7353C114.651 35.8181 114.569 35.9835 114.504 36.0663C114.569 36.1582 114.569 36.1582 114.504 36.2317H114.495H114.504H114.477C114.477 36.3237 114.394 36.3237 114.339 36.3972V36.5627H114.173C114.228 36.4891 113.971 36.5718 114.008 36.7281C113.971 36.912 113.806 37.059 113.843 37.0866C113.723 37.0866 113.631 37.0866 113.677 37.2245C113.631 37.4175 113.466 37.3348 113.346 37.39C113.043 37.2521 112.96 37.344 113.015 37.5554C112.96 37.5922 112.96 37.5922 113.015 37.7209C112.96 37.9231 112.786 38.0151 112.685 37.8864C112.538 37.9323 112.455 38.015 112.363 38.0518C112.363 38.1805 112.363 38.2632 112.188 38.2173C111.858 38.2724 111.692 38.2724 111.527 38.3827C111.6 38.6034 111.435 38.7137 111.012 38.6861C111.012 38.6861 110.929 38.7688 110.865 38.8699C110.755 38.8699 110.773 38.8883 110.709 38.8883C110.847 39.0354 110.755 39.2744 110.534 39.2009H110.369V39.3663H110.038L109.707 39.5318H109.542L109.211 39.8627L109.045 39.6973H108.549C108.384 39.5318 108.136 39.6973 108.053 39.8627L108.218 40.1936H108.384L107.722 40.3591L107.557 40.5246L107.391 40.3591H107.033C107.033 40.2948 106.95 40.2948 106.895 40.5246H106.73V40.8555H106.399H106.233V40.69C106.353 40.8003 106.445 40.6257 106.399 40.5246C106.445 40.2948 106.445 40.1201 106.399 40.1936C106.527 40.0374 106.527 40.0282 106.564 40.0282C106.693 39.9546 106.776 39.78 106.564 39.6973C106.527 39.6145 106.527 39.6145 106.564 39.5318C106.693 39.4491 106.693 39.2744 106.399 39.2009H106.233L106.068 39.3663C106.105 39.5318 106.105 39.6973 106.068 39.8627C106.105 39.8627 106.105 40.0282 106.068 40.1845C106.022 40.1109 105.903 40.1936 105.903 40.3499H105.737L105.903 40.5154V40.7084C106.187 40.7084 106.105 40.8739 105.903 41.0118H105.737L105.572 40.8463L105.406 41.0118C105.342 40.7084 105.002 40.7084 104.91 40.8463H104.579C104.496 40.7911 104.414 40.7084 104.248 40.8463C104.156 40.9566 103.991 40.9566 103.752 40.6808V40.3683C103.816 40.3683 103.991 40.451 104.083 40.5154C104.239 40.3683 104.239 40.2856 104.083 40.1845H103.734C103.734 40.3683 103.486 40.5154 103.256 40.5154L102.925 40.6808C102.548 40.6165 102.723 40.7911 102.76 41.0118H102.925V41.3427H102.76H102.594C102.548 41.2967 102.466 41.0118 102.429 41.0118C102.383 40.6257 102.043 40.7911 102.126 41.0118C102.126 41.6368 101.868 41.4622 101.602 41.0118H101.105C101.197 40.7084 100.94 40.7911 100.775 40.8463C100.609 40.7911 100.517 40.8739 100.435 41.0118C100.435 41.3795 100.278 41.2967 100.278 41.0118C100.177 40.7911 100.012 40.8739 99.9475 41.0118L99.7821 40.8463L99.6167 41.0118L99.4513 40.8463H99.2859C99.1664 40.7084 99.0837 40.7084 98.955 40.8463C98.9091 41.1313 98.7437 41.0393 98.7896 40.6808C98.8264 40.5429 98.8264 40.5154 98.4588 40.5154C98.2382 40.3683 97.9809 40.451 97.7971 40.5338C97.5582 40.5338 97.6409 40.6165 97.7971 40.6992C98.3209 40.6992 97.9809 41.0393 97.7971 40.8371H97.6317C97.5582 40.782 97.5582 40.6716 97.4663 40.6716V40.5062C97.3101 40.3591 97.3928 40.1753 97.4663 40.1753H97.4755C97.4755 40.019 97.6409 39.9363 97.7971 39.8443C97.7236 39.3479 97.3101 39.6789 96.97 40.1753V40.1845C96.7954 40.1845 96.5473 40.5246 96.143 40.3315C96.0327 40.2672 96.0327 40.1661 95.9775 40.1661C96.0327 40.0098 96.143 39.9271 96.143 40.0006C96.2073 39.8443 96.29 39.6697 95.9775 39.6697L95.95 39.5042C95.95 39.5042 95.8673 39.4215 95.8121 39.5042C95.7018 39.6697 95.6191 39.5869 95.4813 39.5042C95.5272 39.3296 95.4445 39.2468 95.3159 39.3388C95.3618 39.5869 95.3618 39.5042 95.3159 39.5042H95.1505H94.985H94.8196L94.6542 39.3296C94.5991 39.3296 94.5164 39.3296 94.3234 39.5042C94.0936 39.5869 93.8271 39.5869 93.8271 39.3388C93.6709 39.1641 93.3309 39.0078 93 39.0078L92.6508 38.8424C92.6508 38.9067 92.5681 38.8424 92.5038 38.8424H92.4854C92.4854 38.6585 92.5681 38.5758 92.6692 38.5114V38.346C92.4854 37.8956 92.9909 37.8955 93.1655 38.015H93.3309V37.8496H93.1655C93.3309 37.6382 93.0736 37.5554 93 37.6841C92.8254 37.8036 92.7335 37.8864 92.5038 37.6841C92.3935 37.7209 92.3384 37.6382 92.3384 37.5187C92.3935 37.4727 92.3935 37.3532 92.5038 37.3532L92.4854 37.1877C92.4854 36.7925 92.2281 36.9671 92.3476 37.1877H92.1822L92.0167 37.3808C91.8146 37.3808 91.7318 37.4635 91.6859 37.5095C91.6491 37.5462 91.7319 37.7117 91.8513 37.6749C92.0627 37.5462 92.2373 37.5462 92.3476 37.6749L92.6784 37.8404L92.513 38.0059L92.32 38.1713C92.32 37.8864 92.0167 38.0518 92.0167 38.3368C92.32 38.6401 92.0719 38.6401 91.8513 38.5022C91.061 38.3919 91.061 38.1345 91.1896 37.5095H91.0242L90.6934 37.344L90.3626 37.2061C90.289 37.2061 90.289 37.0131 90.3626 37.0407C90.289 37.0407 90.1236 37.0131 90.1972 37.0131C90.0409 36.9579 89.9582 36.7833 90.0317 36.8476H89.7009L89.5355 36.6822C89.609 36.6178 89.5263 36.5167 89.3701 36.5167C89.1955 36.4432 88.8738 36.5259 88.8738 36.3512V36.1858C88.7727 35.9376 88.5154 35.6894 88.3776 35.6894C88.01 35.7721 88.0927 35.5975 88.2121 35.5239C88.2581 35.3493 88.0927 34.9264 87.8813 34.8713H87.7159L87.3851 34.3749H86.7234L86.558 34.0439L86.7234 33.8785H87.2197V34.2094H87.3851L87.5505 34.3749C88.0927 34.3381 88.0008 34.1726 87.7159 34.0439L87.3851 33.8785C87.0726 33.2442 86.558 33.6579 86.558 33.8785H86.2272L86.3926 33.713L86.2272 33.5476H85.8963L85.7309 33.3821L85.8963 33.2166C86.2272 33.0696 86.2272 32.8857 86.0617 32.8857C85.8963 32.8214 85.8963 32.8214 85.7309 32.7202H85.7217C85.7217 32.6467 85.7217 32.6467 85.5655 32.5548C85.8871 32.3066 85.8044 32.1411 85.5655 32.0584L85.4001 31.7275H85.2347L85.0692 31.8929L84.9038 31.7275H84.573L84.7384 31.562L85.0692 31.5436C85.4644 31.5436 85.299 31.2862 85.0692 31.2311H84.7384V31.0656L84.8763 31.038L84.9038 31.0656C85.0417 30.8726 84.7935 30.6979 84.573 30.9002L84.4076 31.0656L84.2422 31.2311C84.1962 31.6264 84.1962 31.6264 83.9113 31.2311C83.8654 31.038 83.8654 31.0656 83.9113 31.0656C83.8378 31.0564 83.801 30.9737 83.801 30.6703Z" fill="#00785A"/>
<path opacity="0.4" d="M70.6416 0.170044V58.8633" stroke="#53606B" stroke-width="2" stroke-miterlimit="10"/>
<defs>
<linearGradient id="paint0_linear_263_78" x1="48.5282" y1="19.5918" x2="43.2216" y2="26.7778" gradientUnits="userSpaceOnUse">
<stop stop-color="#001B31"/>
<stop offset="1" stop-color="#003362"/>
</linearGradient>
</defs>
</svg>
